<?xml version="1.0" encoding="UTF-8" standalone="no"?>
<!-- Created with Inkscape (http://www.inkscape.org/) -->

<svg
   xmlns:dc="http://purl.org/dc/elements/1.1/"
   xmlns:cc="http://creativecommons.org/ns#"
   xmlns:rdf="http://www.w3.org/1999/02/22-rdf-syntax-ns#"
   xmlns:svg="http://www.w3.org/2000/svg"
   xmlns="http://www.w3.org/2000/svg"
   xmlns:xlink="http://www.w3.org/1999/xlink"
   xmlns:sodipodi="http://sodipodi.sourceforge.net/DTD/sodipodi-0.dtd"
   xmlns:inkscape="http://www.inkscape.org/namespaces/inkscape"
   width="128"
   height="128"
   id="svg11337"
   sodipodi:version="0.32"
   inkscape:version="0.92.4 (5da689c313, 2019-01-14)"
   version="1.0"
   sodipodi:docname="applications-education-science.svg"
   inkscape:output_extension="org.inkscape.output.svgz.inkscape"
   inkscape:export-filename="/home/pinheiro/pics/oxygen-icons/scalable/categories/applications-science.png"
   inkscape:export-xdpi="1440"
   inkscape:export-ydpi="1440">
  <defs
     id="defs11339">
    <linearGradient
       id="linearGradient3989">
      <stop
         style="stop-color:#ffffff;stop-opacity:1;"
         offset="0"
         id="stop3992" />
      <stop
         id="stop3998"
         offset="0.8115651"
         style="stop-color:#ffffff;stop-opacity:1;" />
      <stop
         style="stop-color:#ffffff;stop-opacity:0;"
         offset="1"
         id="stop3994" />
    </linearGradient>
    <linearGradient
       id="linearGradient3970"
       inkscape:collect="always">
      <stop
         id="stop3972"
         offset="0"
         style="stop-color:#bee2e5;stop-opacity:0.72093023" />
      <stop
         id="stop3974"
         offset="1"
         style="stop-color:#bee2e5;stop-opacity:0;" />
    </linearGradient>
    <linearGradient
       inkscape:collect="always"
       id="linearGradient3933">
      <stop
         style="stop-color:#ffffff;stop-opacity:1;"
         offset="0"
         id="stop3935" />
      <stop
         style="stop-color:#ffffff;stop-opacity:0;"
         offset="1"
         id="stop3937" />
    </linearGradient>
    <linearGradient
       id="linearGradient3922">
      <stop
         style="stop-color:#9ed1ff;stop-opacity:1;"
         offset="0"
         id="stop3924" />
      <stop
         style="stop-color:#2790f0;stop-opacity:0;"
         offset="1"
         id="stop3926" />
    </linearGradient>
    <linearGradient
       inkscape:collect="always"
       id="linearGradient3816">
      <stop
         style="stop-color:#ababab;stop-opacity:1"
         offset="0"
         id="stop3818" />
      <stop
         style="stop-color:#b3b3b3;stop-opacity:1"
         offset="1"
         id="stop3820" />
    </linearGradient>
    <linearGradient
       id="linearGradient3748">
      <stop
         style="stop-color:#24394a;stop-opacity:1;"
         offset="0"
         id="stop3750" />
      <stop
         style="stop-color:#000000;stop-opacity:0;"
         offset="1"
         id="stop3752" />
    </linearGradient>
    <linearGradient
       id="linearGradient3943">
      <stop
         style="stop-color:#d5dadc;stop-opacity:1;"
         offset="0"
         id="stop3945" />
      <stop
         id="stop3951"
         offset="0.5"
         style="stop-color:#c3e1ed;stop-opacity:0.31620553;" />
      <stop
         style="stop-color:#b2e9ff;stop-opacity:0;"
         offset="1"
         id="stop3947" />
    </linearGradient>
    <linearGradient
       inkscape:collect="always"
       id="linearGradient2943">
      <stop
         style="stop-color:white;stop-opacity:1;"
         offset="0"
         id="stop2945" />
      <stop
         style="stop-color:white;stop-opacity:0;"
         offset="1"
         id="stop2947" />
    </linearGradient>
    <linearGradient
       id="linearGradient2856">
      <stop
         style="stop-color:#d9d9d9;stop-opacity:1;"
         offset="0"
         id="stop2858" />
      <stop
         style="stop-color:white;stop-opacity:1;"
         offset="1"
         id="stop2860" />
    </linearGradient>
    <linearGradient
       inkscape:collect="always"
       id="linearGradient11023">
      <stop
         style="stop-color:#99b8ff;stop-opacity:1;"
         offset="0"
         id="stop11025" />
      <stop
         style="stop-color:#99b8ff;stop-opacity:0;"
         offset="1"
         id="stop11027" />
    </linearGradient>
    <linearGradient
       inkscape:collect="always"
       id="linearGradient31821">
      <stop
         style="stop-color:#8cc2e6;stop-opacity:1;"
         offset="0"
         id="stop31823" />
      <stop
         style="stop-color:#8cc2e6;stop-opacity:0;"
         offset="1"
         id="stop31825" />
    </linearGradient>
    <linearGradient
       id="linearGradient4116">
      <stop
         style="stop-color:#e6e6e6;stop-opacity:1;"
         offset="0"
         id="stop4118" />
      <stop
         style="stop-color:white;stop-opacity:0;"
         offset="1"
         id="stop4120" />
    </linearGradient>
    <radialGradient
       inkscape:collect="always"
       xlink:href="#linearGradient2943"
       id="radialGradient3720"
       gradientUnits="userSpaceOnUse"
       gradientTransform="matrix(2.6779145,0,0,0.6174406,-124.71864,-1.0384598)"
       cx="74.921875"
       cy="2.1976438"
       fx="74.921875"
       fy="2.1976438"
       r="1.75" />
    <linearGradient
       inkscape:collect="always"
       xlink:href="#linearGradient31821"
       id="linearGradient3738"
       gradientUnits="userSpaceOnUse"
       gradientTransform="matrix(0.85634004,0,0,0.73649931,131.20248,-89.972572)"
       x1="-80.500648"
       y1="257.15033"
       x2="-75.731331"
       y2="229.89458" />
    <linearGradient
       inkscape:collect="always"
       xlink:href="#linearGradient11023"
       id="linearGradient3740"
       gradientUnits="userSpaceOnUse"
       gradientTransform="matrix(1.032017,0.10762089,-0.19205145,1.0139725,73.032397,-0.99026175)"
       x1="-85.269962"
       y1="257.15033"
       x2="-75.731331"
       y2="257.15033" />
    <filter
       inkscape:collect="always"
       id="filter3871">
      <feGaussianBlur
         inkscape:collect="always"
         stdDeviation="0.99572798"
         id="feGaussianBlur3873" />
    </filter>
    <clipPath
       clipPathUnits="userSpaceOnUse"
       id="clipPath3875">
      <path
         sodipodi:nodetypes="ccccsscc"
         id="path3877"
         d="m 182.57876,23.242009 c 8.61524,-2.7483 14.99128,-3.286277 24.50711,-0.2337 l 1.27663,27.53779 c 2.09693,10.562182 25.56078,58.207581 20.01234,64.302671 -5.55882,8.16906 -20.13769,8.97142 -30.18358,8.99092 -12.0312,0.0224 -31.01193,-0.32064 -37.63347,-9.46464 -4.29329,-5.92883 15.1744,-44.595315 20.53569,-63.323844 l 1.48528,-27.809197 z"
         style="fill:#d5dadc;fill-opacity:1;fill-rule:evenodd;stroke:none"
         inkscape:export-filename="/home/beast/kalzium/kalzium-beaker-with-rod.png"
         inkscape:export-xdpi="90"
         inkscape:export-ydpi="90" />
    </clipPath>
    <filter
       inkscape:collect="always"
       id="filter3909">
      <feGaussianBlur
         inkscape:collect="always"
         stdDeviation="0.34345701"
         id="feGaussianBlur3911" />
    </filter>
    <filter
       inkscape:collect="always"
       id="filter3919"
       x="-0.06439819"
       width="1.1287964"
       y="-0.32325366"
       height="1.6465073">
      <feGaussianBlur
         inkscape:collect="always"
         stdDeviation="1.7172851"
         id="feGaussianBlur3921" />
    </filter>
    <linearGradient
       inkscape:collect="always"
       xlink:href="#linearGradient3748"
       id="linearGradient3754"
       x1="53.82539"
       y1="20.760077"
       x2="75.513788"
       y2="20.760077"
       gradientUnits="userSpaceOnUse" />
    <clipPath
       clipPathUnits="userSpaceOnUse"
       id="clipPath3778">
      <path
         sodipodi:nodetypes="cssssccscssssc"
         id="path3780"
         d="m 100.22942,18.978883 c -6.642656,0 -12.102771,0.734831 -13.108782,1.597837 -0.03484,0.02989 -0.07924,0.05788 -0.101906,0.08968 -0.230927,0.187558 -0.648103,0.515249 -0.648103,1.247291 0,0.425121 0.356866,0.9468 0.652179,1.239139 0.03331,0.03297 0.06669,0.07139 0.09783,0.09783 l 0,0 c 1.019459,0.900183 6.504301,1.597837 13.108782,1.597837 6.60448,0 12.12193,-0.697654 13.14139,-1.597837 0.0263,-0.01178 0.0451,-0.05894 0.0652,-0.06522 0.29532,-0.29234 0.65218,-0.846626 0.65218,-1.271747 0,-0.732045 -0.42125,-1.051583 -0.65218,-1.239142 -0.0226,-0.03178 -0.0643,-0.06652 -0.0978,-0.09783 -0.9734,-0.907844 -6.46612,-1.597837 -13.10878,-1.597837 z"
         style="fill:#f3f8fb;fill-opacity:1;stroke:none" />
    </clipPath>
    <filter
       inkscape:collect="always"
       id="filter3810">
      <feGaussianBlur
         inkscape:collect="always"
         stdDeviation="0.082528153"
         id="feGaussianBlur3812" />
    </filter>
    <linearGradient
       inkscape:collect="always"
       xlink:href="#linearGradient3816"
       id="linearGradient3822"
       x1="71.519272"
       y1="19.19927"
       x2="75.526856"
       y2="20.273099"
       gradientUnits="userSpaceOnUse" />
    <filter
       inkscape:collect="always"
       id="filter3872"
       x="-1.3495152"
       width="3.6990304"
       y="-0.31827147"
       height="1.6365429">
      <feGaussianBlur
         inkscape:collect="always"
         stdDeviation="0.25930372"
         id="feGaussianBlur3874" />
    </filter>
    <linearGradient
       inkscape:collect="always"
       xlink:href="#linearGradient3933"
       id="linearGradient3939"
       x1="74.135605"
       y1="21.524389"
       x2="74.902679"
       y2="18.661636"
       gradientUnits="userSpaceOnUse" />
    <linearGradient
       inkscape:collect="always"
       xlink:href="#linearGradient3970"
       id="linearGradient3968"
       gradientUnits="userSpaceOnUse"
       x1="64.88768"
       y1="85.096687"
       x2="64.88768"
       y2="89.6334" />
    <filter
       inkscape:collect="always"
       id="filter3980">
      <feGaussianBlur
         inkscape:collect="always"
         stdDeviation="0.060787696"
         id="feGaussianBlur3982" />
    </filter>
    <radialGradient
       inkscape:collect="always"
       xlink:href="#linearGradient3989"
       id="radialGradient3996"
       cx="102.64062"
       cy="83.640625"
       fx="102.64062"
       fy="83.640625"
       r="27.234375"
       gradientTransform="matrix(1,0,0,0.47261252,-38,44.211018)"
       gradientUnits="userSpaceOnUse" />
    <filter
       inkscape:collect="always"
       id="filter4004">
      <feGaussianBlur
         inkscape:collect="always"
         stdDeviation="0.043453162"
         id="feGaussianBlur4006" />
    </filter>
    <filter
       inkscape:collect="always"
       id="filter4079"
       x="-0.039931662"
       width="1.0798633"
       y="-0.18608521"
       height="1.3721704">
      <feGaussianBlur
         inkscape:collect="always"
         stdDeviation="0.46117041"
         id="feGaussianBlur4081" />
    </filter>
    <clipPath
       clipPathUnits="userSpaceOnUse"
       id="clipPath4093">
      <path
         style="stroke-width:1px"
         d="M 51.640892,23.237711 51.32228,28.894053 77.527544,33.158776 77.167225,22.891859 51.640892,23.237711 z"
         id="path4095" />
    </clipPath>
  </defs>
  <sodipodi:namedview
     id="base"
     pagecolor="#ffffff"
     bordercolor="#666666"
     borderopacity="1.0"
     gridtolerance="10000"
     guidetolerance="10"
     objecttolerance="10"
     inkscape:pageopacity="0.0"
     inkscape:pageshadow="2"
     inkscape:zoom="4"
     inkscape:cx="13.925935"
     inkscape:cy="52.255913"
     inkscape:document-units="px"
     inkscape:current-layer="layer1"
     width="128px"
     height="128px"
     inkscape:window-width="1024"
     inkscape:window-height="706"
     inkscape:window-x="295"
     inkscape:window-y="74"
     showguides="true"
     inkscape:guide-bbox="true"
     showgrid="false"
     inkscape:snap-bbox="true"
     inkscape:snap-nodes="true"
     inkscape:object-paths="true"
     inkscape:window-maximized="0" />
  <metadata
     id="metadata11342">
    <rdf:RDF>
      <cc:Work
         rdf:about="">
        <dc:format>image/svg+xml</dc:format>
        <dc:type
           rdf:resource="http://purl.org/dc/dcmitype/StillImage" />
        <dc:title />
      </cc:Work>
    </rdf:RDF>
  </metadata>
  <g
     inkscape:label="Layer 1"
     inkscape:groupmode="layer"
     id="layer1">
    <ellipse
       ry="6.375"
       rx="32"
       cy="118.375"
       cx="65"
       transform="matrix(0.94062144,0,0,1,3.8596063,0)"
       id="path3913"
       style="opacity:0.61395347;fill:#000d30;fill-opacity:1;stroke:none;filter:url(#filter3919)" />
    <ellipse
       ry="6.375"
       rx="32"
       cy="118.375"
       cx="65"
       style="opacity:1;fill:#000d30;fill-opacity:1;stroke:none;filter:url(#filter3909)"
       id="path3891"
       transform="matrix(0.94062144,0,0,1,3.8596063,0)" />
    <g
       inkscape:export-ydpi="90"
       inkscape:export-xdpi="90"
       inkscape:export-filename="/home/beast/kalzium/kalzium-beaker-with-rod.png"
       style="fill:#002b8e;fill-opacity:1"
       transform="matrix(1.1320495,0,0,1.0408306,-8.8436705,-6.4919559)"
       id="g1967">
      <path
         inkscape:connector-curvature="0"
         style="fill:#002b8e;fill-opacity:1;fill-rule:evenodd;stroke:none"
         d="m 40.871785,87.99796 c -5.084738,13.38575 -9.004683,25.17822 -6.993373,28.28246 5.802777,8.95595 23.213321,9.11055 34.116292,9.08906 9.103835,-0.0187 22.292599,-0.79876 27.330145,-8.64206 2.480594,-2.88705 -1.538065,-15.49852 -6.373622,-28.739326 l -48.079442,0.0099 z"
         id="path1969"
         sodipodi:nodetypes="cscccc" />
      <path
         inkscape:connector-curvature="0"
         sodipodi:nodetypes="cssccc"
         id="path1971"
         d="m 34.848384,106.40214 c -1.220491,4.7088 -1.362395,7.9952 -0.439433,9.5 5.583266,9.10296 23.027627,9.11524 33.836214,9.09375 9.025026,-0.0187 22.10433,-0.7817 27.098268,-8.625 1.186159,-1.39257 0.865034,-5.07469 -0.292954,-9.96875 z"
         style="opacity:0.5;fill:#002b8e;fill-opacity:1;fill-rule:evenodd;stroke:none" />
    </g>
    <path
       inkscape:connector-curvature="0"
       sodipodi:nodetypes="cssccc"
       inkscape:export-ydpi="90"
       inkscape:export-xdpi="90"
       inkscape:export-filename="/home/beast/kalzium/kalzium-beaker-with-rod.png"
       id="path1973"
       d="m 39.95632,85.101118 c -5.213188,13.410364 -9.057571,25.247322 -7.011933,28.332422 5.965839,8.99726 23.799709,9.1273 34.978099,9.10577 9.333806,-0.0187 22.855729,-0.80023 28.020528,-8.65794 2.543254,-2.89236 -1.483485,-15.515098 -6.441192,-28.780252 z"
       style="opacity:0.5;fill:#3466d9;fill-opacity:1;fill-rule:evenodd;stroke:none" />
    <ellipse
       ry="3.343473"
       rx="27.246075"
       cy="85.25708"
       cx="64.64138"
       inkscape:export-ydpi="90"
       inkscape:export-xdpi="90"
       inkscape:export-filename="/home/beast/kalzium/kalzium-beaker-with-rod.png"
       id="path1981"
       style="fill:#002b8e;fill-opacity:1;fill-rule:evenodd;stroke:none;stroke-width:0.70148689" />
    <path
       inkscape:connector-curvature="0"
       style="opacity:0.67441861;fill:url(#radialGradient3996);fill-opacity:1;fill-rule:evenodd;stroke:none;filter:url(#filter4004)"
       d="m 64.65625,82.00625 c -15.047591,0 -27.25,1.497201 -27.25,3.34375 0,0.03899 0.02046,0.08633 0.03125,0.125 0.382854,-1.805585 12.412632,-3.25 27.21875,-3.25 14.80612,0 26.80465,1.444415 27.1875,3.25 0.0108,-0.03867 0.0313,-0.08601 0.0313,-0.125 0,-1.846549 -12.17116,-3.34375 -27.21875,-3.34375 z"
       id="path3984" />
    <path
       inkscape:connector-curvature="0"
       style="fill:#bee2e5;fill-opacity:1;fill-rule:evenodd;stroke:none"
       d="m 75.803754,-0.00840669 c -0.744921,0.08605066 -1.317943,0.43918861 -1.449169,0.89969606 l -0.0064,0.00126 L 60.037626,86.453605 c 0.322728,0.381189 3.796829,0.498997 4.347513,0 L 78.605123,1.4923464 c 0.0045,-0.026727 -0.0014,-0.06332 0,-0.08997 0.03354,-0.63067968 -0.924667,-1.28207168 -2.016375,-1.41078345 -0.272927,-0.03218263 -0.536658,-0.02868321 -0.784969,0 z"
       id="path2110"
       inkscape:export-filename="/home/beast/kalzium/kalzium-beaker-with-rod.png"
       inkscape:export-xdpi="90"
       inkscape:export-ydpi="90"
       sodipodi:nodetypes="ccccccsscc" />
    <path
       inkscape:connector-curvature="0"
       style="fill:#002b8e;fill-opacity:1;fill-rule:evenodd;stroke:none"
       d="m 59.856057,88.152169 4.869674,0.09106 -0.04407,0.364309 -5.045954,-0.06831 0.220345,-0.387071 z"
       id="path2029"
       sodipodi:nodetypes="ccccc"
       inkscape:export-filename="/home/beast/kalzium/kalzium-beaker-with-rod.png"
       inkscape:export-xdpi="90"
       inkscape:export-ydpi="90" />
    <path
       inkscape:connector-curvature="0"
       style="fill:url(#linearGradient3738);fill-opacity:1;fill-rule:evenodd;stroke:url(#linearGradient3740);stroke-width:0.32746312;stroke-miterlimit:4;stroke-dasharray:none;stroke-opacity:1"
       d="m 62.162572,88.680806 -3.678397,19.504544 c -0.04392,0.0905 -0.08539,0.18296 -0.104108,0.28176 -0.01686,0.0891 -0.04011,0.22631 -0.0347,0.31308 0.04261,0.68377 0.770019,1.27692 1.735096,1.37754 0.965067,0.10068 1.856529,-0.35331 2.151517,-1.00185 l 0.0694,0.0313 3.886604,-20.506374 h -4.02541 z"
       id="path2009"
       inkscape:export-filename="/home/beast/kalzium/kalzium-beaker-with-rod.png"
       inkscape:export-xdpi="90"
       inkscape:export-ydpi="90" />
    <path
       inkscape:connector-curvature="0"
       style="fill:url(#radialGradient3720);fill-opacity:1;fill-rule:nonzero;stroke:none"
       d="m 76.390032,0.16192045 c -0.992131,0 -1.804988,0.47685649 -1.804988,1.06441295 0,0.2818683 0.217722,0.5295543 0.520082,0.7200441 -0.02607,-0.075382 -0.06118,-0.1392189 -0.06118,-0.2191439 -1e-6,-0.6393993 0.878281,-1.15833173 1.957953,-1.15833173 0.376955,0 0.802621,0.0626298 1.101349,0.17218446 -0.285879,-0.363743 -0.991477,-0.57916588 -1.713212,-0.57916588 z"
       id="path2938"
       sodipodi:nodetypes="cscsscc" />
    <path
       inkscape:connector-curvature="0"
       sodipodi:nodetypes="ccccsscc"
       id="path3244"
       d="m 51.635299,23.242009 c 8.933327,-2.7483 15.544776,-3.286277 25.41195,-0.2337 l 1.323771,27.53779 c 2.174353,10.562182 26.50452,58.207581 20.751227,64.302671 -5.764053,8.16906 -20.881203,8.97142 -31.298007,8.99092 -12.475409,0.0224 -32.156949,-0.32064 -39.022958,-9.46464 -4.45181,-5.92883 15.734656,-44.595315 21.293901,-63.323844 z"
       style="fill:none;stroke:none;stroke-width:0.99875116;stroke-miterlimit:4;stroke-dasharray:none;stroke-opacity:1"
       inkscape:export-filename="/home/beast/kalzium/kalzium-beaker-with-rod.png"
       inkscape:export-xdpi="90"
       inkscape:export-ydpi="90" />
    <path
       inkscape:connector-curvature="0"
       sodipodi:nodetypes="cssssccscssssc"
       id="path4077"
       d="m 64.34375,19.535737 c -6.642655,-0.195577 -12.10277,0.378494 -13.108781,1.21188 -0.03484,0.02886 -0.07924,0.05555 -0.101906,0.08668 -0.230927,0.180759 -0.648103,0.496167 -0.648103,1.228209 0,0.425121 0.356866,0.957307 0.652179,1.258341 0.03331,0.03395 0.06669,0.07335 0.09783,0.10071 v 0 c 1.019459,0.930199 6.504301,1.789341 13.108781,1.983794 6.60448,0.194453 12.121931,-0.340753 13.14139,-1.21092 0.02635,-0.01101 0.04514,-0.05761 0.06522,-0.0633 0.295316,-0.283645 0.652179,-0.827424 0.652179,-1.252545 4e-6,-0.732045 -0.421248,-1.063986 -0.652174,-1.258344 -0.02265,-0.03245 -0.06426,-0.06841 -0.09783,-0.10071 -0.973402,-0.936504 -6.466125,-1.788217 -13.108781,-1.983794 z"
       style="fill:#183648;fill-opacity:1;stroke:none;filter:url(#filter4079)"
       clip-path="url(#clipPath4093)" />
    <path
       inkscape:connector-curvature="0"
       style="fill:#00336b;fill-opacity:1;fill-rule:evenodd;stroke:none;filter:url(#filter3871)"
       d="m 191.5,21.15625 c -2.9911,0.336174 -6.025,1.063137 -9.375,2.09375 l -1.53125,27.8125 c -5.55924,18.728529 -25.73306,57.38367 -21.28125,63.3125 5.14951,6.858 17.50466,8.7656 28.625,9.28125 -10.61771,-0.53322 -22.34147,-2.47623 -27.25,-9.28125 -4.27653,-5.92883 15.79142,-44.958971 21.13177,-63.6875 L 183.1072,23.5 c 3.17223,-1.015926 5.55949,-2.001604 8.3928,-2.34375 z m 7.40625,0 c 2.51475,0.294772 5.04237,0.76482 8.00445,1.71875 l 1.4018,27.65625 c 2.08874,10.562182 25.46426,58.21741 19.9375,64.3125 -4.79346,7.07193 -16.31063,8.63577 -25.8125,8.9375 9.95076,-0.27833 22.14395,-1.78957 27.1875,-8.9375 5.75329,-6.09509 -18.57565,-53.750318 -20.75,-64.3125 L 207.5625,23 c -3.15702,-0.976679 -5.98311,-1.55699 -8.65625,-1.84375 z"
       id="path3862"
       transform="matrix(1.0369217,0,0,1,-137.69223,0)"
       clip-path="url(#clipPath3875)"
       sodipodi:nodetypes="cccscscccccccccccc" />
    <path
       inkscape:connector-curvature="0"
       style="fill:url(#linearGradient3968);fill-opacity:1;stroke:none;filter:url(#filter3980)"
       d="m 64.375,86.6625 c -0.370073,0.368211 -3.860618,0.407921 -4.3125,-0.06875 l 0.3125,1.9375 c 1.401636,0.02729 2.817048,0.0625 4.28125,0.0625 0.02149,0 0.04102,6e-6 0.0625,0 z"
       id="rect3941"
       sodipodi:nodetypes="cccscc" />
    <path
       inkscape:connector-curvature="0"
       style="opacity:1;fill:#f3f8fb;fill-opacity:1;stroke:none"
       d="m 64.34375,19.127698 c -6.642655,0 -12.10277,0.734831 -13.108781,1.597837 -0.03484,0.02989 -0.07924,0.05788 -0.101906,0.08968 -0.230927,0.187558 -0.648103,0.515249 -0.648103,1.247291 0,0.425121 0.356866,0.9468 0.652179,1.239139 0.03331,0.03297 0.06669,0.07139 0.09783,0.09783 v 0 c 1.019459,0.900183 6.504301,1.597837 13.108781,1.597837 6.60448,0 12.121931,-0.697654 13.14139,-1.597837 0.02635,-0.01178 0.04514,-0.05894 0.06522,-0.06522 0.295316,-0.29234 0.652179,-0.846626 0.652179,-1.271747 4e-6,-0.732045 -0.421248,-1.051583 -0.652174,-1.239142 -0.02265,-0.03178 -0.06426,-0.06652 -0.09783,-0.09783 -0.973402,-0.907844 -6.466125,-1.597837 -13.108781,-1.597837 z"
       id="path2960"
       sodipodi:nodetypes="cssssccscssssc" />
    <rect
       style="opacity:0.61395347;fill:url(#linearGradient3754);fill-opacity:1;stroke:none;filter:url(#filter3810)"
       id="rect2974"
       width="21.688398"
       height="2.4098222"
       x="53.82539"
       y="19.555166"
       rx="71.932549"
       ry="2.4098222" />
    <path
       inkscape:connector-curvature="0"
       style="fill:url(#linearGradient3822);fill-opacity:1;stroke-width:1px"
       d="m 71.295503,19.171721 -0.43716,2.586159 c 1.570903,-0.09616 3.995553,-0.438281 4.484413,-0.773614 l 0.176998,-1.05752 c -1.257266,-0.513447 -2.701663,-0.791374 -4.22867,-0.728634 l 0.0044,-0.02639 z"
       id="path3814"
       sodipodi:nodetypes="ccccccc" />
    <path
       inkscape:connector-curvature="0"
       style="stroke:url(#linearGradient3939);stroke-width:0.30000001;stroke-miterlimit:4;stroke-dasharray:none;stroke-opacity:1;filter:url(#filter3872)"
       d="m 74.718152,17.254174 -0.66115,3.95534"
       id="path3829"
       sodipodi:nodetypes="cc" />
  </g>
</svg>
