<?xml version="1.0" encoding="UTF-8" standalone="no"?>
<!-- Generator: Adobe Illustrator 13.0.0, SVG Export Plug-In . SVG Version: 6.00 Build 14948)  -->

<svg
   xmlns:dc="http://purl.org/dc/elements/1.1/"
   xmlns:cc="http://creativecommons.org/ns#"
   xmlns:rdf="http://www.w3.org/1999/02/22-rdf-syntax-ns#"
   xmlns:svg="http://www.w3.org/2000/svg"
   xmlns="http://www.w3.org/2000/svg"
   xmlns:sodipodi="http://sodipodi.sourceforge.net/DTD/sodipodi-0.dtd"
   xmlns:inkscape="http://www.inkscape.org/namespaces/inkscape"
   version="1.1"
   id="Layer_1"
   x="0px"
   y="0px"
   width="128px"
   height="128px"
   viewBox="0 0 128 128"
   enable-background="new 0 0 128 128"
   xml:space="preserve"
   sodipodi:docname="network-wireless-connected-50.svg"
   inkscape:version="0.92.4 (5da689c313, 2019-01-14)"><metadata
   id="metadata81"><rdf:RDF><cc:Work
       rdf:about=""><dc:format>image/svg+xml</dc:format><dc:type
         rdf:resource="http://purl.org/dc/dcmitype/StillImage" /></cc:Work></rdf:RDF></metadata><defs
   id="defs79">
	
	

		
	
			
			
		
				
				
				
			
					
						<linearGradient
   gradientTransform="translate(55.9126,97.8457)"
   y2="-70.060898"
   x2="28.0818"
   y1="-60.195301"
   x1="42.171398"
   gradientUnits="userSpaceOnUse"
   id="SVGID_6_">
						<stop
   id="stop43"
   style="stop-color:#80C11B"
   offset="0" />
						<stop
   id="stop45"
   style="stop-color:#80E21B"
   offset="1" />
					</linearGradient>
					
					
						<linearGradient
   gradientTransform="translate(55.9126,97.8457)"
   y2="-73.444603"
   x2="32.227402"
   y1="-56.747601"
   x1="56.0732"
   gradientUnits="userSpaceOnUse"
   id="SVGID_7_">
						<stop
   id="stop50"
   style="stop-color:#80C11B"
   offset="0" />
						<stop
   id="stop52"
   style="stop-color:#80E21B"
   offset="1" />
					</linearGradient>
					
					
						<linearGradient
   gradientTransform="translate(55.9126,97.8457)"
   y2="-76.421204"
   x2="36.444099"
   y1="-53.678699"
   x1="68.923798"
   gradientUnits="userSpaceOnUse"
   id="SVGID_8_">
						<stop
   id="stop57"
   style="stop-color:#80C11B"
   offset="0" />
						<stop
   id="stop59"
   style="stop-color:#80E21B"
   offset="1" />
					</linearGradient>
					
				
					
						<linearGradient
   gradientTransform="rotate(180,4251.1562,447.8994)"
   y2="858.10962"
   x2="8458.3076"
   y1="867.97461"
   x1="8472.3965"
   gradientUnits="userSpaceOnUse"
   id="SVGID_3_">
						<stop
   id="stop20"
   style="stop-color:#80C11B"
   offset="0" />
						<stop
   id="stop22"
   style="stop-color:#80E21B"
   offset="1" />
					</linearGradient>
					
					
						<linearGradient
   gradientTransform="rotate(180,4251.1562,447.8994)"
   y2="854.7254"
   x2="8462.4541"
   y1="871.42188"
   x1="8486.2988"
   gradientUnits="userSpaceOnUse"
   id="SVGID_4_">
						<stop
   id="stop27"
   style="stop-color:#80C11B"
   offset="0" />
						<stop
   id="stop29"
   style="stop-color:#80E21B"
   offset="1" />
					</linearGradient>
					
					
						<linearGradient
   gradientTransform="rotate(180,4251.1562,447.8994)"
   y2="851.74878"
   x2="8466.668"
   y1="874.49017"
   x1="8499.1465"
   gradientUnits="userSpaceOnUse"
   id="SVGID_5_">
						<stop
   id="stop34"
   style="stop-color:#80C11B"
   offset="0" />
						<stop
   id="stop36"
   style="stop-color:#80E21B"
   offset="1" />
					</linearGradient>
					
				
					<linearGradient
   y2="88.667"
   x2="80.720703"
   y1="88.667"
   x1="47.276901"
   gradientUnits="userSpaceOnUse"
   id="SVGID_1_">
						<stop
   id="stop2"
   style="stop-color:#A3A3A8"
   offset="0.0095" />
						<stop
   id="stop4"
   style="stop-color:#D5D7D8"
   offset="0.5071" />
						<stop
   id="stop6"
   style="stop-color:#5C5F61"
   offset="1" />
					</linearGradient>
					
					<radialGradient
   gradientUnits="userSpaceOnUse"
   r="21.6094"
   cy="32.6348"
   cx="63.999001"
   id="SVGID_2_">
						<stop
   id="stop11"
   style="stop-color:#5F5D5C"
   offset="0" />
						<stop
   id="stop13"
   style="stop-color:#181500"
   offset="1" />
					</radialGradient>
					
				</defs><sodipodi:namedview
   pagecolor="#ffffff"
   bordercolor="#666666"
   borderopacity="1"
   objecttolerance="10"
   gridtolerance="10"
   guidetolerance="10"
   inkscape:pageopacity="0"
   inkscape:pageshadow="2"
   inkscape:window-width="640"
   inkscape:window-height="480"
   id="namedview77"
   showgrid="false"
   inkscape:zoom="2.6074563"
   inkscape:cx="71.93913"
   inkscape:cy="97.51115"
   inkscape:window-x="0"
   inkscape:window-y="0"
   inkscape:window-maximized="0"
   inkscape:current-layer="Layer_1" />
<path
   inkscape:connector-curvature="0"
   style="fill:url(#SVGID_1_);stroke:#808080;stroke-miterlimit:3.86369991"
   id="path9"
   d="m 53.231,50.161 -5.954,72.988 c 0,0 8.409,4.023 17.334,4.023 7.361,0 16.109,-4.432 16.109,-4.432 L 74.765,50.16 H 53.231 Z"
   stroke-miterlimit="3.8637" /><path
   inkscape:connector-curvature="0"
   style="fill:url(#SVGID_2_)"
   id="path16"
   d="m 42.397,32.636 c 0,-11.939 9.67,-21.617 21.604,-21.617 11.929,0 21.601,9.678 21.601,21.617 0,11.938 -9.672,21.615 -21.601,21.615 -11.934,0 -21.604,-9.678 -21.604,-21.615 z" /><path
   inkscape:connector-curvature="0"
   style="fill:#ff2a2a"
   id="path25"
   d="m 34.807,44.626 c 0.999,1.359 2.981,1.35 4.174,0.154 1.23,-1.227 1.117,-3.18 0.196,-4.656 -2.841,-4.547 -2.817,-10.373 0.075,-14.896 0.918,-1.434 0.932,-3.336 -0.271,-4.539 -1.183,-1.182 -3.146,-1.232 -4.142,0.113 -5.218,7.058 -5.228,16.754 -0.032,23.824 z" /><path
   inkscape:connector-curvature="0"
   style="fill:#ff5555"
   id="path32"
   d="m 25.639,54.653 c 1.163,1.408 3.285,1.395 4.575,0.102 1.28,-1.277 1.341,-3.318 0.217,-4.732 -8.005,-10.07 -8.025,-24.4 -0.063,-34.49 1.137,-1.441 1.148,-3.516 -0.15,-4.814 C 28.923,9.424 26.8,9.42 25.635,10.828 15.153,23.522 15.155,41.962 25.639,54.653 Z" /><path
   inkscape:connector-curvature="0"
   style="fill:#ff0000"
   id="path48"
   d="m 93.193,20.849 c -1.002,-1.359 -2.982,-1.35 -4.176,-0.156 -1.23,1.229 -1.117,3.182 -0.195,4.656 2.84,4.549 2.816,10.375 -0.076,14.898 -0.918,1.434 -0.932,3.336 0.271,4.539 1.184,1.182 3.146,1.232 4.141,-0.113 5.221,-7.059 5.231,-16.754 0.035,-23.824 z" /><path
   inkscape:connector-curvature="0"
   style="fill:#ff5555"
   id="path55"
   d="m 102.359,10.821 c -1.162,-1.408 -3.283,-1.395 -4.574,-0.102 -1.281,1.277 -1.342,3.318 -0.217,4.732 8.004,10.068 8.025,24.4 0.063,34.488 -1.137,1.443 -1.148,3.52 0.152,4.818 1.295,1.293 3.418,1.299 4.582,-0.111 10.483,-12.694 10.481,-31.133 -0.006,-43.825 z" /><path
   style="fill:#666666"
   inkscape:connector-curvature="0"
   id="path68"
   d="m 65.863,13.265 c -1.166,-0.129 -2.316,-0.139 -3.445,-0.063 l -0.258,1.834 c 1.146,-0.082 2.316,-0.07 3.5,0.062 7.67,0.85 13.768,6.096 16.105,12.947 l 0.77,0.127 C 80.762,20.378 74.252,14.193 65.863,13.265 Z" />

</svg>