<?xml version="1.0" encoding="UTF-8" standalone="no"?>
<!-- Generator: Adobe Illustrator 13.0.0, SVG Export Plug-In . SVG Version: 6.00 Build 14948)  -->

<svg
   xmlns:dc="http://purl.org/dc/elements/1.1/"
   xmlns:cc="http://creativecommons.org/ns#"
   xmlns:rdf="http://www.w3.org/1999/02/22-rdf-syntax-ns#"
   xmlns:svg="http://www.w3.org/2000/svg"
   xmlns="http://www.w3.org/2000/svg"
   xmlns:sodipodi="http://sodipodi.sourceforge.net/DTD/sodipodi-0.dtd"
   xmlns:inkscape="http://www.inkscape.org/namespaces/inkscape"
   version="1.1"
   id="Layer_1"
   x="0px"
   y="0px"
   width="128px"
   height="128px"
   viewBox="0 0 128 128"
   enable-background="new 0 0 128 128"
   xml:space="preserve"
   sodipodi:docname="secure-card.svg"
   inkscape:version="0.92.4 (5da689c313, 2019-01-14)"><metadata
   id="metadata91"><rdf:RDF><cc:Work
       rdf:about=""><dc:format>image/svg+xml</dc:format><dc:type
         rdf:resource="http://purl.org/dc/dcmitype/StillImage" /></cc:Work></rdf:RDF></metadata><defs
   id="defs89"><linearGradient
     id="SVGID_1_-3"
     gradientUnits="userSpaceOnUse"
     x1="-290.03369"
     y1="-718.05658"
     x2="-290.03369"
     y2="-772.23242"
     gradientTransform="matrix(1,0,0,-1,370.0342,-712.6895)"><stop
       offset="0"
       style="stop-color:#D5D7D8"
       id="stop2-6" /><stop
       offset="1"
       style="stop-color:#5C5F61"
       id="stop4-7" /></linearGradient><linearGradient
     id="SVGID_2_-5"
     gradientUnits="userSpaceOnUse"
     x1="-290.03369"
     y1="-762.25391"
     x2="-290.03369"
     y2="-833.79053"
     gradientTransform="matrix(1,0,0,-1,370.0342,-712.6895)"><stop
       offset="0"
       style="stop-color:#EB7680"
       id="stop13-3" /><stop
       offset="1"
       style="stop-color:#C1282F"
       id="stop15" /></linearGradient><linearGradient
     id="SVGID_3_-5"
     gradientUnits="userSpaceOnUse"
     x1="-290.03421"
     y1="-818.6499"
     x2="-290.03421"
     y2="-781.39209"
     gradientTransform="matrix(1,0,0,-1,370.0342,-712.6895)"><stop
       offset="0"
       style="stop-color:#EB7680"
       id="stop20-6" /><stop
       offset="1"
       style="stop-color:#C1282F"
       id="stop22" /></linearGradient><linearGradient
     id="SVGID_4_-2"
     gradientUnits="userSpaceOnUse"
     x1="-290.0361"
     y1="-815.79352"
     x2="-290.0361"
     y2="-784.24463"
     gradientTransform="matrix(1,0,0,-1,370.0342,-712.6895)"><stop
       offset="0.0824"
       style="stop-color:#C2C2C2"
       id="stop27-9" /><stop
       offset="0.2635"
       style="stop-color:#D2D2D2"
       id="stop29-1" /><stop
       offset="0.5594"
       style="stop-color:#E6E6E6"
       id="stop31" /><stop
       offset="0.7582"
       style="stop-color:#EDEDED"
       id="stop33" /></linearGradient></defs><sodipodi:namedview
   pagecolor="#ffffff"
   bordercolor="#666666"
   borderopacity="1"
   objecttolerance="10"
   gridtolerance="10"
   guidetolerance="10"
   inkscape:pageopacity="0"
   inkscape:pageshadow="2"
   inkscape:window-width="1366"
   inkscape:window-height="711"
   id="namedview87"
   showgrid="false"
   inkscape:zoom="3.6875"
   inkscape:cx="8.8761877"
   inkscape:cy="38.574304"
   inkscape:window-x="0"
   inkscape:window-y="0"
   inkscape:window-maximized="1"
   inkscape:current-layer="Layer_1" />
<g
   id="g84">
	
		<linearGradient
   id="SVGID_1_"
   gradientUnits="userSpaceOnUse"
   x1="-183.2271"
   y1="-605.4165"
   x2="-183.2271"
   y2="-721.1553"
   gradientTransform="matrix(1 0 0 -1 246.7271 -588.7695)">
		<stop
   offset="0"
   style="stop-color:#5F5D5C"
   id="stop2" />
		<stop
   offset="1"
   style="stop-color:#181500"
   id="stop4" />
	</linearGradient>
	<path
   fill="url(#SVGID_1_)"
   d="M109.002,18.193H18c-9.342,0-16.914,7.572-16.914,16.91v67.376c0,9.343,7.572,16.915,16.914,16.915   h91.002c9.34,0,16.912-7.572,16.912-16.915V35.103C125.914,25.767,118.342,18.193,109.002,18.193z"
   id="path7" />
	<g
   id="g34">
		<radialGradient
   id="SVGID_2_"
   cx="36.7881"
   cy="77.3691"
   r="28.002"
   gradientUnits="userSpaceOnUse">
			<stop
   offset="0"
   style="stop-color:#FAFAFA"
   id="stop9" />
			<stop
   offset="0.4142"
   style="stop-color:#E3E3E3"
   id="stop11" />
			<stop
   offset="1"
   style="stop-color:#C7C7C7"
   id="stop13" />
		</radialGradient>
		<path
   fill="url(#SVGID_2_)"
   d="M8.796,77.369c0-15.472,12.532-28.012,27.993-28.012c15.458,0,27.991,12.541,27.991,28.012    c0,15.471-12.533,28.012-27.991,28.012C21.328,105.381,8.796,92.84,8.796,77.369L8.796,77.369z"
   id="path16" />
		<linearGradient
   id="SVGID_3_"
   gradientUnits="userSpaceOnUse"
   x1="49.4316"
   y1="63.1265"
   x2="49.4316"
   y2="77.7227">
			<stop
   offset="0"
   style="stop-color:#99DBF6"
   id="stop18" />
			<stop
   offset="1"
   style="stop-color:#00B2DE"
   id="stop20" />
		</linearGradient>
		<path
   fill="url(#SVGID_3_)"
   d="M42.138,70.426c0-4.031,3.265-7.299,7.295-7.299c4.026,0,7.293,3.268,7.293,7.299    c0,4.033-3.267,7.297-7.293,7.297C45.402,77.723,42.138,74.459,42.138,70.426L42.138,70.426z"
   id="path23" />
		<path
   fill="#F2F2F2"
   d="M16.463,62.863c4.675-6.417,13.269-11.333,21.304-11.333c8.033,0,16.407,4.917,21.081,11.333h0.889    c-4.954-7.553-12.994-12.495-22.08-12.495c-9.089,0-17.13,4.942-22.082,12.495H16.463z"
   id="path25" />
		<linearGradient
   id="SVGID_4_"
   gradientUnits="userSpaceOnUse"
   x1="36.9375"
   y1="100.0137"
   x2="36.9375"
   y2="87.5205">
			<stop
   offset="0"
   style="stop-color:#00B2DE"
   id="stop27" />
			<stop
   offset="1"
   style="stop-color:#99DBF6"
   id="stop29" />
		</linearGradient>
		<path
   fill="url(#SVGID_4_)"
   d="M58.133,87.521c-4.676,6.417-13.271,11.333-21.305,11.333c-8.033,0-16.407-4.916-21.083-11.333    h-0.889c4.955,7.554,12.994,12.493,22.082,12.493s17.128-4.939,22.08-12.493H58.133z"
   id="path32" />
	</g>
	<g
   id="g73">
		<g
   id="g47">
			
				<linearGradient
   id="SVGID_5_"
   gradientUnits="userSpaceOnUse"
   x1="-145.3345"
   y1="-693.0664"
   x2="-172.2897"
   y2="-674.1921"
   gradientTransform="matrix(1 0 0 -1 246.7271 -588.7695)">
				<stop
   offset="0.0824"
   style="stop-color:#C2C2C2"
   id="stop36" />
				<stop
   offset="0.2635"
   style="stop-color:#D2D2D2"
   id="stop38" />
				<stop
   offset="0.5594"
   style="stop-color:#E6E6E6"
   id="stop40" />
				<stop
   offset="0.7582"
   style="stop-color:#EDEDED"
   id="stop42" />
			</linearGradient>
			<polygon
   fill="url(#SVGID_5_)"
   points="69.425,92.582 106.406,92.582 106.406,97.137 69.425,97.137    "
   id="polygon45" />
		</g>
		<g
   id="g71">
			
				<linearGradient
   id="SVGID_6_"
   gradientUnits="userSpaceOnUse"
   x1="-134.0415"
   y1="-686.4121"
   x2="-170.0658"
   y2="-661.1877"
   gradientTransform="matrix(1 0 0 -1 246.7271 -588.7695)">
				<stop
   offset="0.0824"
   style="stop-color:#C2C2C2"
   id="stop49" />
				<stop
   offset="0.2635"
   style="stop-color:#D2D2D2"
   id="stop51" />
				<stop
   offset="0.5594"
   style="stop-color:#E6E6E6"
   id="stop53" />
				<stop
   offset="0.7582"
   style="stop-color:#EDEDED"
   id="stop55" />
			</linearGradient>
			<polygon
   fill="url(#SVGID_6_)"
   points="69.425,82.754 119.922,82.754 119.922,87.309 69.425,87.309    "
   id="polygon58" />
			
				<linearGradient
   id="SVGID_7_"
   gradientUnits="userSpaceOnUse"
   x1="-145.335"
   y1="-673.4082"
   x2="-172.2894"
   y2="-654.5345"
   gradientTransform="matrix(1 0 0 -1 246.7271 -588.7695)">
				<stop
   offset="0.0824"
   style="stop-color:#C2C2C2"
   id="stop60" />
				<stop
   offset="0.2635"
   style="stop-color:#D2D2D2"
   id="stop62" />
				<stop
   offset="0.5594"
   style="stop-color:#E6E6E6"
   id="stop64" />
				<stop
   offset="0.7582"
   style="stop-color:#EDEDED"
   id="stop66" />
			</linearGradient>
			<polygon
   fill="url(#SVGID_7_)"
   points="69.425,72.926 106.406,72.926 106.406,77.479 69.425,77.479    "
   id="polygon69" />
		</g>
	</g>
	
		<linearGradient
   id="SVGID_8_"
   gradientUnits="userSpaceOnUse"
   x1="-183.2271"
   y1="-609.1968"
   x2="-183.2271"
   y2="-630.772"
   gradientTransform="matrix(1 0 0 -1 246.7271 -588.7695)">
		<stop
   offset="0"
   style="stop-color:#80E21B"
   id="stop75" />
		<stop
   offset="1"
   style="stop-color:#80B400"
   id="stop77" />
	</linearGradient>
	<path
   fill="url(#SVGID_8_)"
   d="M107.616,20.427H19.388c-9.058,0-16.399,7.343-16.399,16.394v5.182h121.023V36.82   C124.012,27.769,116.672,20.427,107.616,20.427z"
   id="path80" />
	<path
   opacity="0.5"
   fill="#FFFFFF"
   d="M20.622,24.101h86.031c7.447,0,13.686,5.099,15.463,11.987   c-0.789-8.021-7.555-14.292-15.787-14.292H20.945c-8.235,0-15.002,6.271-15.791,14.294C6.932,29.202,13.173,24.101,20.622,24.101z"
   id="path82" />
</g>
<g
   transform="matrix(0.58874353,0,0,0.5541053,51.564812,53.408418)"
   id="g44"><g
     id="g9"><linearGradient
       id="linearGradient79"
       gradientUnits="userSpaceOnUse"
       x1="-290.03369"
       y1="-718.05658"
       x2="-290.03369"
       y2="-772.23242"
       gradientTransform="matrix(1,0,0,-1,370.0342,-712.6895)"><stop
         offset="0"
         style="stop-color:#D5D7D8"
         id="stop75-2" /><stop
         offset="1"
         style="stop-color:#5C5F61"
         id="stop77-7" /></linearGradient><path
       style="fill:url(#SVGID_1_-3);stroke:#808080"
       inkscape:connector-curvature="0"
       d="M 96.861,52.229 V 36.859 C 96.847,27.543 89.312,20.009 80.007,19.996 v 0 c -9.319,0.016 -16.853,7.547 -16.864,16.863 v 0 15.37 c 0,4.035 -3.273,7.313 -7.315,7.313 v 0 c -4.04,0 -7.317,-3.276 -7.317,-7.313 v 0 -15.37 C 48.516,19.465 62.611,5.375 80.008,5.367 v 0 C 97.4,5.375 111.484,19.465 111.49,36.859 v 0 15.37 c 0,4.035 -3.277,7.313 -7.313,7.313 v 0 c -4.038,-0.001 -7.316,-3.276 -7.316,-7.313 z"
       id="path7-0" /></g><path
     style="opacity:0.45;fill:#cccccc"
     inkscape:connector-curvature="0"
     d="M 80.008,7.656 C 63.732,7.664 50.545,20.845 50.541,37.117 v 3.742 c 0.004,-16.272 13.191,-29.454 29.467,-29.461 16.27,0.007 29.445,13.188 29.451,29.461 V 37.117 C 109.453,20.845 96.277,7.664 80.008,7.656 Z"
     id="path11" /><linearGradient
     id="linearGradient88"
     gradientUnits="userSpaceOnUse"
     x1="-290.03369"
     y1="-762.25391"
     x2="-290.03369"
     y2="-833.79053"
     gradientTransform="matrix(1,0,0,-1,370.0342,-712.6895)"><stop
       offset="0"
       style="stop-color:#EB7680"
       id="stop84" /><stop
       offset="1"
       style="stop-color:#C1282F"
       id="stop86" /></linearGradient><path
     style="fill:url(#SVGID_2_-5)"
     inkscape:connector-curvature="0"
     d="m 127.217,104.843 c 0,8.977 -7.634,16.258 -17.041,16.258 H 49.824 c -9.413,0 -17.041,-7.281 -17.041,-16.258 V 65.817 c 0,-8.979 7.628,-16.253 17.041,-16.253 h 60.352 c 9.407,0 17.041,7.271 17.041,16.253 z"
     id="path18" /><linearGradient
     id="linearGradient95"
     gradientUnits="userSpaceOnUse"
     x1="-290.03421"
     y1="-818.6499"
     x2="-290.03421"
     y2="-781.39209"
     gradientTransform="matrix(1,0,0,-1,370.0342,-712.6895)"><stop
       offset="0"
       style="stop-color:#EB7680"
       id="stop91" /><stop
       offset="1"
       style="stop-color:#C1282F"
       id="stop93" /></linearGradient><path
     style="fill:url(#SVGID_3_-5)"
     inkscape:connector-curvature="0"
     d="m 71.057,97.017 v -9.481 c -1.619,-1.979 -2.608,-4.521 -2.604,-7.281 v 0 c 0,-6.385 5.168,-11.551 11.55,-11.551 v 0 c 6.38,0 11.546,5.166 11.546,11.551 v 0 c 0,2.76 -0.983,5.301 -2.603,7.279 v 0 9.483 c 0,4.941 -4.006,8.944 -8.943,8.944 v 0 c -4.942,0 -8.946,-4.004 -8.946,-8.944 z m 0.254,-16.765 c 0,2.236 0.848,4.254 2.235,5.8 v 0 l 0.366,0.407 v 10.558 c 0.006,3.362 2.729,6.08 6.089,6.088 v 0 c 3.36,-0.008 6.077,-2.726 6.087,-6.088 v 0 -10.558 l 0.362,-0.407 c 1.396,-1.546 2.235,-3.563 2.235,-5.8 v 0 c -0.006,-4.803 -3.889,-8.685 -8.687,-8.696 v 0 c -4.797,0.013 -8.682,3.895 -8.687,8.696 z"
     id="path25-9" /><linearGradient
     id="linearGradient106"
     gradientUnits="userSpaceOnUse"
     x1="-290.0361"
     y1="-815.79352"
     x2="-290.0361"
     y2="-784.24463"
     gradientTransform="matrix(1,0,0,-1,370.0342,-712.6895)"><stop
       offset="0.0824"
       style="stop-color:#C2C2C2"
       id="stop98" /><stop
       offset="0.2635"
       style="stop-color:#D2D2D2"
       id="stop100" /><stop
       offset="0.5594"
       style="stop-color:#E6E6E6"
       id="stop102" /><stop
       offset="0.7582"
       style="stop-color:#EDEDED"
       id="stop104" /></linearGradient><path
     style="fill:url(#SVGID_4_-2)"
     inkscape:connector-curvature="0"
     d="m 71.311,80.252 c 0,2.236 0.848,4.254 2.235,5.8 v 0 l 0.366,0.407 v 10.558 c 0.006,3.362 2.729,6.08 6.089,6.088 v 0 c 3.36,-0.008 6.077,-2.726 6.087,-6.088 v 0 -10.558 l 0.362,-0.407 c 1.396,-1.546 2.235,-3.563 2.235,-5.8 v 0 c -0.006,-4.803 -3.889,-8.685 -8.687,-8.696 v 0 c -4.797,0.013 -8.68,3.895 -8.687,8.696 z"
     id="path36" /><path
     style="fill:#ac2428"
     inkscape:connector-curvature="0"
     d="M 110.176,118.101 H 49.824 c -9.413,0 -17.041,-7.281 -17.041,-16.258 v 3 c 0,8.977 7.628,16.258 17.041,16.258 h 60.352 c 9.407,0 17.041,-7.281 17.041,-16.258 v -3 c 0,8.976 -7.634,16.258 -17.041,16.258 z"
     id="path38" /><path
     style="opacity:0.5;fill:#ec8690"
     inkscape:connector-curvature="0"
     d="M 108.047,53.564 H 51.953 c -8.75,0 -15.84,6.761 -15.84,15.106 v 11.52 c 0,-8.346 7.09,-15.106 15.84,-15.106 h 56.094 c 8.744,0 15.84,6.759 15.84,15.106 V 68.67 c 0,-8.347 -7.096,-15.106 -15.84,-15.106 z"
     id="path40" /><path
     style="fill:#ffffff"
     inkscape:connector-curvature="0"
     d="m 51.953,53.585 h 56.1 c 10.082,0.143 15.84,8.769 15.84,17.112 v -2.789 c 0,-8.344 -7.092,-15.112 -15.84,-15.112 h -56.1 c -8.744,0 -15.84,6.769 -15.84,15.112 v 2.789 c 0,-8.343 6.124,-16.969 15.84,-17.112 z"
     id="path42" /></g></svg>