<?xml version="1.0" encoding="UTF-8" standalone="no"?>
<!-- Generator: Adobe Illustrator 13.0.0, SVG Export Plug-In . SVG Version: 6.00 Build 14948)  -->

<svg
   xmlns:dc="http://purl.org/dc/elements/1.1/"
   xmlns:cc="http://creativecommons.org/ns#"
   xmlns:rdf="http://www.w3.org/1999/02/22-rdf-syntax-ns#"
   xmlns:svg="http://www.w3.org/2000/svg"
   xmlns="http://www.w3.org/2000/svg"
   xmlns:sodipodi="http://sodipodi.sourceforge.net/DTD/sodipodi-0.dtd"
   xmlns:inkscape="http://www.inkscape.org/namespaces/inkscape"
   version="1.1"
   id="Layer_1"
   x="0px"
   y="0px"
   width="128px"
   height="128px"
   viewBox="0 0 128 128"
   enable-background="new 0 0 128 128"
   xml:space="preserve"
   sodipodi:docname="smartphone.svg"
   inkscape:version="0.92.4 (5da689c313, 2019-01-14)"><metadata
   id="metadata76"><rdf:RDF><cc:Work
       rdf:about=""><dc:format>image/svg+xml</dc:format><dc:type
         rdf:resource="http://purl.org/dc/dcmitype/StillImage" /></cc:Work></rdf:RDF></metadata><defs
   id="defs74">
	
	

		
	
			<linearGradient
   y2="124.0148"
   x2="54.979"
   y1="-52.168499"
   x1="54.979"
   gradientUnits="userSpaceOnUse"
   id="SVGID_1_">
				<stop
   id="stop2"
   style="stop-color:#5F5D5C"
   offset="0" />
				<stop
   id="stop4"
   style="stop-color:#181500"
   offset="1" />
			</linearGradient>
			
			<linearGradient
   y2="89.330597"
   x2="54.979"
   y1="11.1758"
   x1="54.979"
   gradientUnits="userSpaceOnUse"
   id="SVGID_2_"
   gradientTransform="matrix(1.1210294,0,0,1.1873745,-6.6540728,-2.0940976)">
				<stop
   id="stop9"
   style="stop-color:#80E21B"
   offset="0" />
				<stop
   id="stop11"
   style="stop-color:#80B400"
   offset="1" />
			</linearGradient>
			
			
			
			
			
		
				
					<radialGradient
   id="SVGID_3_"
   cx="2587.834"
   cy="753.91022"
   r="3.0253999"
   gradientTransform="matrix(2.5955,0,0,2.5953,-6661.8706,-1841.358)"
   gradientUnits="userSpaceOnUse">
					<stop
   offset="0"
   style="stop-color:#FAFAFA"
   id="stop16" />
					<stop
   offset="0.4142"
   style="stop-color:#E3E3E3"
   id="stop18" />
					<stop
   offset="1"
   style="stop-color:#C7C7C7"
   id="stop20" />
				</radialGradient>
				
				<radialGradient
   id="SVGID_4_"
   cx="36.441898"
   cy="109.8389"
   r="5.4951"
   gradientUnits="userSpaceOnUse">
					<stop
   offset="0"
   style="stop-color:#FAFAFA"
   id="stop25" />
					<stop
   offset="0.4142"
   style="stop-color:#E3E3E3"
   id="stop27" />
					<stop
   offset="1"
   style="stop-color:#C7C7C7"
   id="stop29" />
				</radialGradient>
				
				<radialGradient
   id="SVGID_5_"
   cx="73.260696"
   cy="109.8389"
   r="5.4951"
   gradientUnits="userSpaceOnUse">
					<stop
   offset="0"
   style="stop-color:#FAFAFA"
   id="stop34" />
					<stop
   offset="0.4142"
   style="stop-color:#E3E3E3"
   id="stop36" />
					<stop
   offset="1"
   style="stop-color:#C7C7C7"
   id="stop38" />
				</radialGradient>
				
			</defs><sodipodi:namedview
   pagecolor="#ffffff"
   bordercolor="#666666"
   borderopacity="1"
   objecttolerance="10"
   gridtolerance="10"
   guidetolerance="10"
   inkscape:pageopacity="0"
   inkscape:pageshadow="2"
   inkscape:window-width="640"
   inkscape:window-height="480"
   id="namedview72"
   showgrid="false"
   inkscape:zoom="1.84375"
   inkscape:cx="65.084746"
   inkscape:cy="61.830508"
   inkscape:window-x="0"
   inkscape:window-y="0"
   inkscape:window-maximized="0"
   inkscape:current-layer="Layer_1" />
<path
   inkscape:connector-curvature="0"
   style="fill:url(#SVGID_1_)"
   id="path7"
   d="m 90.461,113.57 c 0,7.543 -6.117,13.658 -13.658,13.658 H 33.156 c -7.544,0 -13.658,-6.115 -13.658,-13.658 V 16.314 c 0,-7.545 6.114,-13.658 13.658,-13.658 h 43.647 c 7.541,0 13.658,6.113 13.658,13.658 z" /><path
   inkscape:connector-curvature="0"
   style="fill:url(#SVGID_2_);stroke-width:1.15372515"
   id="path14"
   d="m 85.121237,96.849821 c 0,3.933769 -3.013326,7.124249 -6.726176,7.124249 H 31.562939 c -3.71397,0 -6.726176,-3.19166 -6.726176,-7.124249 V 18.300247 c 0,-3.933772 3.012206,-7.124247 6.726176,-7.124247 h 46.832122 c 3.71397,0 6.726176,3.191663 6.726176,7.124247 z" /><circle
   cx="54.852001"
   cy="115.26173"
   r="7.8540001"
   id="circle23"
   style="fill:url(#SVGID_3_)" /><path
   style="opacity:0.4;fill:#cccccc"
   inkscape:connector-curvature="0"
   id="path61"
   d="M 75.408,5.216 H 34.55 c -7.063,0 -12.786,5.723 -12.786,12.786 v 2.701 c 0,-7.063 5.724,-12.786 12.786,-12.786 h 40.858 c 7.061,0 12.785,5.723 12.785,12.786 v -2.701 c 0,-7.064 -5.724,-12.786 -12.785,-12.786 z" /><path
   style="opacity:0.4;fill:#ffffff;stroke-width:1.05878675"
   inkscape:connector-curvature="0"
   id="path63"
   d="m 64.391163,32.793 c 7.482871,0 14.530782,1.525 20.730075,4.207 V 17.176 c 0,-3.313 -3.013328,-6 -6.726176,-6 H 31.562939 c -3.71397,0 -6.726176,2.688 -6.726176,6 V 52.47 C 32.34766,40.768 47.239414,32.793 64.391163,32.793 Z" />

</svg>