<?xml version="1.0" encoding="UTF-8" standalone="no"?>
<!-- Generator: Adobe Illustrator 13.0.0, SVG Export Plug-In . SVG Version: 6.00 Build 14948)  -->

<svg
   xmlns:dc="http://purl.org/dc/elements/1.1/"
   xmlns:cc="http://creativecommons.org/ns#"
   xmlns:rdf="http://www.w3.org/1999/02/22-rdf-syntax-ns#"
   xmlns:svg="http://www.w3.org/2000/svg"
   xmlns="http://www.w3.org/2000/svg"
   xmlns:sodipodi="http://sodipodi.sourceforge.net/DTD/sodipodi-0.dtd"
   xmlns:inkscape="http://www.inkscape.org/namespaces/inkscape"
   version="1.1"
   id="Layer_1"
   x="0px"
   y="0px"
   width="128px"
   height="128px"
   viewBox="0 0 128 128"
   enable-background="new 0 0 128 128"
   xml:space="preserve"
   sodipodi:docname="tablet.svg"
   inkscape:version="0.92.4 (5da689c313, 2019-01-14)"><metadata
   id="metadata41"><rdf:RDF><cc:Work
       rdf:about=""><dc:format>image/svg+xml</dc:format><dc:type
         rdf:resource="http://purl.org/dc/dcmitype/StillImage" /></cc:Work></rdf:RDF></metadata><defs
   id="defs39">
	
	

		
	
			
			
			
			
		
				<linearGradient
   id="SVGID_1_"
   gradientUnits="userSpaceOnUse"
   x1="64.000504"
   y1="17.5767"
   x2="64.000504"
   y2="109.2281">
					<stop
   offset="0"
   style="stop-color:#D5D7D8"
   id="stop2" />
					<stop
   offset="1"
   style="stop-color:#5C5F61"
   id="stop4" />
				</linearGradient>
				
				
				<linearGradient
   id="SVGID_2_"
   gradientUnits="userSpaceOnUse"
   x1="64.000999"
   y1="100.2773"
   x2="64.000999"
   y2="103.9941"
   gradientTransform="translate(-10.305085,13.288136)">
					<stop
   offset="0"
   style="stop-color:#C4C4C4"
   id="stop11" />
					<stop
   offset="0.1821"
   style="stop-color:#DEDEDE"
   id="stop13" />
					<stop
   offset="0.4444"
   style="stop-color:#FFFFFF"
   id="stop15" />
					<stop
   offset="1"
   style="stop-color:#C4C4C4"
   id="stop17" />
				</linearGradient>
				
			<linearGradient
   id="SVGID_2_-3"
   gradientUnits="userSpaceOnUse"
   x1="64.000999"
   y1="100.2773"
   x2="64.000999"
   y2="103.9941"
   gradientTransform="translate(-1.8993051,15.559915)"><stop
     offset="0"
     style="stop-color:#C4C4C4"
     id="stop11-6" /><stop
     offset="0.1821"
     style="stop-color:#DEDEDE"
     id="stop13-7" /><stop
     offset="0.4444"
     style="stop-color:#FFFFFF"
     id="stop15-5" /><stop
     offset="1"
     style="stop-color:#C4C4C4"
     id="stop17-3" /></linearGradient><linearGradient
   id="SVGID_2_-6"
   gradientUnits="userSpaceOnUse"
   x1="64.000999"
   y1="100.2773"
   x2="64.000999"
   y2="103.9941"
   gradientTransform="matrix(1,0,0,0.70808779,-1.8993051,44.831997)"><stop
     offset="0"
     style="stop-color:#C4C4C4"
     id="stop11-2" /><stop
     offset="0.1821"
     style="stop-color:#DEDEDE"
     id="stop13-9" /><stop
     offset="0.4444"
     style="stop-color:#FFFFFF"
     id="stop15-1" /><stop
     offset="1"
     style="stop-color:#C4C4C4"
     id="stop17-2" /></linearGradient></defs><sodipodi:namedview
   pagecolor="#ffffff"
   bordercolor="#666666"
   borderopacity="1"
   objecttolerance="10"
   gridtolerance="10"
   guidetolerance="10"
   inkscape:pageopacity="0"
   inkscape:pageshadow="2"
   inkscape:window-width="640"
   inkscape:window-height="480"
   id="namedview37"
   showgrid="false"
   inkscape:zoom="1.84375"
   inkscape:cx="5.4510289"
   inkscape:cy="58.146795"
   inkscape:window-x="0"
   inkscape:window-y="0"
   inkscape:window-maximized="0"
   inkscape:current-layer="Layer_1" />
<path
   d="m 126.723,92.871 c 0,8.906 -7.219,16.127 -16.127,16.127 H 17.404 c -8.906,0 -16.125,-7.221 -16.125,-16.127 V 35.453 c 0,-8.906 7.219,-16.127 16.125,-16.127 h 93.191 c 8.908,0 16.127,7.223 16.127,16.127 v 57.418 z"
   id="path7"
   style="fill:url(#SVGID_1_);stroke:#666666"
   inkscape:connector-curvature="0" /><path
   d="m 119.863,88.917886 c 0,8.244278 -6.443,14.933214 -14.401,14.933214 H 22.223 c -7.955,0 -14.402,-6.688936 -14.402,-14.933214 V 40.376545 C 7.821,32.127938 14.268,25.439 22.223,25.439 h 83.239 c 7.958,0 14.401,6.688938 14.401,14.937545 z"
   id="path9"
   inkscape:connector-curvature="0"
   style="stroke-width:1.04036164" /><path
   style="fill:#999999"
   inkscape:connector-curvature="0"
   id="path24"
   d="m 8.496,27.815 c 2.672,-2.887 7.912,-5.529 12.508,-5.529 l 86.957,0.115 c 4.598,0 9.141,2.527 11.811,5.414 h 0.992 C 118.135,23.993 113.285,21.42 107.719,21.42 H 20.283 c -5.566,0 -10.416,2.572 -13.045,6.395 z" /><path
   style="fill:#4d4d4d"
   inkscape:connector-curvature="0"
   id="path26"
   d="m 119.506,100.881 c -2.672,2.889 -7.912,5.532 -12.506,5.532 l -86.959,-0.116 c -4.598,0 -9.139,-2.527 -11.811,-5.416 H 7.238 c 2.629,3.821 7.479,6.396 13.045,6.396 h 87.436 c 5.566,0 10.416,-2.574 13.045,-6.396 z" /><path
   style="fill:#333333"
   inkscape:connector-curvature="0"
   id="path28"
   d="M 105.301,25.439 H 22.2 c -7.942,0 -14.38,6.168 -14.38,13.776 v 33.269 c 11.324,3.083 24.03,4.815 37.456,4.815 31.763,0 59.489,-9.686 74.405,-24.085 V 39.216 c 0.001,-7.609 -6.436,-13.777 -14.38,-13.777 z" />

</svg>