<?xml version="1.0" encoding="UTF-8" standalone="no"?>
<!-- Generator: Adobe Illustrator 13.0.0, SVG Export Plug-In . SVG Version: 6.00 Build 14948)  -->

<svg
   xmlns:dc="http://purl.org/dc/elements/1.1/"
   xmlns:cc="http://creativecommons.org/ns#"
   xmlns:rdf="http://www.w3.org/1999/02/22-rdf-syntax-ns#"
   xmlns:svg="http://www.w3.org/2000/svg"
   xmlns="http://www.w3.org/2000/svg"
   xmlns:sodipodi="http://sodipodi.sourceforge.net/DTD/sodipodi-0.dtd"
   xmlns:inkscape="http://www.inkscape.org/namespaces/inkscape"
   version="1.1"
   id="Layer_1"
   x="0px"
   y="0px"
   width="128px"
   height="128px"
   viewBox="0 0 128 128"
   enable-background="new 0 0 128 128"
   xml:space="preserve"
   sodipodi:docname="audio-volume-high.svg"
   inkscape:version="0.92.4 (5da689c313, 2019-01-14)"><metadata
   id="metadata71"><rdf:RDF><cc:Work
       rdf:about=""><dc:format>image/svg+xml</dc:format><dc:type
         rdf:resource="http://purl.org/dc/dcmitype/StillImage" /><dc:title></dc:title></cc:Work></rdf:RDF></metadata><defs
   id="defs69">
	
	
<linearGradient
   gradientTransform="matrix(0.98661276,0,0,1.1403063,33.9662,121.02323)"
   y2="-76.421204"
   x2="36.444099"
   y1="-53.678699"
   x1="68.923798"
   gradientUnits="userSpaceOnUse"
   id="SVGID_8_-3"><stop
     id="stop57-6"
     style="stop-color:#80C11B"
     offset="0" /><stop
     id="stop59-7"
     style="stop-color:#80E21B"
     offset="1" /></linearGradient><linearGradient
   gradientTransform="matrix(0.82941289,0,0,0.8969792,32.660969,106.32838)"
   y2="-76.421204"
   x2="36.444099"
   y1="-53.678699"
   x1="68.923798"
   gradientUnits="userSpaceOnUse"
   id="SVGID_8_"><stop
     id="stop57"
     style="stop-color:#80C11B"
     offset="0" /><stop
     id="stop59"
     style="stop-color:#80E21B"
     offset="1" /></linearGradient><linearGradient
   gradientTransform="matrix(0.82941289,0,0,0.8969792,32.660969,106.32838)"
   y2="-73.444603"
   x2="32.227402"
   y1="-56.747601"
   x1="56.0732"
   gradientUnits="userSpaceOnUse"
   id="SVGID_7_"><stop
     id="stop50"
     style="stop-color:#80C11B"
     offset="0" /><stop
     id="stop52"
     style="stop-color:#80E21B"
     offset="1" /></linearGradient><linearGradient
   gradientTransform="matrix(0.82941289,0,0,0.8969792,32.660969,106.32838)"
   y2="-70.060898"
   x2="28.0818"
   y1="-60.195301"
   x1="42.171398"
   gradientUnits="userSpaceOnUse"
   id="SVGID_6_"><stop
     id="stop43"
     style="stop-color:#80C11B"
     offset="0" /><stop
     id="stop45"
     style="stop-color:#80E21B"
     offset="1" /></linearGradient></defs><sodipodi:namedview
   pagecolor="#ffffff"
   bordercolor="#666666"
   borderopacity="1"
   objecttolerance="10"
   gridtolerance="10"
   guidetolerance="10"
   inkscape:pageopacity="0"
   inkscape:pageshadow="2"
   inkscape:window-width="1366"
   inkscape:window-height="711"
   id="namedview67"
   showgrid="false"
   inkscape:zoom="3.6875"
   inkscape:cx="94.576691"
   inkscape:cy="59.877721"
   inkscape:window-x="0"
   inkscape:window-y="0"
   inkscape:window-maximized="1"
   inkscape:current-layer="Layer_1" />
<g
   id="g39">
		<path
   style="fill:none"
   inkscape:connector-curvature="0"
   id="path2"
   d="m 50.915,38.182 c 5.96,-3.168 22.511,5.984 31.554,23.002 9.041,17.011 7.148,35.448 1.186,38.621 C 77.694,102.975 63.969,92.852 54.927,75.837 45.888,58.819 44.954,41.354 50.915,38.182 Z" />
		
			<linearGradient
   gradientTransform="matrix(1,0,0,-1,289.2754,151.834)"
   y2="43.3867"
   x2="-242.686"
   y1="115.4482"
   x1="-242.686"
   gradientUnits="userSpaceOnUse"
   id="SVGID_1_">
			<stop
   id="stop4"
   style="stop-color:#ECEEF0"
   offset="0" />
			<stop
   id="stop6"
   style="stop-color:#E8E8E9"
   offset="0.2485" />
			<stop
   id="stop8"
   style="stop-color:#DADBDE"
   offset="0.8" />
			<stop
   id="stop10"
   style="stop-color:#C0C1C2"
   offset="0.9481" />
		</linearGradient>
		<path
   inkscape:connector-curvature="0"
   style="fill:url(#SVGID_1_);stroke:#000000;stroke-miterlimit:3.86369991"
   id="path13"
   d="M 82.988,60.37 C 82.078,58.627 81.095,56.964 80.06,55.38 75.935,49.089 70.586,43.349 63.977,39.671 60.155,37.542 55.564,35.495 51.131,36.792 c -1.467,0.428 -2.889,1.246 -4.046,2.33 -2.573,2.423 -3.981,6.016 -5.706,9.186 -1.51,2.772 -3.041,5.544 -4.57,8.304 l -10.377,18.81 -15.66,8.109 c -0.426,0.228 -0.83,0.463 -1.217,0.727 0,0 -0.055,0.027 -0.049,0.034 -5.498,3.69 -7.488,10.931 -4.398,16.84 0.041,0.07 0.08,0.132 0.117,0.202 0.037,0.064 0.061,0.135 0.098,0.205 3.094,5.914 10.169,8.408 16.334,5.994 0,0.006 0.053,-0.02 0.053,-0.02 0.436,-0.175 0.863,-0.367 1.287,-0.591 l 15.59,-8.245 21.357,2.196 c 3.143,0.323 6.289,0.644 9.431,0.981 3.58,0.394 7.332,1.281 10.789,0.545 1.547,-0.33 2.99,-0.994 4.221,-1.994 3.59,-2.905 4.533,-7.844 4.963,-12.194 0.754,-7.532 -0.912,-15.208 -3.723,-22.187 -0.709,-1.751 -1.512,-3.509 -2.426,-5.251 -0.033,-0.068 -0.072,-0.135 -0.105,-0.203 -0.037,-0.066 -0.069,-0.13 -0.106,-0.2 z"
   stroke-miterlimit="3.8637" />
		<path
   style="fill:#ffffff"
   inkscape:connector-curvature="0"
   id="path15"
   d="M 44.39,44.538 27.18,76.188 11.519,84.3 c -0.426,0.228 -0.83,0.464 -1.216,0.724 0,0 -0.053,0.026 -0.049,0.033 -4.031,2.705 -6.166,7.32 -5.808,11.918 l 0.94,-1.725 c 0.074,-4.175 2.153,-7.146 4.906,-8.867 -0.002,-0.006 1.971,-1.17 1.971,-1.17 0.389,-0.264 0.793,-0.496 1.215,-0.727 L 27.859,76.998 43.703,48.415 Z" />
		<path
   style="fill:#b3b3b3"
   inkscape:connector-curvature="0"
   id="path17"
   d="m 74.373,101.753 -35.808,-3.948 -15.603,8.221 c -0.426,0.219 -0.852,0.418 -1.29,0.586 0,0 -0.052,0.027 -0.055,0.018 -4.521,1.766 -9.529,0.883 -13.098,-2.035 l 1.951,0.211 c 3.471,2.324 7.098,2.314 10.08,1.037 0.006,0.01 2.086,-0.949 2.086,-0.949 0.438,-0.168 0.864,-0.363 1.29,-0.582 l 14.362,-7.527 32.511,3.322 z" />
		
			<linearGradient
   gradientTransform="matrix(1,0,0,-1,289.2754,151.834)"
   y2="58.248001"
   x2="-226.98289"
   y1="101.3691"
   x1="-226.98289"
   gradientUnits="userSpaceOnUse"
   id="SVGID_2_">
			<stop
   id="stop19"
   style="stop-color:#5F5D5C"
   offset="0" />
			<stop
   id="stop21"
   style="stop-color:#181500"
   offset="1" />
		</linearGradient>
		<path
   inkscape:connector-curvature="0"
   style="fill:url(#SVGID_2_)"
   id="path24"
   d="M 71.506,66.79 C 65.518,55.331 56.37,48.295 51.065,51.071 c -1.112,0.588 -2.602,2.076 -2.779,3.782 -0.631,6.083 2.068,13.116 6.405,20.743 4.358,7.666 8.909,13.409 13.872,17.62 1.074,0.913 3.072,-0.079 4.189,-0.661 5.299,-2.776 4.744,-14.31 -1.246,-25.765 z" />
		<path
   style="fill:#ffffff"
   inkscape:connector-curvature="0"
   id="path26"
   d="m 68.424,68.402 c 2.711,5.181 3.018,10.371 0.688,11.591 -2.332,1.223 -6.417,-1.99 -9.125,-7.173 -2.708,-5.184 -3.018,-10.373 -0.687,-11.593 2.331,-1.219 6.421,1.994 9.124,7.175 z" />
		<path
   style="opacity:0.49000005;fill:#ffffff"
   inkscape:connector-curvature="0"
   id="path28"
   d="m 43.961,50.654 c 0,0 0.579,3.259 1.16,5.118 0.586,1.865 0.932,3.727 0.932,3.727 L 29.875,76.842 Z"
   enable-background="new    " />
		<path
   style="fill:none;stroke:#000000;stroke-miterlimit:3.86369991"
   inkscape:connector-curvature="0"
   id="path30"
   d="m 50.915,38.182 c 5.96,-3.168 22.511,5.984 31.554,23.002 9.041,17.011 7.148,35.448 1.186,38.621 C 77.694,102.975 63.969,92.852 54.927,75.837 45.888,58.819 44.954,41.354 50.915,38.182 Z"
   stroke-miterlimit="3.8637" />
		
			<linearGradient
   gradientTransform="matrix(1,0,0,-1,289.2754,151.834)"
   y2="85.458"
   x2="-229.5757"
   y1="100.0703"
   x1="-229.5757"
   gradientUnits="userSpaceOnUse"
   id="SVGID_3_">
			<stop
   id="stop32"
   style="stop-color:#FFFFFF"
   offset="0" />
			<stop
   id="stop34"
   style="stop-color:#000000"
   offset="1" />
		</linearGradient>
		<path
   inkscape:connector-curvature="0"
   style="fill:url(#SVGID_3_)"
   id="path37"
   d="M 51.395,53.993 C 56.219,51.466 64.159,56.889 70.162,66.376 64.75,56.106 56.537,49.815 51.769,52.311 c -1.005,0.526 -2.353,1.874 -2.512,3.418 -0.009,0.095 -0.013,0.193 -0.019,0.291 0.589,-0.922 1.45,-1.654 2.157,-2.027 z" />
	</g>
<g
   id="g191"
   transform="matrix(0.88073643,-0.4737986,0.48558486,0.87418953,8.7357991,42.920776)"><path
     d="m 63.581813,37.263944 c -0.831071,-1.218994 -2.473309,-1.210922 -3.463628,-0.139928 -1.020178,1.102387 -0.926454,2.854187 -0.161735,4.176335 2.355532,4.080358 2.335626,9.306159 -0.06304,13.363196 -0.761401,1.286268 -0.773012,2.992322 0.224771,4.071388 0.982025,1.06023 2.609333,1.105079 3.434599,-0.101358 4.330365,-6.331776 4.338659,-15.02799 0.02903,-21.369633 z"
     id="path48"
     style="fill:url(#SVGID_6_);stroke-width:0.8625347"
     inkscape:connector-curvature="0" /><path
     d="m 71.184212,28.269037 c -0.963778,-1.262947 -2.722963,-1.251286 -3.793735,-0.09149 -1.062477,1.145442 -1.113072,2.976177 -0.179982,4.244506 6.638621,9.030786 6.656038,21.886292 0.05225,30.935018 -0.943043,1.294341 -0.952166,3.157367 0.126071,4.321646 1.074089,1.159794 2.834933,1.165176 3.800369,-0.09956 8.694736,-11.386254 8.693076,-27.925653 -0.005,-39.310113 z"
     id="path55"
     style="fill:url(#SVGID_7_);stroke-width:0.8625347"
     inkscape:connector-curvature="0" /><path
     d="m 78.228411,20.172006 c -1.0011,-1.24411 -2.76526,-1.235141 -3.84432,-0.06997 -1.089853,1.180425 -1.055847,3.074845 -0.0564,4.346762 10.58662,13.507609 10.59906,33.388256 0.03732,46.907527 -1.006077,1.289856 -1.085701,3.205803 0.02073,4.398786 1.07741,1.163382 2.84323,1.170558 3.84433,-0.07176 12.77794,-15.89178 12.77794,-39.621365 -0.002,-55.511351 z"
     id="path62"
     style="fill:url(#SVGID_8_);stroke-width:0.8625347"
     inkscape:connector-curvature="0" /><path
     d="m 88.170111,11.494867 c -1.19084,-1.5816049 -3.28936,-1.5702019 -4.57295,-0.08894 -1.29641,1.500643 -1.25596,3.90897 -0.0671,5.525925 12.59313,17.171873 12.60793,42.445622 0.0444,59.63232 -1.19677,1.639759 -1.29148,4.075453 0.0246,5.592061 1.28162,1.478977 3.38211,1.488099 4.57295,-0.09123 15.199759,-20.202804 15.199759,-50.369609 -0.002,-70.570136 z"
     id="path62-5"
     style="fill:url(#SVGID_8_-3);stroke-width:1.06067932"
     inkscape:connector-curvature="0" /></g></svg>