<?xml version="1.0" encoding="UTF-8" standalone="no"?>
<!-- Generator: Adobe Illustrator 13.0.0, SVG Export Plug-In . SVG Version: 6.00 Build 14948)  -->

<svg
   xmlns:dc="http://purl.org/dc/elements/1.1/"
   xmlns:cc="http://creativecommons.org/ns#"
   xmlns:rdf="http://www.w3.org/1999/02/22-rdf-syntax-ns#"
   xmlns:svg="http://www.w3.org/2000/svg"
   xmlns="http://www.w3.org/2000/svg"
   xmlns:sodipodi="http://sodipodi.sourceforge.net/DTD/sodipodi-0.dtd"
   xmlns:inkscape="http://www.inkscape.org/namespaces/inkscape"
   version="1.1"
   id="Layer_1"
   x="0px"
   y="0px"
   width="128px"
   height="128px"
   viewBox="0 0 128 128"
   enable-background="new 0 0 128 128"
   xml:space="preserve"
   sodipodi:docname="org.gnome.tweaks.svg"
   inkscape:version="0.92.5 (2060ec1f9f, 2020-04-08)"><metadata
   id="metadata66"><rdf:RDF><cc:Work
       rdf:about=""><dc:format>image/svg+xml</dc:format><dc:type
         rdf:resource="http://purl.org/dc/dcmitype/StillImage" /></cc:Work></rdf:RDF></metadata><defs
   id="defs64"><linearGradient
   id="SVGID_1_-3"
   gradientUnits="userSpaceOnUse"
   x1="-144.8091"
   y1="-701.73633"
   x2="-144.8091"
   y2="-802.88977"
   gradientTransform="matrix(1,0,0,-1,209.6631,-688.7129)"><stop
     offset="0"
     style="stop-color:#D5D7D8"
     id="stop2-6" /><stop
     offset="1"
     style="stop-color:#5C5F61"
     id="stop4-7" /></linearGradient><linearGradient
   id="SVGID_2_-5"
   gradientUnits="userSpaceOnUse"
   x1="-53.321301"
   y1="3.7753999"
   x2="-53.321301"
   y2="98.147301"
   gradientTransform="matrix(-0.7071,0.7071,0.7071,0.7071,-38.4938,42.6496)"><stop
     offset="0"
     style="stop-color:#BFBFBF"
     id="stop19" /><stop
     offset="0.2503"
     style="stop-color:#CFCFCF"
     id="stop21" /><stop
     offset="0.5636"
     style="stop-color:#DEDEDF"
     id="stop23-3" /><stop
     offset="0.9212"
     style="stop-color:#DDDEDF"
     id="stop25-5" /></linearGradient><linearGradient
   id="SVGID_3_-6"
   gradientUnits="userSpaceOnUse"
   x1="-64.0728"
   y1="120.4688"
   x2="-42.708"
   y2="120.4688"
   gradientTransform="matrix(-0.7071,0.7071,0.7071,0.7071,-38.4938,42.6496)"><stop
     offset="0"
     style="stop-color:#00deec;stop-opacity:1"
     id="stop30" /><stop
     offset="1"
     style="stop-color:#00c4b8;stop-opacity:1"
     id="stop32-2" /></linearGradient>
	<linearGradient
   y2="125.1616"
   x2="45.8657"
   y1="2.0205"
   x1="45.8657"
   gradientUnits="userSpaceOnUse"
   id="SVGID_1_">
		<stop
   id="stop2"
   style="stop-color:#5F5D5C"
   offset="0" />
		<stop
   id="stop4"
   style="stop-color:#181500"
   offset="1" />
	</linearGradient>
	
	<linearGradient
   y2="4.6777"
   x2="45.8662"
   y1="22.8965"
   x1="45.8662"
   gradientUnits="userSpaceOnUse"
   id="SVGID_2_">
		<stop
   id="stop9"
   style="stop-color:#6D6F71"
   offset="0" />
		<stop
   id="stop11"
   style="stop-color:#939598"
   offset="1" />
	</linearGradient>
	
	<linearGradient
   y2="29.2319"
   x2="77.4297"
   y1="98.0439"
   x1="77.4297"
   gradientUnits="userSpaceOnUse"
   id="SVGID_3_">
		<stop
   id="stop16"
   style="stop-color:#FF1F00"
   offset="0" />
		<stop
   id="stop18"
   style="stop-color:#FF9D00"
   offset="1" />
	</linearGradient>
	
	
<linearGradient
   id="SVGID_1_-3-1"
   gradientUnits="userSpaceOnUse"
   x1="-144.8091"
   y1="-701.73633"
   x2="-144.8091"
   y2="-802.88977"
   gradientTransform="matrix(1,0,0,-1,209.6631,-688.7129)"><stop
     offset="0"
     style="stop-color:#D5D7D8"
     id="stop2-6-2" /><stop
     offset="1"
     style="stop-color:#5C5F61"
     id="stop4-7-7" /></linearGradient><linearGradient
   id="SVGID_2_-5-0"
   gradientUnits="userSpaceOnUse"
   x1="-53.321301"
   y1="3.7753999"
   x2="-53.321301"
   y2="98.147301"
   gradientTransform="matrix(-0.7071,0.7071,0.7071,0.7071,-38.4938,42.6496)"><stop
     offset="0"
     style="stop-color:#BFBFBF"
     id="stop19-9" /><stop
     offset="0.2503"
     style="stop-color:#CFCFCF"
     id="stop21-3" /><stop
     offset="0.5636"
     style="stop-color:#DEDEDF"
     id="stop23-3-6" /><stop
     offset="0.9212"
     style="stop-color:#DDDEDF"
     id="stop25-5-0" /></linearGradient><linearGradient
   id="SVGID_3_-6-6"
   gradientUnits="userSpaceOnUse"
   x1="-64.0728"
   y1="120.4688"
   x2="-42.708"
   y2="120.4688"
   gradientTransform="matrix(-0.7071,0.7071,0.7071,0.7071,-38.4938,42.6496)"><stop
     offset="0"
     style="stop-color:#EC008C"
     id="stop30-2" /><stop
     offset="1"
     style="stop-color:#C4008C"
     id="stop32-2-6" /></linearGradient><linearGradient
   gradientTransform="translate(0.569996,0.36199948)"
   y2="29.231899"
   x2="77.429703"
   y1="98.0439"
   x1="77.429703"
   gradientUnits="userSpaceOnUse"
   id="SVGID_3_-1"><stop
     id="stop16-9"
     style="stop-color:#FF1F00"
     offset="0" /><stop
     id="stop18-4"
     style="stop-color:#FF9D00"
     offset="1" /></linearGradient></defs><sodipodi:namedview
   pagecolor="#ffffff"
   bordercolor="#666666"
   borderopacity="1"
   objecttolerance="10"
   gridtolerance="10"
   guidetolerance="10"
   inkscape:pageopacity="0"
   inkscape:pageshadow="2"
   inkscape:window-width="1297"
   inkscape:window-height="700"
   id="namedview62"
   showgrid="false"
   inkscape:zoom="3.6875"
   inkscape:cx="22.389417"
   inkscape:cy="62.715828"
   inkscape:window-x="69"
   inkscape:window-y="28"
   inkscape:window-maximized="1"
   inkscape:current-layer="Layer_1" />
<circle
   style="fill:url(#SVGID_3_-1);stroke:#b3b3b3;stroke-width:0.25"
   id="circle21"
   r="34.405998"
   cy="64"
   cx="78" /><path
   inkscape:connector-curvature="0"
   style="fill:url(#SVGID_1_)"
   id="path7"
   d="m 39.327,63.638 c 0,-20.729 16.498,-37.592 37.078,-38.205 V 18.359 C 76.405,9.334 69.096,2.021 60.078,2.021 H 31.654 c -9.018,0 -16.326,7.312 -16.326,16.338 v 90.465 c 0,9.022 7.309,16.338 16.326,16.338 h 28.424 c 9.018,0 16.327,-7.315 16.327,-16.338 v -6.979 C 55.825,101.23 39.327,84.366 39.327,63.638 Z" /><path
   inkscape:connector-curvature="0"
   style="fill:url(#SVGID_2_)"
   id="path14"
   d="M 58.687,4.678 H 33.044 c -8.133,0 -14.729,6.597 -14.729,14.739 v 3.479 c 0,-8.143 6.596,-14.739 14.729,-14.739 h 25.643 c 8.135,0 14.729,6.597 14.729,14.739 v -3.479 c 0,-8.143 -6.594,-14.739 -14.729,-14.739 z" />
<g
   transform="matrix(0.41972461,0,0,0.42234469,50.955641,37.172348)"
   id="g45"><g
     id="g13"><g
       id="g9"><linearGradient
         id="linearGradient885"
         gradientUnits="userSpaceOnUse"
         x1="-144.8091"
         y1="-701.73633"
         x2="-144.8091"
         y2="-802.88977"
         gradientTransform="matrix(1,0,0,-1,209.6631,-688.7129)"><stop
           offset="0"
           style="stop-color:#D5D7D8"
           id="stop881" /><stop
           offset="1"
           style="stop-color:#5C5F61"
           id="stop883" /></linearGradient><path
         style="fill:url(#SVGID_1_-3)"
         inkscape:connector-curvature="0"
         d="m 114.601,26.179 -10.392,14.756 c -1.349,1.912 -3.546,3.053 -5.889,3.053 -1.485,0 -2.915,-0.459 -4.13,-1.314 L 84.965,36.181 C 81.726,33.903 80.949,29.404 83.23,26.16 L 93.624,11.405 c -0.782,-0.074 -1.562,-0.108 -2.344,-0.108 -8.372,0 -16.24,4.082 -21.054,10.914 -5.144,7.301 -6.134,16.586 -2.647,24.849 l 0.482,1.134 -2,2.15 -49.945,43.924 c -11.313,9.518 8.5,29.33 18.153,18.152 l 43.8,-49.646 2.156,-2.491 1.043,0.44 c 3.18,1.345 6.544,2.023 10.004,2.023 v 0 c 8.362,0 16.227,-4.083 21.039,-10.907 5.306,-7.527 6.126,-17.377 2.29,-25.66 z"
         id="path7-9" /></g><path
       style="opacity:0.5;fill:#ffffff"
       inkscape:connector-curvature="0"
       d="m 91.036,14.986 1.346,-1.93 C 76.876,11.827 61.569,32.855 70.388,46.462 l 1.13,-1.419 C 65.187,32.341 76.866,15.561 91.036,14.986 Z"
       id="path11" /></g><path
     style="opacity:0.5;fill:#ffffff"
     inkscape:connector-curvature="0"
     d="m 30.663,31.039 c -0.317,0.35 -1.383,-0.101 -2.372,-1.012 l -8.569,-7.859 c -0.99,-0.908 -1.531,-1.927 -1.211,-2.277 v 0 c 0.322,-0.348 1.383,0.104 2.371,1.009 l 8.572,7.864 c 0.99,0.907 1.53,1.927 1.209,2.275 z"
     id="path15" /><path
     style="opacity:0.5;fill:#ffffff"
     inkscape:connector-curvature="0"
     d="m 17.481,98.905 c -0.285,0.247 -0.777,0.143 -1.107,-0.233 v 0 C 16.044,98.296 16.008,97.788 16.292,97.54 L 69.798,50.929 c 0.283,-0.248 0.779,-0.14 1.106,0.236 v 0 c 0.33,0.377 0.366,0.881 0.083,1.129 z"
     id="path17" /><g
     id="g43"><linearGradient
       id="linearGradient901"
       gradientUnits="userSpaceOnUse"
       x1="-53.321301"
       y1="3.7753999"
       x2="-53.321301"
       y2="98.147301"
       gradientTransform="matrix(-0.7071,0.7071,0.7071,0.7071,-38.4938,42.6496)"><stop
         offset="0"
         style="stop-color:#BFBFBF"
         id="stop893" /><stop
         offset="0.2503"
         style="stop-color:#CFCFCF"
         id="stop895" /><stop
         offset="0.5636"
         style="stop-color:#DEDEDF"
         id="stop897" /><stop
         offset="0.9212"
         style="stop-color:#DDDEDF"
         id="stop899" /></linearGradient><path
       style="fill:url(#SVGID_2_-5)"
       inkscape:connector-curvature="0"
       d="m 30.796,28.259 c -1.574,-1.574 -8.225,-7.333 -11.318,-10.203 -0.594,-0.551 -1.517,-0.6 -2.09,-0.026 -0.949,0.951 -1.749,1.749 -2.549,2.549 -0.798,0.798 -1.6,1.597 -2.549,2.546 -0.571,0.574 -0.521,1.498 0.031,2.091 2.871,3.094 8.63,9.747 10.201,11.317 1.801,1.801 4.959,2.048 7.178,3.203 2.219,1.148 3.387,3.307 5.031,4.951 1.643,1.643 3.271,3.271 4.912,4.912 1.643,1.643 3.299,3.303 4.996,4.996 1.693,1.696 3.432,3.432 5.234,5.234 1.805,1.805 3.678,3.678 5.642,5.641 1.964,1.967 4.024,4.026 6.204,6.206 1.69,-1.688 2.537,-2.538 4.221,-4.219 -2.18,-2.182 -4.242,-4.242 -6.206,-6.205 -1.966,-1.967 -3.837,-3.838 -5.64,-5.643 -1.803,-1.803 -3.541,-3.541 -5.236,-5.237 -1.697,-1.693 -3.352,-3.351 -4.996,-4.993 -1.639,-1.641 -3.27,-3.272 -4.912,-4.914 -1.642,-1.639 -3.801,-2.811 -4.953,-5.031 -1.151,-2.216 -1.4,-5.374 -3.201,-7.175 z"
       id="path28" /><linearGradient
       id="linearGradient908"
       gradientUnits="userSpaceOnUse"
       x1="-64.0728"
       y1="120.4688"
       x2="-42.708"
       y2="120.4688"
       gradientTransform="matrix(-0.7071,0.7071,0.7071,0.7071,-38.4938,42.6496)"><stop
         offset="0"
         style="stop-color:#EC008C"
         id="stop904" /><stop
         offset="1"
         style="stop-color:#C4008C"
         id="stop906" /></linearGradient><path
       style="fill:url(#SVGID_3_-6)"
       inkscape:connector-curvature="0"
       d="m 63.665,81.876 c -0.115,-1.43 -1.25,-2.564 -2.679,-2.679 -0.748,-0.058 -1.491,-0.231 -2.194,-0.512 -1.543,-0.618 -1.481,-2.673 -0.305,-3.851 L 69.198,64.126 c 1.176,-1.175 3.23,-1.242 3.85,0.301 0.283,0.707 0.454,1.449 0.512,2.197 0.113,1.43 1.249,2.564 2.678,2.679 1.712,0.135 3.385,0.853 4.699,2.166 l 26.322,26.322 c 2.948,2.943 2.945,7.726 -0.005,10.675 l -4.424,4.428 c -2.951,2.949 -7.729,2.951 -10.679,-0.002 L 65.829,86.575 C 64.517,85.261 63.8,83.59 63.665,81.876 Z"
       id="path35" /><g
       id="g39"><path
         style="opacity:0.5;fill:#ffffff"
         inkscape:connector-curvature="0"
         d="m 105.947,103.41 c 0.579,-1.579 0.247,-3.419 -1.017,-4.679 L 79.71,73.511 c -1.265,-1.263 -3.102,-1.598 -4.678,-1.018 l -1.164,-1.164 c 2.247,-1.141 5.062,-0.798 6.941,1.083 l 25.221,25.221 c 1.878,1.876 2.219,4.691 1.08,6.94 z"
         id="path37" /></g><path
       style="opacity:0.5;fill:#ffffff"
       inkscape:connector-curvature="0"
       d="m 70.936,64.931 c 0.335,0.335 -0.158,1.377 -1.109,2.324 l -8.208,8.209 c -0.949,0.949 -1.988,1.445 -2.325,1.107 v 0 c -0.335,-0.336 0.161,-1.375 1.106,-2.322 l 8.211,-8.212 c 0.948,-0.948 1.99,-1.441 2.325,-1.106 z"
       id="path41" /></g></g></svg>