<?xml version="1.0" encoding="UTF-8" standalone="no"?>
<svg
   xmlns:dc="http://purl.org/dc/elements/1.1/"
   xmlns:cc="http://creativecommons.org/ns#"
   xmlns:rdf="http://www.w3.org/1999/02/22-rdf-syntax-ns#"
   xmlns:svg="http://www.w3.org/2000/svg"
   xmlns="http://www.w3.org/2000/svg"
   xmlns:sodipodi="http://sodipodi.sourceforge.net/DTD/sodipodi-0.dtd"
   xmlns:inkscape="http://www.inkscape.org/namespaces/inkscape"
   width="122"
   height="126"
   viewBox="0.241 -0.166 122 126"
   overflow="visible"
   enable-background="new 0.241 -0.166 122 126"
   xml:space="preserve"
   version="1.1"
   id="svg109"
   sodipodi:docname="org.gnome.eog.svg"
   inkscape:version="0.92.5 (2060ec1f9f, 2020-04-08)"><metadata
   id="metadata115"><rdf:RDF><cc:Work
       rdf:about=""><dc:format>image/svg+xml</dc:format><dc:type
         rdf:resource="http://purl.org/dc/dcmitype/StillImage" /></cc:Work></rdf:RDF></metadata><defs
   id="defs113"><linearGradient
     y2="105.9375"
     x2="63.999001"
     y1="58.5396"
     x1="63.999001"
     gradientUnits="userSpaceOnUse"
     id="SVGID_4_"><stop
       id="stop35"
       style="stop-color:#32AECE"
       offset="0" /><stop
       id="stop37"
       style="stop-color:#094E86"
       offset="1" /></linearGradient><linearGradient
     y2="94.428703"
     x2="55.168499"
     y1="98.703102"
     x1="61.2729"
     gradientUnits="userSpaceOnUse"
     id="SVGID_5_"><stop
       id="stop42"
       style="stop-color:#DEDEDE"
       offset="0" /><stop
       id="stop44"
       style="stop-color:#FEFEFE"
       offset="1" /></linearGradient><linearGradient
     y2="75.610001"
     x2="56.120499"
     y1="90.233398"
     x1="77.004898"
     gradientUnits="userSpaceOnUse"
     id="SVGID_6_"><stop
       id="stop49"
       style="stop-color:#DEDEDE"
       offset="0" /><stop
       id="stop51"
       style="stop-color:#FEFEFE"
       offset="1" /></linearGradient><linearGradient
     y2="80.281799"
     x2="65.262299"
     y1="90.798798"
     x1="80.282204"
     gradientUnits="userSpaceOnUse"
     id="SVGID_7_"><stop
       id="stop56"
       style="stop-color:#DEDEDE"
       offset="0" /><stop
       id="stop58"
       style="stop-color:#FEFEFE"
       offset="1" /></linearGradient><linearGradient
     y2="105.9375"
     x2="63.999001"
     y1="58.5396"
     x1="63.999001"
     gradientUnits="userSpaceOnUse"
     id="SVGID_4_-3"
     gradientTransform="matrix(2.195436,0,0,2.4574615,-79.264706,-136.25883)"><stop
       id="stop35-6"
       style="stop-color:#ebebeb;stop-opacity:1"
       offset="0" /><stop
       id="stop37-7"
       style="stop-color:#dddddd;stop-opacity:1"
       offset="1" /></linearGradient><linearGradient
     y2="94.428703"
     x2="55.168499"
     y1="98.703102"
     x1="61.2729"
     gradientUnits="userSpaceOnUse"
     id="SVGID_5_-5"><stop
       id="stop42-3"
       style="stop-color:#DEDEDE"
       offset="0" /><stop
       id="stop44-5"
       style="stop-color:#FEFEFE"
       offset="1" /></linearGradient><linearGradient
     y2="75.610001"
     x2="56.120499"
     y1="90.233398"
     x1="77.004898"
     gradientUnits="userSpaceOnUse"
     id="SVGID_6_-6"><stop
       id="stop49-2"
       style="stop-color:#DEDEDE"
       offset="0" /><stop
       id="stop51-9"
       style="stop-color:#FEFEFE"
       offset="1" /></linearGradient><linearGradient
     y2="80.281799"
     x2="65.262299"
     y1="90.798798"
     x1="80.282204"
     gradientUnits="userSpaceOnUse"
     id="SVGID_7_-1"><stop
       id="stop56-2"
       style="stop-color:#DEDEDE"
       offset="0" /><stop
       id="stop58-7"
       style="stop-color:#FEFEFE"
       offset="1" /></linearGradient><linearGradient
     id="linearGradient1096"
     gradientUnits="userSpaceOnUse"
     x1="63.999001"
     y1="58.5396"
     x2="63.999001"
     y2="105.9375"><stop
       offset="0"
       style="stop-color:#32AECE"
       id="stop1102-9" /><stop
       offset="1"
       style="stop-color:#094E86"
       id="stop1104-3" /></linearGradient></defs><sodipodi:namedview
   pagecolor="#ffffff"
   bordercolor="#666666"
   borderopacity="1"
   objecttolerance="10"
   gridtolerance="10"
   guidetolerance="10"
   inkscape:pageopacity="0"
   inkscape:pageshadow="2"
   inkscape:window-width="1297"
   inkscape:window-height="700"
   id="namedview111"
   showgrid="false"
   inkscape:zoom="1.8730159"
   inkscape:cx="7.6101695"
   inkscape:cy="63"
   inkscape:window-x="69"
   inkscape:window-y="28"
   inkscape:window-maximized="1"
   inkscape:current-layer="svg109" />
	
<path
   d="m 120.05234,102.96522 c 0,11.66311 -8.45243,21.11451 -18.86318,21.11451 H 21.297239 c -10.410753,0 -18.8675795,-9.4514 -18.8675795,-21.11451 V 28.717934 c 0,-11.663112 8.4568265,-21.1169635 18.8675795,-21.1169635 h 79.891921 c 10.41075,0 18.86318,9.4538525 18.86318,21.1169635 z"
   id="path40-6"
   style="fill:url(#SVGID_4_-3);stroke:#050505;stroke-width:0.30805638;stroke-linecap:round;stroke-linejoin:round;stroke-miterlimit:4;stroke-dasharray:none;stroke-opacity:1"
   inkscape:connector-curvature="0" /><g
   transform="matrix(1.8756961,0,0,1.8756961,-58.801669,-94.624758)"
   id="g77"><linearGradient
     y2="105.9375"
     x2="63.999001"
     y1="58.5396"
     x1="63.999001"
     gradientUnits="userSpaceOnUse"
     id="linearGradient1106"><stop
       id="stop1102"
       style="stop-color:#32AECE"
       offset="0" /><stop
       id="stop1104"
       style="stop-color:#094E86"
       offset="1" /></linearGradient><path
     inkscape:connector-curvature="0"
     style="fill:url(#SVGID_4_)"
     id="path40"
     d="m 90.787,97.346 c 0,4.746 -3.85,8.592 -8.592,8.592 h -36.39 c -4.742,0 -8.594,-3.846 -8.594,-8.592 V 67.133 c 0,-4.746 3.852,-8.593 8.594,-8.593 h 36.39 c 4.742,0 8.592,3.847 8.592,8.593 z" /><g
     id="g63"><linearGradient
       y2="94.428703"
       x2="55.168499"
       y1="98.703102"
       x1="61.2729"
       gradientUnits="userSpaceOnUse"
       id="linearGradient1113"><stop
         id="stop1109"
         style="stop-color:#DEDEDE"
         offset="0" /><stop
         id="stop1111"
         style="stop-color:#FEFEFE"
         offset="1" /></linearGradient><polygon
       style="opacity:0.8;fill:url(#SVGID_5_)"
       id="polygon47"
       points="63.659,95.295 56.178,92.986 56.167,100.205 " /><linearGradient
       y2="75.610001"
       x2="56.120499"
       y1="90.233398"
       x1="77.004898"
       gradientUnits="userSpaceOnUse"
       id="linearGradient1120"><stop
         id="stop1116"
         style="stop-color:#DEDEDE"
         offset="0" /><stop
         id="stop1118"
         style="stop-color:#FEFEFE"
         offset="1" /></linearGradient><polygon
       style="fill:url(#SVGID_6_)"
       id="polygon54"
       points="46.659,89.123 86.467,76.721 55.954,92.352 " /><linearGradient
       y2="80.281799"
       x2="65.262299"
       y1="90.798798"
       x1="80.282204"
       gradientUnits="userSpaceOnUse"
       id="linearGradient1127"><stop
         id="stop1123"
         style="stop-color:#DEDEDE"
         offset="0" /><stop
         id="stop1125"
         style="stop-color:#FEFEFE"
         offset="1" /></linearGradient><polygon
       style="fill:url(#SVGID_7_)"
       id="polygon61"
       points="74.891,98.498 86.744,76.992 56.649,92.582 " /></g><g
     id="g69"><path
       style="fill:#ffffff"
       inkscape:connector-curvature="0"
       id="path65"
       d="m 62.713,73.148 c 0,0 0.27,-1.24 -0.904,-1.715 -1.174,-0.477 -2.139,0.764 -2.139,0.764 0,0 1.385,-2.824 -1.496,-3.516 -2.885,-0.691 -3.635,2.365 -3.635,2.365 0,0 0.117,-4.211 -2.941,-3.52 -2.258,0.514 -4.107,2.035 -4.219,3.582 -0.25,-0.264 -0.645,-0.266 -1.104,-0.428 -1.717,-0.602 -5.652,2.617 -1.922,5.033 2.193,1.426 3.422,-0.42 3.422,-0.42 1.266,1.305 2.613,1.576 4.498,1.189 1.883,-0.385 2.725,-1.461 2.725,-1.461 2.191,2.156 4.844,-0.381 4.844,-0.381 0.887,1.072 2.615,-0.232 2.615,-0.232 0.885,0.998 2.333,0.816 2.355,-0.49 0.024,-1.307 -2.099,-0.77 -2.099,-0.77 z" /><path
       style="fill:#e6e6e6"
       inkscape:connector-curvature="0"
       id="path67"
       d="m 64.621,74.553 c 0,0 -1.503,0.197 -1.929,-0.852 0,0 -1.869,1.377 -2.328,-0.068 -0.033,0.133 -0.033,0.133 -0.033,0.133 0,0 -4.453,1.734 -5.275,-0.359 0,0 -4.254,3.93 -6.545,0.395 0,0 -3.512,2.945 -5.541,0.426 -0.01,-0.01 0,0.08 0.078,0 0.055,0.52 0.57,1.26 1.494,1.682 2.385,1.076 3.234,-0.613 3.234,-0.613 1.266,1.305 2.613,1.576 4.498,1.189 1.883,-0.385 2.725,-1.461 2.725,-1.461 2.191,2.156 4.844,-0.381 4.844,-0.381 0.887,1.072 2.615,-0.232 2.615,-0.232 0.705,0.795 1.77,0.84 2.185,0.164 z" /></g><g
     id="g75"><path
       style="fill:#094763"
       inkscape:connector-curvature="0"
       id="path71"
       d="M 82.203,103.242 H 45.797 c -4.748,0 -8.596,-3.848 -8.596,-8.596 v 2.684 c 0,4.748 3.848,8.598 8.596,8.598 h 36.406 c 4.748,0 8.594,-3.846 8.594,-8.598 v -2.684 c 0,4.749 -3.846,8.596 -8.594,8.596 z" /><path
       style="opacity:0.7;fill:#ffffff"
       inkscape:connector-curvature="0"
       id="path73"
       d="M 80.547,60.45 H 47.368 c -4.328,0 -7.836,3.508 -7.836,7.835 v 1.268 c 0,-4.331 3.508,-7.839 7.836,-7.839 h 33.179 c 4.326,0 7.836,3.509 7.836,7.839 v -1.268 c 0,-4.327 -3.51,-7.835 -7.836,-7.835 z" /></g></g><g
   id="g1254"
   transform="translate(5.127117)"><circle
     r="5.8728814"
     cy="113.82129"
     cx="26.113882"
     id="path1206"
     style="fill:#2ca0c4;fill-opacity:1;stroke:none;stroke-width:0.30000001;stroke-linecap:round;stroke-linejoin:round;stroke-miterlimit:4;stroke-dasharray:none;stroke-opacity:1" /><circle
     r="5.8728814"
     cy="113.82129"
     cx="46.11388"
     id="path1206-2"
     style="fill:#2ca0c4;fill-opacity:1;stroke:none;stroke-width:0.30000001;stroke-linecap:round;stroke-linejoin:round;stroke-miterlimit:4;stroke-dasharray:none;stroke-opacity:1" /><circle
     r="5.8728814"
     cy="113.82129"
     cx="86.113884"
     id="path1206-8-7"
     style="fill:#2ca0c4;fill-opacity:1;stroke:none;stroke-width:0.30000001;stroke-linecap:round;stroke-linejoin:round;stroke-miterlimit:4;stroke-dasharray:none;stroke-opacity:1" /><circle
     r="5.8728814"
     cy="113.82129"
     cx="66.113884"
     id="path1206-8"
     style="fill:#2ca0c4;fill-opacity:1;stroke:none;stroke-width:0.30000001;stroke-linecap:round;stroke-linejoin:round;stroke-miterlimit:4;stroke-dasharray:none;stroke-opacity:1" /></g></svg>