<?xml version="1.0" encoding="UTF-8" standalone="no"?>
<svg
   xmlns:dc="http://purl.org/dc/elements/1.1/"
   xmlns:cc="http://creativecommons.org/ns#"
   xmlns:rdf="http://www.w3.org/1999/02/22-rdf-syntax-ns#"
   xmlns:svg="http://www.w3.org/2000/svg"
   xmlns="http://www.w3.org/2000/svg"
   xmlns:sodipodi="http://sodipodi.sourceforge.net/DTD/sodipodi-0.dtd"
   xmlns:inkscape="http://www.inkscape.org/namespaces/inkscape"
   version="1.1"
   id="Layer_1"
   x="0px"
   y="0px"
   width="128px"
   height="128px"
   viewBox="0 0 128 128"
   enable-background="new 0 0 128 128"
   xml:space="preserve"
   sodipodi:docname="preferences-desktop-default-applications.svg"
   inkscape:version="1.0.2 (e86c870879, 2021-01-15)"><metadata
   id="metadata40"><rdf:RDF><cc:Work
       rdf:about=""><dc:format>image/svg+xml</dc:format><dc:type
         rdf:resource="http://purl.org/dc/dcmitype/StillImage" /></cc:Work></rdf:RDF></metadata><defs
   id="defs38">
	<linearGradient
   id="SVGID_1_"
   gradientUnits="userSpaceOnUse"
   x1="64.0093"
   y1="8.1006"
   x2="64.0093"
   y2="119.8999">
		<stop
   offset="0"
   style="stop-color:#D5D7D8"
   id="stop2" />
		<stop
   offset="1"
   style="stop-color:#5C5F61"
   id="stop4" />
	</linearGradient>
	
	
	
	
	
	
</defs><sodipodi:namedview
   pagecolor="#ffffff"
   bordercolor="#666666"
   borderopacity="1"
   objecttolerance="10"
   gridtolerance="10"
   guidetolerance="10"
   inkscape:pageopacity="0"
   inkscape:pageshadow="2"
   inkscape:window-width="1920"
   inkscape:window-height="1022"
   id="namedview36"
   showgrid="false"
   inkscape:zoom="1.9776893"
   inkscape:cx="71.130098"
   inkscape:cy="68.908617"
   inkscape:window-x="0"
   inkscape:window-y="0"
   inkscape:window-maximized="1"
   inkscape:current-layer="Layer_1" />
<path
   fill="url(#SVGID_1_)"
   d="m 112.355,102.778 c 0,9.455 -7.67,17.121 -17.122,17.121 H 32.785 c -9.455,0 -17.121,-7.666 -17.121,-17.121 V 25.224 c 0,-9.457 7.666,-17.123 17.121,-17.123 h 62.448 c 9.452,0 17.122,7.666 17.122,17.123 z"
   id="path7"
   style="fill:url(#SVGID_1_)" /><path
   opacity="0.26"
   fill="#cccccc"
   d="M 93.818,11.464 H 34.197 c -9.025,0 -16.348,7.32 -16.348,16.348 v 0.623 h 1.334 c 2.506,-5.812 8.283,-9.885 15.014,-9.885 h 59.621 c 6.733,0 12.51,4.072 15.017,9.885 h 1.333 v -0.623 c 0,-9.028 -7.318,-16.348 -16.35,-16.348 z"
   id="path9" /><path
   opacity="0.25"
   fill="#666666"
   d="m 47.688,75.433 c -11.429,0 -22.261,-1.33 -32.024,-3.705 v 31.051 c 0,9.455 7.666,17.121 17.121,17.121 h 62.448 c 9.452,0 17.122,-7.666 17.122,-17.121 V 56.821 C 98.492,68.032 74.71,75.433 47.688,75.433 Z"
   id="path11" /><path
   fill="#666666"
   d="m 32.787,119.899 h 62.446 c 9.456,0 17.122,-7.666 17.122,-17.121 v -4.635 c 0,9.457 -7.666,17.125 -17.122,17.125 H 32.787 c -9.457,0 -17.121,-7.668 -17.121,-17.125 v 4.635 c 0,9.455 7.664,17.121 17.121,17.121 z"
   id="path13" /><path
   fill="#595959"
   d="m 32.665,119.308 h 62 c 9.39,0 17,-7.611 17,-17 v -4.602 c 0,9.389 -7.61,17 -17,17 h -62 c -9.389,0 -17,-7.611 -17,-17 v 4.602 c 0,9.388 7.611,17 17,17 z"
   id="path15" />
<path
   sodipodi:type="star"
   style="fill:#ffff00;stroke:#ffffff;stroke-width:0.2;stroke-linecap:round"
   id="path881"
   sodipodi:sides="5"
   sodipodi:cx="63.471066"
   sodipodi:cy="66.615753"
   sodipodi:r1="32.47934"
   sodipodi:r2="16.23967"
   sodipodi:arg1="-0.26179939"
   sodipodi:arg2="0.36651914"
   inkscape:flatsided="false"
   inkscape:rounded="0"
   inkscape:randomized="0"
   d="M 94.843698,58.209481 78.632103,72.43553 81.160582,93.855219 62.621147,82.833167 43.031155,91.856941 47.784749,70.818889 33.14899,54.976199 54.626307,52.99602 65.170903,34.180925 73.691021,53.995159 Z"
   inkscape:transform-center-x="-0.52527862"
   inkscape:transform-center-y="-2.5976808" /></svg>
