<?xml version="1.0" encoding="UTF-8" standalone="no"?>
<svg
   xmlns:dc="http://purl.org/dc/elements/1.1/"
   xmlns:cc="http://creativecommons.org/ns#"
   xmlns:rdf="http://www.w3.org/1999/02/22-rdf-syntax-ns#"
   xmlns:svg="http://www.w3.org/2000/svg"
   xmlns="http://www.w3.org/2000/svg"
   xmlns:sodipodi="http://sodipodi.sourceforge.net/DTD/sodipodi-0.dtd"
   xmlns:inkscape="http://www.inkscape.org/namespaces/inkscape"
   version="1.1"
   id="Layer_1"
   x="0px"
   y="0px"
   width="128px"
   height="128px"
   viewBox="0 0 128 128"
   enable-background="new 0 0 128 128"
   xml:space="preserve"
   sodipodi:docname="preferences-desktop-screensaver.svg"
   inkscape:version="1.0.2 (e86c870879, 2021-01-15)"><metadata
   id="metadata76"><rdf:RDF><cc:Work
       rdf:about=""><dc:format>image/svg+xml</dc:format><dc:type
         rdf:resource="http://purl.org/dc/dcmitype/StillImage" /></cc:Work></rdf:RDF></metadata><defs
   id="defs74">
	
	
</defs><sodipodi:namedview
   pagecolor="#ffffff"
   bordercolor="#666666"
   borderopacity="1"
   objecttolerance="10"
   gridtolerance="10"
   guidetolerance="10"
   inkscape:pageopacity="0"
   inkscape:pageshadow="2"
   inkscape:window-width="726"
   inkscape:window-height="480"
   id="namedview72"
   showgrid="false"
   inkscape:zoom="2.796875"
   inkscape:cx="34.064727"
   inkscape:cy="35.980543"
   inkscape:window-x="408"
   inkscape:window-y="356"
   inkscape:window-maximized="0"
   inkscape:current-layer="Layer_1" />
<g
   id="g51">
		<g
   id="g16">
			<linearGradient
   id="SVGID_1_"
   gradientUnits="userSpaceOnUse"
   x1="79.179703"
   y1="111.373"
   x2="54.522301"
   y2="94.107697">
				<stop
   offset="0"
   style="stop-color:#D5D7D8"
   id="stop2" />
				<stop
   offset="1"
   style="stop-color:#5C5F61"
   id="stop4" />
			</linearGradient>
			<path
   fill="url(#SVGID_1_)"
   d="m 67.771,83.649 h -5.832 c -1.149,15.469 -3.318,28.266 -10.49,28.041 h 26.81 C 71.083,111.915 68.91,99.12 67.771,83.649 Z"
   id="path7"
   style="fill:url(#SVGID_1_)" />
			<linearGradient
   id="SVGID_2_"
   gradientUnits="userSpaceOnUse"
   x1="63.999001"
   y1="111.084"
   x2="63.999001"
   y2="119.3784">
				<stop
   offset="0"
   style="stop-color:#D5D7D8"
   id="stop9" />
				<stop
   offset="1"
   style="stop-color:#5C5F61"
   id="stop11" />
			</linearGradient>
			<path
   fill="url(#SVGID_2_)"
   d="m 96.506,116.487 c 0,2.289 -1.856,2.869 -4.146,2.869 H 35.642 c -2.293,0 -4.149,-0.576 -4.149,-2.869 v 0.176 c 0,-2.289 1.856,-4.146 4.149,-4.146 l 18.038,-1.275 h 22.242 l 16.438,1.275 c 2.289,0 4.146,1.857 4.146,4.146 z"
   id="path14"
   style="fill:url(#SVGID_2_)" />
		</g>
		<g
   opacity="0.79"
   id="g34">
			<path
   fill="#808080"
   d="M 91.21,112.778 75.443,111.555 H 54.109 l -17.302,1.223 c -2.17,0 -2.882,1.023 -3.949,3.055 0.006,0.277 2.063,-1.475 3.949,-1.475 l 17.302,-1.225 h 21.334 l 15.767,1.225 c 1.884,0 3.92,1.594 3.926,1.314 -1.068,-2.081 -1.757,-2.894 -3.926,-2.894 z"
   id="path18" />
			<linearGradient
   id="SVGID_3_"
   gradientUnits="userSpaceOnUse"
   x1="32.8325"
   y1="116.584"
   x2="32.8325"
   y2="116.7557">
				<stop
   offset="0"
   style="stop-color:#FFFFFF"
   id="stop20" />
				<stop
   offset="1"
   style="stop-color:#000000"
   id="stop22" />
			</linearGradient>
			<path
   fill="url(#SVGID_3_)"
   d="m 32.828,116.755 c 0,-0.031 0.009,-0.057 0.009,-0.084 0,-0.029 -0.009,-0.053 -0.009,-0.084 z"
   id="path25"
   style="fill:url(#SVGID_3_)" />
			<linearGradient
   id="SVGID_4_"
   gradientUnits="userSpaceOnUse"
   x1="95.183601"
   y1="116.584"
   x2="95.183601"
   y2="116.7557">
				<stop
   offset="0"
   style="stop-color:#FFFFFF"
   id="stop27" />
				<stop
   offset="1"
   style="stop-color:#000000"
   id="stop29" />
			</linearGradient>
			<path
   fill="url(#SVGID_4_)"
   d="m 95.179,116.671 c 0.002,0.027 0.01,0.053 0.01,0.084 v -0.168 c -10e-4,0.031 -0.008,0.053 -0.01,0.084 z"
   id="path32"
   style="fill:url(#SVGID_4_)" />
		</g>
		<linearGradient
   id="SVGID_5_"
   gradientUnits="userSpaceOnUse"
   x1="63.9995"
   y1="7.0142002"
   x2="63.9995"
   y2="92.337997">
			<stop
   offset="0"
   style="stop-color:#D5D7D8"
   id="stop36" />
			<stop
   offset="1"
   style="stop-color:#5C5F61"
   id="stop38" />
		</linearGradient>
		<path
   fill="url(#SVGID_5_)"
   stroke="#666666"
   stroke-miterlimit="3.8637"
   d="m 125.841,76.224 c 0,8.783 -7.118,15.9 -15.902,15.9 H 18.058 C 9.279,92.124 2.16,85.005 2.16,76.224 V 24.544 C 2.16,15.762 9.279,8.643 18.058,8.643 h 91.881 c 8.784,0 15.902,7.121 15.902,15.901 z"
   id="path41"
   style="fill:url(#SVGID_5_)" />
		<path
   fill="#999999"
   d="m 8.214,16.303 c 2.672,-2.887 7.911,-5.529 12.508,-5.529 l 86.958,0.115 c 4.596,0 9.14,2.527 11.811,5.414 h 0.991 C 117.853,12.481 113.003,9.908 107.438,9.908 H 20.001 c -5.565,0 -10.415,2.572 -13.044,6.395 z"
   id="path43" />
		<path
   fill="#4d4d4d"
   d="m 119.225,84.657 c -2.672,2.889 -7.912,5.533 -12.507,5.533 l -86.96,-0.117 c -4.597,0 -9.138,-2.527 -11.81,-5.416 H 6.957 c 2.629,3.822 7.479,6.396 13.044,6.396 h 87.437 c 5.565,0 10.415,-2.574 13.044,-6.396 z"
   id="path45" />
		<path
   d="m 119.077,72.495 c 0,7.51 -6.356,13.604 -14.201,13.604 H 22.809 C 14.965,86.099 8.608,80.005 8.608,72.495 V 28.278 c 0,-7.515 6.357,-13.605 14.201,-13.605 h 82.067 c 7.845,0 14.201,6.091 14.201,13.605 z"
   id="path47" />
		<path
   fill="#333333"
   d="M 104.876,14.672 H 22.809 c -7.844,0 -14.201,6.091 -14.201,13.605 v 32.854 c 11.184,3.045 23.73,4.754 36.99,4.754 31.368,0 58.749,-9.564 73.479,-23.785 V 28.278 c 0,-7.515 -6.356,-13.606 -14.201,-13.606 z"
   id="path49" />
	</g>
</svg>
