<?xml version="1.0" encoding="UTF-8" standalone="no"?>
<!-- Generator: Adobe Illustrator 13.0.0, SVG Export Plug-In . SVG Version: 6.00 Build 14948)  -->

<svg
   xmlns:dc="http://purl.org/dc/elements/1.1/"
   xmlns:cc="http://creativecommons.org/ns#"
   xmlns:rdf="http://www.w3.org/1999/02/22-rdf-syntax-ns#"
   xmlns:svg="http://www.w3.org/2000/svg"
   xmlns="http://www.w3.org/2000/svg"
   xmlns:sodipodi="http://sodipodi.sourceforge.net/DTD/sodipodi-0.dtd"
   xmlns:inkscape="http://www.inkscape.org/namespaces/inkscape"
   version="1.1"
   id="Layer_1"
   x="0px"
   y="0px"
   width="128px"
   height="128px"
   viewBox="0 0 128 128"
   enable-background="new 0 0 128 128"
   xml:space="preserve"
   sodipodi:docname="xclock.svg"
   inkscape:version="0.92.4 (5da689c313, 2019-01-14)"><metadata
   id="metadata59"><rdf:RDF><cc:Work
       rdf:about=""><dc:format>image/svg+xml</dc:format><dc:type
         rdf:resource="http://purl.org/dc/dcmitype/StillImage" /></cc:Work></rdf:RDF></metadata><defs
   id="defs57"><linearGradient
     id="SVGID_1_-3"
     gradientUnits="userSpaceOnUse"
     x1="2110.9883"
     y1="25.6812"
     x2="2050.4155"
     y2="119.9291"
     gradientTransform="matrix(0.8413,-0.5407,0.5407,0.8411,-1725.8621,1127.8052)"><stop
       offset="0"
       style="stop-color:#5F5D5C"
       id="stop2-6" /><stop
       offset="1"
       style="stop-color:#181500"
       id="stop4-7" /></linearGradient><linearGradient
     id="SVGID_2_-5"
     gradientUnits="userSpaceOnUse"
     x1="2079.3926"
     y1="43.212399"
     x2="2050.8601"
     y2="87.607498"
     gradientTransform="matrix(0.8413,-0.5407,0.5407,0.8411,-1725.8621,1127.8052)"><stop
       offset="0"
       style="stop-color:#FFD207"
       id="stop13-3" /><stop
       offset="1"
       style="stop-color:#FAA61A"
       id="stop15-5" /></linearGradient></defs><sodipodi:namedview
   pagecolor="#ffffff"
   bordercolor="#666666"
   borderopacity="1"
   objecttolerance="10"
   gridtolerance="10"
   guidetolerance="10"
   inkscape:pageopacity="0"
   inkscape:pageshadow="2"
   inkscape:window-width="640"
   inkscape:window-height="480"
   id="namedview55"
   showgrid="false"
   inkscape:zoom="1.84375"
   inkscape:cx="65.084746"
   inkscape:cy="61.830508"
   inkscape:window-x="0"
   inkscape:window-y="0"
   inkscape:window-maximized="0"
   inkscape:current-layer="Layer_1" />
<g
   id="g52">
	<linearGradient
   id="SVGID_1_"
   gradientUnits="userSpaceOnUse"
   x1="64.0005"
   y1="6.1211"
   x2="64.0005"
   y2="121.8804">
		<stop
   offset="0"
   style="stop-color:#FFD207"
   id="stop2" />
		<stop
   offset="1"
   style="stop-color:#FAA61A"
   id="stop4" />
	</linearGradient>
	<circle
   fill="url(#SVGID_1_)"
   cx="64"
   cy="64.001"
   r="57.879"
   id="circle7" />
	<radialGradient
   id="SVGID_2_"
   cx="64.0015"
   cy="64.0015"
   r="49.3901"
   gradientUnits="userSpaceOnUse">
		<stop
   offset="0"
   style="stop-color:#FAFAFA"
   id="stop9" />
		<stop
   offset="0.3109"
   style="stop-color:#F4F4F4"
   id="stop11" />
		<stop
   offset="0.7262"
   style="stop-color:#E3E3E3"
   id="stop13" />
		<stop
   offset="1"
   style="stop-color:#D4D4D4"
   id="stop15" />
	</radialGradient>
	<circle
   fill="url(#SVGID_2_)"
   cx="64.001"
   cy="64.001"
   r="49.39"
   id="circle18" />
	<path
   opacity="0.5"
   fill="#FFFFFF"
   d="M17.016,38.718c10.583-15.41,29.048-28.037,47.235-28.037   c18.186,0,36.158,12.627,46.736,28.037h2.012C101.786,20.581,84.572,7.896,64.005,7.896c-20.574,0-37.788,12.686-49.004,30.822   H17.016z"
   id="path20" />
	<g
   id="g50">
		
			<linearGradient
   id="SVGID_3_"
   gradientUnits="userSpaceOnUse"
   x1="117.668"
   y1="40.9229"
   x2="132.0322"
   y2="40.9229"
   gradientTransform="matrix(0.9999 -0.0166 0.0166 0.9999 -61.8602 26.7754)">
			<stop
   offset="0"
   style="stop-color:#5F5D5C"
   id="stop22" />
			<stop
   offset="1"
   style="stop-color:#181500"
   id="stop24" />
		</linearGradient>
		<path
   fill="url(#SVGID_3_)"
   d="M70.839,65.503c-0.067-3.965-3.336-7.127-7.3-7.062c-3.968,0.066-7.13,3.334-7.063,7.302    c0.064,3.968,3.337,7.128,7.303,7.061C67.741,72.738,70.903,69.469,70.839,65.503"
   id="path27" />
		
			<linearGradient
   id="SVGID_4_"
   gradientUnits="userSpaceOnUse"
   x1="101.8242"
   y1="48.498"
   x2="127.8809"
   y2="48.498"
   gradientTransform="matrix(0.9999 -0.0166 0.0166 0.9999 -61.8602 26.7754)">
			<stop
   offset="0"
   style="stop-color:#5F5D5C"
   id="stop29" />
			<stop
   offset="1"
   style="stop-color:#181500"
   id="stop31" />
		</linearGradient>
		<path
   fill="url(#SVGID_4_)"
   d="M66.276,64.853c-0.753-1.102-2.262-1.396-3.366-0.637L41.937,78.499    c-1.108,0.758-1.395,2.265-0.641,3.373c0.753,1.104,2.265,1.393,3.365,0.639l20.977-14.287    C66.747,67.468,67.03,65.958,66.276,64.853"
   id="path34" />
		
			<linearGradient
   id="SVGID_5_"
   gradientUnits="userSpaceOnUse"
   x1="124.2451"
   y1="22.4414"
   x2="127.2725"
   y2="22.4414"
   gradientTransform="matrix(0.9999 -0.0166 0.0166 0.9999 -61.8602 26.7754)">
			<stop
   offset="0"
   style="stop-color:#5F5D5C"
   id="stop36" />
			<stop
   offset="1"
   style="stop-color:#181500"
   id="stop38" />
		</linearGradient>
		<path
   fill="url(#SVGID_5_)"
   d="M64.245,26.823c-0.671,0.002-1.213,0.547-1.208,1.213l0.024,38.186c0,0.666,0.54,1.213,1.214,1.209    c0.671-0.003,1.21-0.545,1.21-1.214l-0.029-38.181C65.458,27.368,64.919,26.823,64.245,26.823"
   id="path41" />
		
			<linearGradient
   id="SVGID_6_"
   gradientUnits="userSpaceOnUse"
   x1="120.7012"
   y1="40.9233"
   x2="129"
   y2="40.9233"
   gradientTransform="matrix(0.9999 -0.0166 0.0166 0.9999 -61.8602 26.7754)">
			<stop
   offset="0"
   style="stop-color:#5F5D5C"
   id="stop43" />
			<stop
   offset="1"
   style="stop-color:#181500"
   id="stop45" />
		</linearGradient>
		<path
   fill="url(#SVGID_6_)"
   d="M67.808,65.554c-0.039-2.288-1.926-4.12-4.221-4.083c-2.29,0.04-4.115,1.932-4.078,4.222    c0.037,2.289,1.922,4.119,4.217,4.082C66.022,69.735,67.845,67.843,67.808,65.554"
   id="path48" />
	</g>
</g>
<g
   transform="matrix(0.40851099,0,0,0.41902086,62.827237,38.032275)"
   id="g28"><g
     id="g11"><g
       id="g9"><linearGradient
         id="linearGradient55"
         gradientUnits="userSpaceOnUse"
         x1="2110.9883"
         y1="25.6812"
         x2="2050.4155"
         y2="119.9291"
         gradientTransform="matrix(0.8413,-0.5407,0.5407,0.8411,-1725.8621,1127.8052)"><stop
           offset="0"
           style="stop-color:#5F5D5C"
           id="stop51" /><stop
           offset="1"
           style="stop-color:#181500"
           id="stop53" /></linearGradient><path
         style="fill:url(#SVGID_1_-3)"
         inkscape:connector-curvature="0"
         d="m 115.939,114.645 c -0.131,-0.338 -0.313,-0.646 -0.528,-0.93 L 81.311,60.669 115.29,14.007 c 1.219,-1.675 0.851,-4.02 -0.823,-5.236 -0.672,-0.49 -1.449,-0.711 -2.222,-0.709 l -8.687,-0.072 0.002,0.014 c -1.146,0.01 -2.274,0.533 -3.002,1.532 L 70.036,51.454 43.258,9.798 C 42.496,8.61 41.176,8.017 39.862,8.101 c -0.01,0 -0.021,-0.002 -0.031,-0.002 L 15.985,8.183 c -0.016,0 -0.029,0.004 -0.045,0.004 -0.741,-0.028 -1.498,0.156 -2.17,0.588 -1.744,1.121 -2.248,3.439 -1.129,5.183 l 34.051,52.965 -34.239,47.021 c -1.222,1.674 -0.851,4.02 0.821,5.238 0.736,0.532 1.6,0.746 2.44,0.69 l -0.004,0.021 7.546,-0.029 c 1.436,0.351 3.001,-0.166 3.926,-1.434 l 30.631,-42.064 26.958,41.938 c 0.811,1.262 2.25,1.862 3.646,1.68 0.046,0.002 0.09,0.014 0.138,0.014 l 23.842,-0.082 c 0.008,0 0.015,-0.002 0.021,-0.002 0.729,0.021 1.477,-0.166 2.137,-0.592 1.579,-1.019 2.127,-3.015 1.384,-4.677 z"
         id="path7" /></g></g><g
     id="g22"><g
       id="g20"><linearGradient
         id="linearGradient64"
         gradientUnits="userSpaceOnUse"
         x1="2079.3926"
         y1="43.212399"
         x2="2050.8601"
         y2="87.607498"
         gradientTransform="matrix(0.8413,-0.5407,0.5407,0.8411,-1725.8621,1127.8052)"><stop
           offset="0"
           style="stop-color:#FFD207"
           id="stop60" /><stop
           offset="1"
           style="stop-color:#FAA61A"
           id="stop62" /></linearGradient><path
         style="fill:url(#SVGID_2_-5)"
         inkscape:connector-curvature="0"
         d="M 71.366,90.059 C 71.304,89.905 71.22,89.762 71.124,89.631 L 55.055,64.637 71.06,42.659 c 0.572,-0.789 0.398,-1.895 -0.389,-2.469 -0.402,-0.295 -0.893,-0.389 -1.349,-0.309 l -3.449,-0.029 c -0.647,-0.123 -1.34,0.121 -1.754,0.69 L 49.742,60.291 37.126,40.667 c -0.358,-0.557 -0.978,-0.837 -1.595,-0.799 -0.008,0 -0.014,-0.002 -0.021,-0.002 l -11.233,0.039 c -0.008,0 -0.016,0.002 -0.023,0.002 -0.35,-0.014 -0.705,0.074 -1.02,0.277 -0.821,0.526 -1.06,1.621 -0.531,2.44 L 38.744,67.578 22.612,89.73 c -0.573,0.787 -0.398,1.893 0.39,2.467 0.419,0.305 0.925,0.393 1.396,0.295 l 3.299,0.023 c 0.679,0.17 1.421,-0.072 1.857,-0.675 l 14.43,-19.813 12.701,19.756 c 0.383,0.596 1.063,0.879 1.723,0.791 0.02,0 0.039,0.006 0.06,0.006 L 69.7,92.543 c 0.005,0 0.01,-0.002 0.015,-0.002 0.344,0.01 0.691,-0.08 1.001,-0.279 0.742,-0.479 1.001,-1.42 0.65,-2.203 z"
         id="path18" /></g></g><path
     style="opacity:0.5;fill:#ffffff"
     inkscape:connector-curvature="0"
     d="m 17.015,12.269 c 0.643,-0.412 1.367,-0.59 2.076,-0.562 0.016,0 0.028,-0.004 0.044,-0.004 l 22.813,-0.08 c 0.01,0 0.021,0.002 0.029,0.002 0.007,0 0.015,0 0.021,0 l -0.024,-0.039 c -0.649,-1.013 -1.774,-1.52 -2.896,-1.447 -0.008,0 -0.018,-0.002 -0.026,-0.002 l -20.327,0.072 c -0.014,0 -0.025,0.003 -0.039,0.003 -0.632,-0.024 -1.277,0.134 -1.85,0.501 -1.227,0.789 -1.716,2.268 -1.318,3.596 0.229,-0.812 0.731,-1.548 1.497,-2.04 z"
     id="path24" /><path
     style="opacity:0.5;fill:#ffffff"
     inkscape:connector-curvature="0"
     d="m 25.007,42.817 c 0.309,-0.197 0.657,-0.283 0.998,-0.271 0.007,0 0.014,-10e-4 0.021,-10e-4 l 10.961,-0.039 c 0.005,0 0.009,10e-4 0.014,10e-4 0.105,-0.007 0.212,0 0.315,0.011 l -0.434,-0.674 c -0.309,-0.482 -0.846,-0.725 -1.38,-0.689 -0.004,0 -0.009,-10e-4 -0.013,-10e-4 l -9.69,0.034 c -0.006,0 -0.012,0.002 -0.019,0.002 -0.301,-0.012 -0.608,0.063 -0.881,0.238 -0.692,0.445 -0.899,1.352 -0.486,2.053 0.134,-0.259 0.33,-0.494 0.594,-0.664 z"
     id="path26" /></g></svg>