<?xml version="1.0" encoding="UTF-8" standalone="no"?>
<!-- Generator: Adobe Illustrator 13.0.0, SVG Export Plug-In . SVG Version: 6.00 Build 14948)  -->

<svg
   xmlns:dc="http://purl.org/dc/elements/1.1/"
   xmlns:cc="http://creativecommons.org/ns#"
   xmlns:rdf="http://www.w3.org/1999/02/22-rdf-syntax-ns#"
   xmlns:svg="http://www.w3.org/2000/svg"
   xmlns="http://www.w3.org/2000/svg"
   xmlns:xlink="http://www.w3.org/1999/xlink"
   xmlns:sodipodi="http://sodipodi.sourceforge.net/DTD/sodipodi-0.dtd"
   xmlns:inkscape="http://www.inkscape.org/namespaces/inkscape"
   version="1.1"
   id="Layer_1"
   x="0px"
   y="0px"
   width="128px"
   height="128px"
   viewBox="0 0 128 128"
   enable-background="new 0 0 128 128"
   xml:space="preserve"
   sodipodi:docname="document-print-direct.svg"
   inkscape:version="0.92.4 (5da689c313, 2019-01-14)"><metadata
   id="metadata73"><rdf:RDF><cc:Work
       rdf:about=""><dc:format>image/svg+xml</dc:format><dc:type
         rdf:resource="http://purl.org/dc/dcmitype/StillImage" /></cc:Work></rdf:RDF></metadata><defs
   id="defs71"><linearGradient
     id="SVGID_2_-3"
     gradientUnits="userSpaceOnUse"
     x1="81.6875"
     y1="82.183601"
     x2="68.144302"
     y2="72.7005"><stop
       offset="0"
       style="stop-color:#99DBF6"
       id="stop5" /><stop
       offset="1"
       style="stop-color:#00B2DE"
       id="stop7" /></linearGradient><linearGradient
     id="SVGID_4_-6"
     gradientUnits="userSpaceOnUse"
     x1="72.6465"
     y1="95.303703"
     x2="63.4118"
     y2="88.837502"><stop
       offset="0"
       style="stop-color:#C51015"
       id="stop15" /><stop
       offset="1"
       style="stop-color:#E20A16"
       id="stop17" /></linearGradient><clipPath
     id="SVGID_3_-7"><use
       height="100%"
       width="100%"
       y="0"
       x="0"
       style="overflow:visible"
       xlink:href="#SVGID_1_-5"
       overflow="visible"
       id="use12" /></clipPath><linearGradient
     id="SVGID_6_-5"
     gradientUnits="userSpaceOnUse"
     x1="60.930698"
     y1="56.172901"
     x2="41.177399"
     y2="42.341499"><stop
       offset="0"
       style="stop-color:#99DBF6"
       id="stop27" /><stop
       offset="1"
       style="stop-color:#00B2DE"
       id="stop29" /></linearGradient><linearGradient
     id="SVGID_8_"
     gradientUnits="userSpaceOnUse"
     x1="41.931198"
     y1="59.997101"
     x2="31.835699"
     y2="52.9282"><stop
       offset="0"
       style="stop-color:#C51015"
       id="stop37-3" /><stop
       offset="1"
       style="stop-color:#E20A16"
       id="stop39" /></linearGradient><clipPath
     id="SVGID_7_"><use
       height="100%"
       width="100%"
       y="0"
       x="0"
       style="overflow:visible"
       xlink:href="#SVGID_5_-6"
       overflow="visible"
       id="use34" /></clipPath><linearGradient
     id="SVGID_10_"
     gradientUnits="userSpaceOnUse"
     x1="46.450699"
     y1="103.5869"
     x2="23.3288"
     y2="87.396797"><stop
       offset="0"
       style="stop-color:#FF9D00"
       id="stop49" /><stop
       offset="1"
       style="stop-color:#FF1F00"
       id="stop51" /></linearGradient><clipPath
     id="SVGID_11_"><use
       height="100%"
       width="100%"
       y="0"
       x="0"
       style="overflow:visible"
       xlink:href="#SVGID_9_"
       overflow="visible"
       id="use56" /></clipPath><linearGradient
     id="SVGID_12_"
     gradientUnits="userSpaceOnUse"
     x1="67.272499"
     y1="69.834"
     x2="55.918701"
     y2="61.883999"><stop
       offset="0"
       style="stop-color:#99DBF6"
       id="stop63" /><stop
       offset="1"
       style="stop-color:#00B2DE"
       id="stop65" /></linearGradient><linearGradient
     id="SVGID_14_"
     gradientUnits="userSpaceOnUse"
     x1="108.7061"
     y1="50.506302"
     x2="76.6735"
     y2="28.0769"><stop
       offset="0"
       style="stop-color:#00B1DD"
       id="stop73" /><stop
       offset="1"
       style="stop-color:#99DAF5"
       id="stop75" /></linearGradient><linearGradient
     id="SVGID_16_"
     gradientUnits="userSpaceOnUse"
     x1="128.0381"
     y1="19.9321"
     x2="113.2062"
     y2="9.5466995"><stop
       offset="0"
       style="stop-color:#C51015"
       id="stop83" /><stop
       offset="1"
       style="stop-color:#E20A16"
       id="stop85" /></linearGradient><clipPath
     id="SVGID_15_"><use
       height="100%"
       width="100%"
       y="0"
       x="0"
       style="overflow:visible"
       xlink:href="#SVGID_13_"
       overflow="visible"
       id="use80" /></clipPath><path
     inkscape:connector-curvature="0"
     id="SVGID_1_-5"
     d="m 89.758,62.394 c 0,0 -6.064,18.54 -10.665,23.268 -4.601,4.729 -11.158,12.334 -11.158,12.334 0,0 -1.365,-1.549 -2.16,-2.578 -0.796,-1.031 -2.623,-2.807 -2.623,-2.807 0,0 3.485,-5.197 5.014,-9.078 1.529,-3.881 2.024,-13.752 2.024,-13.752 z" /><path
     inkscape:connector-curvature="0"
     id="SVGID_5_-6"
     d="m 69.78,39.526 c 0,0 -19.204,3.426 -24.527,7.323 -5.323,3.897 -13.767,9.334 -13.767,9.334 0,0 1.343,1.565 2.253,2.498 0.91,0.931 2.414,2.985 2.414,2.985 0,0 5.631,-2.727 9.688,-3.701 4.056,-0.973 13.898,-0.09 13.898,-0.09 z" /><path
     inkscape:connector-curvature="0"
     id="SVGID_9_"
     d="m 57.057,64.483 c 0,0 -5.755,-3.893 -14.687,2.961 -8.933,6.854 -15.785,22.696 -18.686,26.676 -2.9,3.98 -9.217,12.469 -11.113,14.482 -1.896,2.012 -11.104,10.016 -11.104,10.016 0,0 14.664,-10.742 17.893,-12.555 3.227,-1.811 9.586,-5.053 12.291,-6.229 2.705,-1.176 20.271,-7.814 26.507,-13.6 6.234,-5.785 5.571,-14.283 5.571,-14.283 z" /><path
     inkscape:connector-curvature="0"
     id="SVGID_13_"
     d="m 59.335,58.228 c 0,0 8.852,-20.861 17.075,-28.738 7.144,-6.844 22.974,-15.797 28.504,-17.058 5.528,-1.263 14.713,-3.351 17.987,1.257 3.275,4.607 1.766,9.525 0.896,12.309 -2.261,7.232 -13.681,23.154 -18.747,27.559 -11.793,10.252 -34.921,17.087 -34.921,17.087 0,0 -4.534,-5.846 -5.978,-7.506 -1.445,-1.662 -4.816,-4.91 -4.816,-4.91 z" /></defs><sodipodi:namedview
   pagecolor="#ffffff"
   bordercolor="#666666"
   borderopacity="1"
   objecttolerance="10"
   gridtolerance="10"
   guidetolerance="10"
   inkscape:pageopacity="0"
   inkscape:pageshadow="2"
   inkscape:window-width="640"
   inkscape:window-height="480"
   id="namedview69"
   showgrid="false"
   inkscape:zoom="1.84375"
   inkscape:cx="64"
   inkscape:cy="64"
   inkscape:window-x="0"
   inkscape:window-y="0"
   inkscape:window-maximized="0"
   inkscape:current-layer="Layer_1" />
<g
   id="g66">
	<path
   d="M30.377,51.536h68.967c8.16,0,14.775,6.621,14.775,14.787v16.232c0,8.164-6.615,14.785-14.775,14.785H30.377   c-8.16,0-14.775-6.621-14.775-14.785V66.323C15.602,58.157,22.217,51.536,30.377,51.536L30.377,51.536z"
   id="path2" />
	<g
   id="g19">
		
			<radialGradient
   id="SVGID_1_"
   cx="65.3457"
   cy="65.624"
   r="39.9539"
   gradientTransform="matrix(1 0 0 1 0 -9.765625e-04)"
   gradientUnits="userSpaceOnUse">
			<stop
   offset="0"
   style="stop-color:#FAFAFA"
   id="stop4" />
			<stop
   offset="0.3109"
   style="stop-color:#F4F4F4"
   id="stop6" />
			<stop
   offset="0.7262"
   style="stop-color:#E3E3E3"
   id="stop8" />
			<stop
   offset="1"
   style="stop-color:#D4D4D4"
   id="stop10" />
		</radialGradient>
		<path
   fill="url(#SVGID_1_)"
   stroke="#B3B3B3"
   d="M98.944,34.196v62.852c0,7.732-6.274,14.004-14.014,14.004H45.762    c-7.741,0-14.014-6.271-14.014-14.004V34.196c0-7.732,6.272-14.002,14.014-14.002h39.169    C92.67,20.194,98.944,26.464,98.944,34.196L98.944,34.196z"
   id="path13" />
		<path
   fill="#B3B3B3"
   d="M85.078,109.302H45.907c-7.741,0-14.013-6.27-14.013-14.004v1.75c0,7.732,6.271,14.004,14.013,14.004    h39.171c7.739,0,14.014-6.271,14.014-14.004v-1.75C99.092,103.032,92.817,109.302,85.078,109.302z"
   id="path15" />
		<path
   fill="#FFFFFF"
   d="M40.144,26.198c1.563-1.303,3.333-2.186,5.764-2.186h39.171c2.432,0,4.2,0.883,5.764,2.186h1.977    c-1.971-1.99-4.364-3.186-7.74-3.186H45.907c-3.375,0-5.77,1.195-7.74,3.186H40.144z"
   id="path17" />
	</g>
	<linearGradient
   id="SVGID_2_"
   gradientUnits="userSpaceOnUse"
   x1="65.2568"
   y1="59.1299"
   x2="65.2568"
   y2="117.0034">
		<stop
   offset="0"
   style="stop-color:#D5D7D8"
   id="stop21" />
		<stop
   offset="1"
   style="stop-color:#5C5F61"
   id="stop23" />
	</linearGradient>
	<path
   fill="url(#SVGID_2_)"
   d="M21.682,59.13h87.148c10.311,0,18.67,8.363,18.67,18.682v20.51c0,10.318-8.359,18.682-18.67,18.682   H21.682c-10.311,0-18.668-8.363-18.668-18.682v-20.51C3.014,67.493,11.371,59.13,21.682,59.13L21.682,59.13z"
   id="path26" />
	<linearGradient
   id="SVGID_3_"
   gradientUnits="userSpaceOnUse"
   x1="65.2568"
   y1="91.2314"
   x2="65.2568"
   y2="114.8936">
		<stop
   offset="0"
   style="stop-color:#5F5D5C"
   id="stop28" />
		<stop
   offset="1"
   style="stop-color:#181500"
   id="stop30" />
	</linearGradient>
	<path
   fill="url(#SVGID_3_)"
   d="M38.951,91.231h52.611c6.225,0,11.271,5.051,11.271,11.279v12.383H27.68v-12.383   C27.68,96.282,32.727,91.231,38.951,91.231L38.951,91.231z"
   id="path33" />
	<g
   id="g42">
		<linearGradient
   id="SVGID_4_"
   gradientUnits="userSpaceOnUse"
   x1="17.9717"
   y1="71.6025"
   x2="17.9717"
   y2="79.7275">
			<stop
   offset="0"
   style="stop-color:#80E21B"
   id="stop35" />
			<stop
   offset="1"
   style="stop-color:#80B400"
   id="stop37" />
		</linearGradient>
		<path
   fill="url(#SVGID_4_)"
   d="M13.912,75.665c0-2.242,1.816-4.062,4.059-4.062s4.061,1.82,4.061,4.062    c0,2.244-1.818,4.062-4.061,4.062S13.912,77.909,13.912,75.665L13.912,75.665z"
   id="path40" />
	</g>
	<g
   id="g51">
		<linearGradient
   id="SVGID_5_"
   gradientUnits="userSpaceOnUse"
   x1="17.9717"
   y1="82.792"
   x2="17.9717"
   y2="90.917">
			<stop
   offset="0"
   style="stop-color:#E20A16"
   id="stop44" />
			<stop
   offset="1"
   style="stop-color:#B51015"
   id="stop46" />
		</linearGradient>
		<path
   fill="url(#SVGID_5_)"
   d="M13.912,86.854c0-2.242,1.816-4.062,4.059-4.062s4.061,1.82,4.061,4.062    c0,2.244-1.818,4.062-4.061,4.062S13.912,89.099,13.912,86.854L13.912,86.854z"
   id="path49" />
	</g>
	<path
   fill="#4D4D4D"
   d="M108.83,114.907H21.682c-10.311,0-18.668-8.363-18.668-18.682v2.596c0,10.318,8.357,18.682,18.668,18.682   h87.148c10.311,0,18.67-8.363,18.67-18.682v-2.596C127.5,106.544,119.141,114.907,108.83,114.907z"
   id="path53" />
	<g
   id="g64">
		<linearGradient
   id="SVGID_6_"
   gradientUnits="userSpaceOnUse"
   x1="65.2568"
   y1="64.1572"
   x2="65.2568"
   y2="94.0015">
			<stop
   offset="0"
   style="stop-color:#D5D7D8"
   id="stop55" />
			<stop
   offset="1"
   style="stop-color:#5C5F61"
   id="stop57" />
		</linearGradient>
		<path
   opacity="0.5"
   fill="url(#SVGID_6_)"
   d="M106.52,64.157H23.992c-9.764,0-17.678,7.92-17.678,17.691v12.152    c0-9.771,7.914-17.691,17.678-17.691h82.527c9.764,0,17.68,7.92,17.68,17.691V81.849C124.199,72.077,116.283,64.157,106.52,64.157    z"
   id="path60" />
		<path
   fill="#FFFFFF"
   d="M106.52,62.638H23.992c-9.764,0-17.678,7.92-17.678,17.691v1.689c0-9.771,7.914-17.691,17.678-17.691    h82.527c9.764,0,17.68,7.92,17.68,17.691v-1.689C124.199,70.558,116.283,62.638,106.52,62.638z"
   id="path62" />
	</g>
</g>
<g
   transform="matrix(0.51513225,0,0,0.58012609,60.647385,17.129244)"
   id="g94"><g
     id="g22"><defs
       id="defs3"><path
         inkscape:connector-curvature="0"
         id="path214"
         d="m 89.758,62.394 c 0,0 -6.064,18.54 -10.665,23.268 -4.601,4.729 -11.158,12.334 -11.158,12.334 0,0 -1.365,-1.549 -2.16,-2.578 -0.796,-1.031 -2.623,-2.807 -2.623,-2.807 0,0 3.485,-5.197 5.014,-9.078 1.529,-3.881 2.024,-13.752 2.024,-13.752 z" /></defs><linearGradient
       id="linearGradient173"
       gradientUnits="userSpaceOnUse"
       x1="81.6875"
       y1="82.183601"
       x2="68.144302"
       y2="72.7005"><stop
         offset="0"
         style="stop-color:#99DBF6"
         id="stop169" /><stop
         offset="1"
         style="stop-color:#00B2DE"
         id="stop171" /></linearGradient><use
       height="100%"
       width="100%"
       y="0"
       x="0"
       style="overflow:visible;fill:url(#SVGID_2_-3)"
       xlink:href="#SVGID_1_-5"
       overflow="visible"
       id="use10" /><clipPath
       id="clipPath178"><use
         height="100%"
         width="100%"
         y="0"
         x="0"
         style="overflow:visible"
         xlink:href="#SVGID_1_-5"
         overflow="visible"
         id="use176" /></clipPath><linearGradient
       id="linearGradient184"
       gradientUnits="userSpaceOnUse"
       x1="72.6465"
       y1="95.303703"
       x2="63.4118"
       y2="88.837502"><stop
         offset="0"
         style="stop-color:#C51015"
         id="stop180" /><stop
         offset="1"
         style="stop-color:#E20A16"
         id="stop182" /></linearGradient><path
       style="fill:url(#SVGID_4_-6)"
       inkscape:connector-curvature="0"
       clip-path="url(#SVGID_3_-7)"
       d="m 64.065,87.905 c 0,0 7.695,2.488 9.055,2.584 1.357,0.096 3.023,-0.178 3.023,-0.178 l -7.844,9.27 -8.066,-5.527 z"
       id="path20" /></g><g
     id="g44"><defs
       id="defs25"><path
         inkscape:connector-curvature="0"
         id="path228"
         d="m 69.78,39.526 c 0,0 -19.204,3.426 -24.527,7.323 -5.323,3.897 -13.767,9.334 -13.767,9.334 0,0 1.343,1.565 2.253,2.498 0.91,0.931 2.414,2.985 2.414,2.985 0,0 5.631,-2.727 9.688,-3.701 4.056,-0.973 13.898,-0.09 13.898,-0.09 z" /></defs><linearGradient
       id="linearGradient194"
       gradientUnits="userSpaceOnUse"
       x1="60.930698"
       y1="56.172901"
       x2="41.177399"
       y2="42.341499"><stop
         offset="0"
         style="stop-color:#99DBF6"
         id="stop190" /><stop
         offset="1"
         style="stop-color:#00B2DE"
         id="stop192" /></linearGradient><use
       height="100%"
       width="100%"
       y="0"
       x="0"
       style="overflow:visible;fill:url(#SVGID_6_-5)"
       xlink:href="#SVGID_5_-6"
       overflow="visible"
       id="use32" /><clipPath
       id="clipPath199"><use
         height="100%"
         width="100%"
         y="0"
         x="0"
         style="overflow:visible"
         xlink:href="#SVGID_5_-6"
         overflow="visible"
         id="use197" /></clipPath><linearGradient
       id="linearGradient205"
       gradientUnits="userSpaceOnUse"
       x1="41.931198"
       y1="59.997101"
       x2="31.835699"
       y2="52.9282"><stop
         offset="0"
         style="stop-color:#C51015"
         id="stop201" /><stop
         offset="1"
         style="stop-color:#E20A16"
         id="stop203" /></linearGradient><path
       style="fill:url(#SVGID_8_)"
       inkscape:connector-curvature="0"
       clip-path="url(#SVGID_7_)"
       d="m 40.938,61.417 c 0,0 -1.393,-7.967 -1.298,-9.324 0.096,-1.359 0.599,-2.971 0.599,-2.971 l -10.273,6.478 4.352,8.757 z"
       id="path42" /></g><g
     id="g61"><defs
       id="defs47"><path
         inkscape:connector-curvature="0"
         id="path242"
         d="m 57.057,64.483 c 0,0 -5.755,-3.893 -14.687,2.961 -8.933,6.854 -15.785,22.696 -18.686,26.676 -2.9,3.98 -9.217,12.469 -11.113,14.482 -1.896,2.012 -11.104,10.016 -11.104,10.016 0,0 14.664,-10.742 17.893,-12.555 3.227,-1.811 9.586,-5.053 12.291,-6.229 2.705,-1.176 20.271,-7.814 26.507,-13.6 6.234,-5.785 5.571,-14.283 5.571,-14.283 z" /></defs><linearGradient
       id="linearGradient215"
       gradientUnits="userSpaceOnUse"
       x1="46.450699"
       y1="103.5869"
       x2="23.3288"
       y2="87.396797"><stop
         offset="0"
         style="stop-color:#FF9D00"
         id="stop211" /><stop
         offset="1"
         style="stop-color:#FF1F00"
         id="stop213" /></linearGradient><use
       height="100%"
       width="100%"
       y="0"
       x="0"
       style="clip-rule:evenodd;overflow:visible;fill:url(#SVGID_10_);fill-rule:evenodd"
       xlink:href="#SVGID_9_"
       overflow="visible"
       id="use54" /><clipPath
       id="clipPath220"><use
         height="100%"
         width="100%"
         y="0"
         x="0"
         style="overflow:visible"
         xlink:href="#SVGID_9_"
         overflow="visible"
         id="use218" /></clipPath><path
       style="fill:#ffffff"
       inkscape:connector-curvature="0"
       clip-path="url(#SVGID_11_)"
       d="m 57.21,65.079 c 0,0 -4.401,5.914 -6.846,8.949 -2.447,3.037 -11.434,11.924 -11.434,11.924 0,0 11.013,-7.867 14.081,-9.506 4.345,-2.318 9.428,-5.561 10.091,-6.684 0.665,-1.124 -5.892,-4.683 -5.892,-4.683 z"
       id="path59" /></g><linearGradient
     id="linearGradient228"
     gradientUnits="userSpaceOnUse"
     x1="67.272499"
     y1="69.834"
     x2="55.918701"
     y2="61.883999"><stop
       offset="0"
       style="stop-color:#99DBF6"
       id="stop224" /><stop
       offset="1"
       style="stop-color:#00B2DE"
       id="stop226" /></linearGradient><path
     style="fill:url(#SVGID_12_)"
     inkscape:connector-curvature="0"
     d="m 62.762,60.7 -7.425,2.016 c 0,0 1.972,4.994 3.616,6.561 1.646,1.568 5.512,4.568 5.512,4.568 l 3.961,-7.98 z"
     id="path68" /><g
     id="g90"><defs
       id="defs71-2"><path
         inkscape:connector-curvature="0"
         id="path257"
         d="m 59.335,58.228 c 0,0 8.852,-20.861 17.075,-28.738 7.144,-6.844 22.974,-15.797 28.504,-17.058 5.528,-1.263 14.713,-3.351 17.987,1.257 3.275,4.607 1.766,9.525 0.896,12.309 -2.261,7.232 -13.681,23.154 -18.747,27.559 -11.793,10.252 -34.921,17.087 -34.921,17.087 0,0 -4.534,-5.846 -5.978,-7.506 -1.445,-1.662 -4.816,-4.91 -4.816,-4.91 z" /></defs><linearGradient
       id="linearGradient237"
       gradientUnits="userSpaceOnUse"
       x1="108.7061"
       y1="50.506302"
       x2="76.6735"
       y2="28.0769"><stop
         offset="0"
         style="stop-color:#00B1DD"
         id="stop233" /><stop
         offset="1"
         style="stop-color:#99DAF5"
         id="stop235" /></linearGradient><use
       height="100%"
       width="100%"
       y="0"
       x="0"
       style="overflow:visible;fill:url(#SVGID_14_)"
       xlink:href="#SVGID_13_"
       overflow="visible"
       id="use78" /><clipPath
       id="clipPath242"><use
         height="100%"
         width="100%"
         y="0"
         x="0"
         style="overflow:visible"
         xlink:href="#SVGID_13_"
         overflow="visible"
         id="use240" /></clipPath><linearGradient
       id="linearGradient248"
       gradientUnits="userSpaceOnUse"
       x1="128.0381"
       y1="19.9321"
       x2="113.2062"
       y2="9.5466995"><stop
         offset="0"
         style="stop-color:#C51015"
         id="stop244" /><stop
         offset="1"
         style="stop-color:#E20A16"
         id="stop246" /></linearGradient><path
       style="fill:url(#SVGID_16_)"
       inkscape:connector-curvature="0"
       clip-path="url(#SVGID_15_)"
       d="m 112.644,10.35 c 0,0 3.98,2.618 6.168,4.808 2.188,2.192 6.6,8.526 6.6,8.526 0,0 0.616,-10.06 -0.828,-11.72 -1.444,-1.662 -11.94,-1.614 -11.94,-1.614 z"
       id="path88" /></g><path
     style="opacity:0.5;fill:#ffffff"
     inkscape:connector-curvature="0"
     d="M 62.684,60.048 C 64.554,55.815 71.962,39.661 78.917,33 c 6.981,-6.688 22.452,-15.437 27.856,-16.669 4.611,-1.053 11.812,-2.68 15.816,-0.339 -0.146,-0.243 -0.298,-0.486 -0.469,-0.728 -3.158,-4.443 -12.016,-2.43 -17.347,-1.212 -5.333,1.216 -20.6,9.851 -27.488,16.45 -7.931,7.596 -16.467,27.714 -16.467,27.714 0,0 0.85,0.818 1.866,1.832 z"
     id="path92" /></g></svg>