<?xml version="1.0" encoding="UTF-8" standalone="no"?>
<!-- Generator: Adobe Illustrator 13.0.0, SVG Export Plug-In . SVG Version: 6.00 Build 14948)  -->

<svg
   xmlns:dc="http://purl.org/dc/elements/1.1/"
   xmlns:cc="http://creativecommons.org/ns#"
   xmlns:rdf="http://www.w3.org/1999/02/22-rdf-syntax-ns#"
   xmlns:svg="http://www.w3.org/2000/svg"
   xmlns="http://www.w3.org/2000/svg"
   xmlns:sodipodi="http://sodipodi.sourceforge.net/DTD/sodipodi-0.dtd"
   xmlns:inkscape="http://www.inkscape.org/namespaces/inkscape"
   version="1.1"
   id="Layer_1"
   x="0px"
   y="0px"
   width="128px"
   height="128px"
   viewBox="0 0 128 128"
   enable-background="new 0 0 128 128"
   xml:space="preserve"
   sodipodi:docname="document-edit.svg"
   inkscape:version="0.92.4 (5da689c313, 2019-01-14)"><metadata
   id="metadata43"><rdf:RDF><cc:Work
       rdf:about=""><dc:format>image/svg+xml</dc:format><dc:type
         rdf:resource="http://purl.org/dc/dcmitype/StillImage" /></cc:Work></rdf:RDF></metadata><defs
   id="defs41"><linearGradient
     id="SVGID_1_-3"
     gradientUnits="userSpaceOnUse"
     x1="-9074.3027"
     y1="3717.3525"
     x2="-9074.3027"
     y2="3659.3359"
     gradientTransform="matrix(0.3308,-0.346,-0.3461,-0.3305,4354.2202,-1842.9312)"><stop
       offset="0"
       style="stop-color:#FFD207"
       id="stop2-6" /><stop
       offset="1"
       style="stop-color:#FAA61A"
       id="stop4-7" /></linearGradient><linearGradient
     id="SVGID_2_-5"
     gradientUnits="userSpaceOnUse"
     x1="-8975.2715"
     y1="3689.0332"
     x2="-8974.8623"
     y2="3711.5046"
     gradientTransform="matrix(0.3308,-0.346,-0.3461,-0.3305,4354.2202,-1842.9312)"><stop
       offset="0"
       style="stop-color:#F66B87"
       id="stop9" /><stop
       offset="1"
       style="stop-color:#FCD0D9"
       id="stop11" /></linearGradient><linearGradient
     id="SVGID_3_"
     gradientUnits="userSpaceOnUse"
     x1="-9161.8975"
     y1="3710.0469"
     x2="-9156.8564"
     y2="3688.2007"
     gradientTransform="matrix(0.3308,-0.346,-0.3461,-0.3305,4354.2202,-1842.9312)"><stop
       offset="0"
       style="stop-color:#FAEDB0"
       id="stop16" /><stop
       offset="1"
       style="stop-color:#FFC76E"
       id="stop18" /></linearGradient><linearGradient
     id="SVGID_4_"
     gradientUnits="userSpaceOnUse"
     x1="-9148.2402"
     y1="3711.7646"
     x2="-9143.3711"
     y2="3690.6648"
     gradientTransform="matrix(0.3308,-0.346,-0.3461,-0.3305,4354.2202,-1842.9312)"><stop
       offset="0"
       style="stop-color:#FAEDB0"
       id="stop23" /><stop
       offset="1"
       style="stop-color:#FFC76E"
       id="stop25" /></linearGradient><linearGradient
     id="SVGID_5_"
     gradientUnits="userSpaceOnUse"
     x1="-9166.7412"
     y1="3706.792"
     x2="-9164.1182"
     y2="3688.4363"
     gradientTransform="matrix(0.3308,-0.346,-0.3461,-0.3305,4354.2202,-1842.9312)"><stop
       offset="0"
       style="stop-color:#FAEDB0"
       id="stop32" /><stop
       offset="1"
       style="stop-color:#FFC76E"
       id="stop34" /></linearGradient><linearGradient
     id="SVGID_6_"
     gradientUnits="userSpaceOnUse"
     x1="-9191.1582"
     y1="3691.1855"
     x2="-9194.4248"
     y2="3702.2107"
     gradientTransform="matrix(0.3308,-0.346,-0.3461,-0.3305,4354.2202,-1842.9312)"><stop
       offset="0"
       style="stop-color:#231F20"
       id="stop39" /><stop
       offset="1"
       style="stop-color:#FFFFFF"
       id="stop41" /></linearGradient><linearGradient
     id="SVGID_7_"
     gradientUnits="userSpaceOnUse"
     x1="-8613.4053"
     y1="-2916.9795"
     x2="-8629.7734"
     y2="-2903.1089"
     gradientTransform="matrix(0.4786,-0.011,-0.0108,-0.4784,4194.1494,-1433.9998)"><stop
       offset="0"
       style="stop-color:#808080"
       id="stop46" /><stop
       offset="1"
       style="stop-color:#F2F2F2"
       id="stop48" /></linearGradient><linearGradient
     id="SVGID_8_"
     gradientUnits="userSpaceOnUse"
     x1="-2267.7051"
     y1="-261.66159"
     x2="-2267.7051"
     y2="-261.66159"
     gradientTransform="rotate(-16.744245,93.664865,-7931.336)"><stop
       offset="0"
       style="stop-color:#DEDEDE"
       id="stop57" /><stop
       offset="1"
       style="stop-color:#FEFEFE"
       id="stop59" /></linearGradient></defs><sodipodi:namedview
   pagecolor="#ffffff"
   bordercolor="#666666"
   borderopacity="1"
   objecttolerance="10"
   gridtolerance="10"
   guidetolerance="10"
   inkscape:pageopacity="0"
   inkscape:pageshadow="2"
   inkscape:window-width="1366"
   inkscape:window-height="711"
   id="namedview39"
   showgrid="false"
   inkscape:zoom="1.84375"
   inkscape:cx="65.084746"
   inkscape:cy="61.830508"
   inkscape:window-x="0"
   inkscape:window-y="0"
   inkscape:window-maximized="1"
   inkscape:current-layer="g36" />
<g
   id="g36">
	<g
   id="g17">
		
			<radialGradient
   id="SVGID_1_"
   cx="63.9023"
   cy="64.002"
   r="53.1358"
   gradientTransform="matrix(1 0 0 1 0 -9.765625e-04)"
   gradientUnits="userSpaceOnUse">
			<stop
   offset="0"
   style="stop-color:#FAFAFA"
   id="stop2" />
			<stop
   offset="0.3109"
   style="stop-color:#F4F4F4"
   id="stop4" />
			<stop
   offset="0.7262"
   style="stop-color:#E3E3E3"
   id="stop6" />
			<stop
   offset="1"
   style="stop-color:#D4D4D4"
   id="stop8" />
		</radialGradient>
		<path
   fill="url(#SVGID_1_)"
   stroke="#B3B3B3"
   stroke-width="2"
   d="M108.586,22.207v83.586c0,10.285-8.344,18.625-18.637,18.625    H37.856c-10.295,0-18.637-8.34-18.637-18.625V22.207c0-10.285,8.342-18.623,18.637-18.623h52.093    C100.242,3.584,108.586,11.922,108.586,22.207L108.586,22.207z"
   id="path11" />
		<path
   fill="#B3B3B3"
   d="M90.145,122.092H38.05c-10.295,0-18.637-8.34-18.637-18.625v2.326c0,10.285,8.342,18.625,18.637,18.625    h52.094c10.293,0,18.637-8.34,18.637-18.625v-2.326C108.781,113.752,100.438,122.092,90.145,122.092z"
   id="path13" />
		<path
   fill="#FFFFFF"
   d="M30.385,11.57c2.079-1.734,4.432-2.905,7.665-2.905h52.094c3.234,0,5.586,1.171,7.666,2.905h2.629    c-2.621-2.646-5.805-4.238-10.295-4.238H38.05c-4.489,0-7.673,1.593-10.294,4.238H30.385z"
   id="path15" />
	</g>
	<g
   id="g34">
		
			<linearGradient
   id="SVGID_2_"
   gradientUnits="userSpaceOnUse"
   x1="2828.1162"
   y1="6784.1426"
   x2="2828.1162"
   y2="6831.4639"
   gradientTransform="matrix(-1 0 0 -1 2912.6152 6900.8711)">
			<stop
   offset="0"
   style="stop-color:#C51015"
   id="stop19" />
			<stop
   offset="1"
   style="stop-color:#E20A16"
   id="stop21" />
		</linearGradient>
		
		
		
	</g>
<g
   transform="matrix(0.55629207,0,0,0.582514,34.644445,46.759015)"
   id="g68"><linearGradient
     id="linearGradient123"
     gradientUnits="userSpaceOnUse"
     x1="-9074.3027"
     y1="3717.3525"
     x2="-9074.3027"
     y2="3659.3359"
     gradientTransform="matrix(0.3308,-0.346,-0.3461,-0.3305,4354.2202,-1842.9312)"><stop
       offset="0"
       style="stop-color:#FFD207"
       id="stop119" /><stop
       offset="1"
       style="stop-color:#FAA61A"
       id="stop121" /></linearGradient><path
     style="fill:url(#SVGID_1_-3)"
     inkscape:connector-curvature="0"
     d="M 88.339,42.994 40.048,93.5 c 0.459,0.446 1.856,1.963 2.254,4.147 2.353,-0.19 4.978,0.612 5.613,1.207 2.26,2.165 1.544,5.828 1.544,5.828 0,0 4.164,-0.484 6.186,1.65 0.534,0.562 1.301,2.597 1.626,4.802 1.707,-0.04 3.441,2.02 3.824,2.507 l 48.308,-50.528 c 0.848,-0.884 0.818,-2.287 -0.067,-3.132 0,0 -1.986,-4.331 -8.209,-10.274 -6.223,-5.938 -9.655,-6.783 -9.655,-6.783 -0.885,-0.847 -2.287,-0.816 -3.133,0.07 z"
     id="path7" /><linearGradient
     id="linearGradient130"
     gradientUnits="userSpaceOnUse"
     x1="-8975.2715"
     y1="3689.0332"
     x2="-8974.8623"
     y2="3711.5046"
     gradientTransform="matrix(0.3308,-0.346,-0.3461,-0.3305,4354.2202,-1842.9312)"><stop
       offset="0"
       style="stop-color:#F66B87"
       id="stop126" /><stop
       offset="1"
       style="stop-color:#FCD0D9"
       id="stop128" /></linearGradient><path
     style="fill:url(#SVGID_2_-5)"
     inkscape:connector-curvature="0"
     d="M 101.446,29.281 91.002,40.205 c 0.228,0.225 6.521,4.049 11.693,8.984 5.136,4.904 9.161,10.915 9.354,11.156 L 122.513,49.4 c 2.706,-2.828 -1.515,-8.033 -7.737,-13.973 -6.222,-5.941 -11.166,-8.407 -13.33,-6.146 z"
     id="path14" /><linearGradient
     id="linearGradient137"
     gradientUnits="userSpaceOnUse"
     x1="-9161.8975"
     y1="3710.0469"
     x2="-9156.8564"
     y2="3688.2007"
     gradientTransform="matrix(0.3308,-0.346,-0.3461,-0.3305,4354.2202,-1842.9312)"><stop
       offset="0"
       style="stop-color:#FAEDB0"
       id="stop133" /><stop
       offset="1"
       style="stop-color:#FFC76E"
       id="stop135" /></linearGradient><path
     style="fill:url(#SVGID_3_)"
     inkscape:connector-curvature="0"
     d="m 61.177,113.744 c 0,0 -0.033,-0.038 -0.082,-0.103 l -0.17,0.172 z"
     id="path21" /><linearGradient
     id="linearGradient144"
     gradientUnits="userSpaceOnUse"
     x1="-9148.2402"
     y1="3711.7646"
     x2="-9143.3711"
     y2="3690.6648"
     gradientTransform="matrix(0.3308,-0.346,-0.3461,-0.3305,4354.2202,-1842.9312)"><stop
       offset="0"
       style="stop-color:#FAEDB0"
       id="stop140" /><stop
       offset="1"
       style="stop-color:#FFC76E"
       id="stop142" /></linearGradient><path
     style="fill:url(#SVGID_4_)"
     inkscape:connector-curvature="0"
     d="m 39.903,93.355 -0.095,0.396 0.238,-0.252 C 39.96,93.406 39.903,93.355 39.903,93.355 Z"
     id="path28" /><path
     style="fill:#f6921e"
     inkscape:connector-curvature="0"
     d="m 57.271,111.135 c -0.325,-2.205 -1.091,-4.244 -1.626,-4.802 -2.021,-2.135 -6.183,-1.653 -6.183,-1.653 0,0 0.716,-3.66 -1.547,-5.826 C 47.281,98.258 44.658,97.456 42.304,97.648 41.908,95.465 40.507,93.945 40.05,93.5 l -0.238,0.25 -0.996,4.05 c 0.028,0.036 0.052,0.075 0.083,0.104 l 17.86,17.064 c 0.02,0.017 0.04,0.022 0.059,0.038 l 4.108,-1.197 0.173,-0.172 c -0.385,-0.483 -2.118,-2.545 -3.828,-2.502 z"
     id="path30" /><linearGradient
     id="linearGradient152"
     gradientUnits="userSpaceOnUse"
     x1="-9166.7412"
     y1="3706.792"
     x2="-9164.1182"
     y2="3688.4363"
     gradientTransform="matrix(0.3308,-0.346,-0.3461,-0.3305,4354.2202,-1842.9312)"><stop
       offset="0"
       style="stop-color:#FAEDB0"
       id="stop148" /><stop
       offset="1"
       style="stop-color:#FFC76E"
       id="stop150" /></linearGradient><path
     style="fill:url(#SVGID_5_)"
     inkscape:connector-curvature="0"
     d="m 49.459,104.683 c 0,0 0.716,-3.663 -1.544,-5.828 -0.636,-0.595 -3.261,-1.397 -5.613,-1.207 -0.397,-2.182 -1.795,-3.701 -2.254,-4.147 l -0.238,0.252 -0.997,4.049 -2.431,9.861 -0.702,2.842 4.266,4.088 4.265,4.073 2.811,-0.813 9.793,-2.849 4.112,-1.2 0.173,-0.171 c -0.385,-0.487 -2.117,-2.549 -3.83,-2.507 -0.326,-2.204 -1.092,-4.24 -1.627,-4.799 -2.02,-2.129 -6.184,-1.644 -6.184,-1.644 z"
     id="path37" /><linearGradient
     id="linearGradient159"
     gradientUnits="userSpaceOnUse"
     x1="-9191.1582"
     y1="3691.1855"
     x2="-9194.4248"
     y2="3702.2107"
     gradientTransform="matrix(0.3308,-0.346,-0.3461,-0.3305,4354.2202,-1842.9312)"><stop
       offset="0"
       style="stop-color:#231F20"
       id="stop155" /><stop
       offset="1"
       style="stop-color:#FFFFFF"
       id="stop157" /></linearGradient><polygon
     style="fill:url(#SVGID_6_)"
     points="44.217,118.677 44.212,118.67 39.945,114.595 35.69,110.527 32.892,121.99 "
     id="polygon44" /><linearGradient
     id="linearGradient166"
     gradientUnits="userSpaceOnUse"
     x1="-8613.4053"
     y1="-2916.9795"
     x2="-8629.7734"
     y2="-2903.1089"
     gradientTransform="matrix(0.4786,-0.011,-0.0108,-0.4784,4194.1494,-1433.9998)"><stop
       offset="0"
       style="stop-color:#808080"
       id="stop162" /><stop
       offset="1"
       style="stop-color:#F2F2F2"
       id="stop164" /></linearGradient><path
     style="fill:url(#SVGID_7_)"
     inkscape:connector-curvature="0"
     d="m 91.091,40.021 -5.797,6.152 c 0.234,0.223 5.868,3.604 11.047,8.542 5.131,4.901 9.806,11.368 10.012,11.587 l 5.804,-6.158 c 0.388,-0.411 -3.542,-5.916 -9.763,-11.861 -6.218,-5.94 -10.916,-8.672 -11.303,-8.262 z"
     id="path51" /><g
     style="opacity:0.6"
     id="g55"><path
       style="fill:#fff8a2"
       inkscape:connector-curvature="0"
       d="M 103.246,30.653 43.198,93.547 c 0.293,0.561 0.551,1.213 0.684,1.948 0.98,-0.077 1.998,0.029 2.896,0.217 L 106.977,32.66 c -2.849,-2.462 -3.806,-2.056 -3.731,-2.007 z"
       id="path53" /></g><linearGradient
     id="linearGradient175"
     gradientUnits="userSpaceOnUse"
     x1="-2267.7051"
     y1="-261.66159"
     x2="-2267.7051"
     y2="-261.66159"
     gradientTransform="rotate(-16.744245,93.664865,-7931.336)"><stop
       offset="0"
       style="stop-color:#DEDEDE"
       id="stop171" /><stop
       offset="1"
       style="stop-color:#FEFEFE"
       id="stop173" /></linearGradient><path
     style="fill:url(#SVGID_8_);stroke:#181512;stroke-width:1.00059998;stroke-miterlimit:3.86369991"
     inkscape:connector-curvature="0"
     stroke-miterlimit="3.8637"
     d="M 42.05,93.455"
     id="path62" /><g
     style="opacity:0.6"
     id="g66"><path
       style="fill:#fff8a2"
       inkscape:connector-curvature="0"
       d="M 43.186,99.666 43.177,99.66 c -0.753,-0.109 -1.552,-0.163 -2.326,-0.099 -0.139,-0.755 -0.399,-1.425 -0.696,-2.002 l -0.118,-0.084 -6.06,22.489 z"
       id="path64" /></g></g></g>
</svg>