<?xml version="1.0" encoding="UTF-8" standalone="no"?>
<!-- Generator: Adobe Illustrator 13.0.0, SVG Export Plug-In . SVG Version: 6.00 Build 14948)  -->

<svg
   xmlns:dc="http://purl.org/dc/elements/1.1/"
   xmlns:cc="http://creativecommons.org/ns#"
   xmlns:rdf="http://www.w3.org/1999/02/22-rdf-syntax-ns#"
   xmlns:svg="http://www.w3.org/2000/svg"
   xmlns="http://www.w3.org/2000/svg"
   xmlns:sodipodi="http://sodipodi.sourceforge.net/DTD/sodipodi-0.dtd"
   xmlns:inkscape="http://www.inkscape.org/namespaces/inkscape"
   version="1.1"
   id="Layer_1"
   x="0px"
   y="0px"
   width="128px"
   height="128px"
   viewBox="0 0 128 128"
   enable-background="new 0 0 128 128"
   xml:space="preserve"
   sodipodi:docname="document-close.svg"
   inkscape:version="0.92.4 (5da689c313, 2019-01-14)"><metadata
   id="metadata43"><rdf:RDF><cc:Work
       rdf:about=""><dc:format>image/svg+xml</dc:format><dc:type
         rdf:resource="http://purl.org/dc/dcmitype/StillImage" /></cc:Work></rdf:RDF></metadata><defs
   id="defs41" /><sodipodi:namedview
   pagecolor="#ffffff"
   bordercolor="#666666"
   borderopacity="1"
   objecttolerance="10"
   gridtolerance="10"
   guidetolerance="10"
   inkscape:pageopacity="0"
   inkscape:pageshadow="2"
   inkscape:window-width="1366"
   inkscape:window-height="711"
   id="namedview39"
   showgrid="false"
   inkscape:zoom="1.84375"
   inkscape:cx="65.084746"
   inkscape:cy="61.830508"
   inkscape:window-x="0"
   inkscape:window-y="0"
   inkscape:window-maximized="1"
   inkscape:current-layer="g36" />
<g
   id="g36">
	<g
   id="g17">
		
			<radialGradient
   id="SVGID_1_"
   cx="63.9023"
   cy="64.002"
   r="53.1358"
   gradientTransform="matrix(1 0 0 1 0 -9.765625e-04)"
   gradientUnits="userSpaceOnUse">
			<stop
   offset="0"
   style="stop-color:#FAFAFA"
   id="stop2" />
			<stop
   offset="0.3109"
   style="stop-color:#F4F4F4"
   id="stop4" />
			<stop
   offset="0.7262"
   style="stop-color:#E3E3E3"
   id="stop6" />
			<stop
   offset="1"
   style="stop-color:#D4D4D4"
   id="stop8" />
		</radialGradient>
		<path
   fill="url(#SVGID_1_)"
   stroke="#B3B3B3"
   stroke-width="2"
   d="M108.586,22.207v83.586c0,10.285-8.344,18.625-18.637,18.625    H37.856c-10.295,0-18.637-8.34-18.637-18.625V22.207c0-10.285,8.342-18.623,18.637-18.623h52.093    C100.242,3.584,108.586,11.922,108.586,22.207L108.586,22.207z"
   id="path11" />
		<path
   fill="#B3B3B3"
   d="M90.145,122.092H38.05c-10.295,0-18.637-8.34-18.637-18.625v2.326c0,10.285,8.342,18.625,18.637,18.625    h52.094c10.293,0,18.637-8.34,18.637-18.625v-2.326C108.781,113.752,100.438,122.092,90.145,122.092z"
   id="path13" />
		<path
   fill="#FFFFFF"
   d="M30.385,11.57c2.079-1.734,4.432-2.905,7.665-2.905h52.094c3.234,0,5.586,1.171,7.666,2.905h2.629    c-2.621-2.646-5.805-4.238-10.295-4.238H38.05c-4.489,0-7.673,1.593-10.294,4.238H30.385z"
   id="path15" />
	</g>
	<g
   id="g34">
		
			<linearGradient
   id="SVGID_2_"
   gradientUnits="userSpaceOnUse"
   x1="2828.1162"
   y1="6784.1426"
   x2="2828.1162"
   y2="6831.4639"
   gradientTransform="matrix(-1 0 0 -1 2912.6152 6900.8711)">
			<stop
   offset="0"
   style="stop-color:#C51015"
   id="stop19" />
			<stop
   offset="1"
   style="stop-color:#E20A16"
   id="stop21" />
		</linearGradient>
		
		
		
	</g>
<g
   id="g245"
   transform="matrix(0.41294633,0,0,0.42681373,54.181531,8.0226686)">
	<linearGradient
   y2="122.4702"
   x2="63.8354"
   y1="5.1357002"
   x1="63.8354"
   gradientUnits="userSpaceOnUse"
   id="SVGID_1_-6">
		<stop
   id="stop223"
   style="stop-color:#E20A16"
   offset="0" />
		<stop
   id="stop225"
   style="stop-color:#B51015"
   offset="1" />
	</linearGradient>
	<circle
   style="fill:url(#SVGID_1_-6)"
   id="circle228"
   r="58.667"
   cy="63.801998"
   cx="63.835999" />
	<g
   id="g241">
		
			<radialGradient
   gradientUnits="userSpaceOnUse"
   gradientTransform="matrix(0.918,0,0,-0.918,655.9629,-209.7077)"
   r="34.5732"
   cy="-297.92679"
   cx="-644.9873"
   id="SVGID_2_-7">
			<stop
   id="stop230"
   style="stop-color:#FAFAFA"
   offset="0" />
			<stop
   id="stop232"
   style="stop-color:#F4F4F4"
   offset="0.3109" />
			<stop
   id="stop234"
   style="stop-color:#E3E3E3"
   offset="0.7262" />
			<stop
   id="stop236"
   style="stop-color:#D4D4D4"
   offset="1" />
		</radialGradient>
		<path
   style="fill:url(#SVGID_2_-7)"
   id="path239"
   d="M 51.201,36.315 63.834,48.961 76.473,36.315 c 4.98,-4.985 12.338,-5.703 16.436,-1.604 4.094,4.098 3.377,11.461 -1.605,16.444 L 78.668,63.802 91.303,76.446 c 4.982,4.986 5.697,12.35 1.602,16.445 -4.096,4.102 -11.453,3.382 -16.434,-1.602 L 63.834,78.645 51.199,91.29 c -4.98,4.983 -12.34,5.701 -16.434,1.604 -4.096,-4.098 -3.379,-11.461 1.602,-16.446 L 49.004,63.802 36.369,51.158 c -4.98,-4.984 -5.699,-12.347 -1.602,-16.445 4.094,-4.1 11.454,-3.381 16.434,1.602 z"
   inkscape:connector-curvature="0" />
	</g>
	<path
   id="path243"
   d="M 16.213,38.175 C 26.939,22.558 45.656,9.757 64.09,9.757 c 18.434,0 36.65,12.801 47.373,28.418 h 2.039 C 102.135,19.793 84.688,6.934 63.84,6.934 42.986,6.934 25.539,19.793 14.17,38.175 Z"
   inkscape:connector-curvature="0"
   style="opacity:0.5;fill:#ffffff" />
</g></g>
</svg>