<?xml version="1.0" encoding="UTF-8" standalone="no"?>
<!-- Generator: Adobe Illustrator 13.0.0, SVG Export Plug-In . SVG Version: 6.00 Build 14948)  -->

<svg
   xmlns:dc="http://purl.org/dc/elements/1.1/"
   xmlns:cc="http://creativecommons.org/ns#"
   xmlns:rdf="http://www.w3.org/1999/02/22-rdf-syntax-ns#"
   xmlns:svg="http://www.w3.org/2000/svg"
   xmlns="http://www.w3.org/2000/svg"
   xmlns:sodipodi="http://sodipodi.sourceforge.net/DTD/sodipodi-0.dtd"
   xmlns:inkscape="http://www.inkscape.org/namespaces/inkscape"
   version="1.1"
   id="Layer_1"
   x="0px"
   y="0px"
   width="128px"
   height="128px"
   viewBox="0 0 128 128"
   enable-background="new 0 0 128 128"
   xml:space="preserve"
   sodipodi:docname="im-ban-user.svg"
   inkscape:version="0.92.4 (5da689c313, 2019-01-14)"><metadata
   id="metadata91"><rdf:RDF><cc:Work
       rdf:about=""><dc:format>image/svg+xml</dc:format><dc:type
         rdf:resource="http://purl.org/dc/dcmitype/StillImage" /></cc:Work></rdf:RDF></metadata><defs
   id="defs89"><linearGradient
   id="SVGID_1_-3"
   gradientUnits="userSpaceOnUse"
   x1="63.8354"
   y1="5.1357002"
   x2="63.8354"
   y2="122.4702"><stop
     offset="0"
     style="stop-color:#E20A16"
     id="stop2" /><stop
     offset="1"
     style="stop-color:#B51015"
     id="stop4-6" /></linearGradient><radialGradient
   id="SVGID_2_-7"
   cx="-644.9873"
   cy="-297.92679"
   r="34.5732"
   gradientTransform="matrix(0.918,0,0,-0.918,655.9629,-209.7077)"
   gradientUnits="userSpaceOnUse"><stop
     offset="0"
     style="stop-color:#FAFAFA"
     id="stop9" /><stop
     offset="0.3109"
     style="stop-color:#F4F4F4"
     id="stop11" /><stop
     offset="0.7262"
     style="stop-color:#E3E3E3"
     id="stop13-5" /><stop
     offset="1"
     style="stop-color:#D4D4D4"
     id="stop15-3" /></radialGradient><linearGradient
   id="SVGID_1_-3-3"
   gradientUnits="userSpaceOnUse"
   x1="63.9995"
   y1="5.3330002"
   x2="63.9995"
   y2="122.6675"><stop
     offset="0"
     style="stop-color:#E20A16"
     id="stop2-6" /><stop
     offset="1"
     style="stop-color:#B51015"
     id="stop4-6-7" /></linearGradient><radialGradient
   id="SVGID_2_-7-5"
   cx="-348.62009"
   cy="877.99219"
   r="33.347698"
   gradientTransform="translate(412.6201,-813.9912)"
   gradientUnits="userSpaceOnUse"><stop
     offset="0"
     style="stop-color:#FAFAFA"
     id="stop11-3" /><stop
     offset="0.3109"
     style="stop-color:#F4F4F4"
     id="stop13-5-5" /><stop
     offset="0.7262"
     style="stop-color:#E3E3E3"
     id="stop15-3-6" /><stop
     offset="1"
     style="stop-color:#D4D4D4"
     id="stop17-5" /></radialGradient>
	
	<radialGradient
   gradientUnits="userSpaceOnUse"
   r="31.4116"
   cy="90.626"
   cx="37.4287"
   id="SVGID_1_">
		<stop
   id="stop4"
   style="stop-color:#FAFAFA"
   offset="0" />
		<stop
   id="stop6"
   style="stop-color:#E5E5E5"
   offset="0.3629" />
		<stop
   id="stop8"
   style="stop-color:#C4C4C4"
   offset="1" />
	</radialGradient>
	
	<radialGradient
   gradientUnits="userSpaceOnUse"
   r="24.3657"
   cy="34.3667"
   cx="38.1094"
   id="SVGID_2_">
		<stop
   id="stop13"
   style="stop-color:#FAFAFA"
   offset="0" />
		<stop
   id="stop15"
   style="stop-color:#E3E3E3"
   offset="0.4142" />
		<stop
   id="stop17"
   style="stop-color:#C7C7C7"
   offset="1" />
	</radialGradient>
	
	<linearGradient
   y2="34.6763"
   x2="49.1113"
   y1="21.9741"
   x1="49.1113"
   gradientUnits="userSpaceOnUse"
   id="SVGID_3_">
		<stop
   id="stop22"
   style="stop-color:#5F5D5C"
   offset="0" />
		<stop
   id="stop24"
   style="stop-color:#181500"
   offset="1" />
	</linearGradient>
	
	
	
	<linearGradient
   y2="43.2007"
   x2="38.2402"
   y1="54.0708"
   x1="38.2402"
   gradientUnits="userSpaceOnUse"
   id="SVGID_4_">
		<stop
   id="stop33"
   style="stop-color:#5F5D5C"
   offset="0" />
		<stop
   id="stop35"
   style="stop-color:#181500"
   offset="1" />
	</linearGradient>
	
	
	
	

		<radialGradient
   id="SVGID_5_"
   cx="90.569298"
   cy="90.624001"
   r="31.4121"
   gradientUnits="userSpaceOnUse">
			<stop
   offset="0"
   style="stop-color:#FAFAFA"
   id="stop40" />
			<stop
   offset="0.3629"
   style="stop-color:#E5E5E5"
   id="stop42" />
			<stop
   offset="1"
   style="stop-color:#C4C4C4"
   id="stop44" />
		</radialGradient>
		
		<radialGradient
   id="SVGID_6_"
   cx="90.568398"
   cy="34.366699"
   r="24.3657"
   gradientUnits="userSpaceOnUse">
			<stop
   offset="0"
   style="stop-color:#FAFAFA"
   id="stop49" />
			<stop
   offset="0.4142"
   style="stop-color:#E3E3E3"
   id="stop51" />
			<stop
   offset="1"
   style="stop-color:#C7C7C7"
   id="stop53" />
		</radialGradient>
		
		<linearGradient
   id="SVGID_7_"
   gradientUnits="userSpaceOnUse"
   x1="81.337898"
   y1="21.9741"
   x2="81.337898"
   y2="34.6763">
			<stop
   offset="0"
   style="stop-color:#5F5D5C"
   id="stop58" />
			<stop
   offset="1"
   style="stop-color:#181500"
   id="stop60" />
		</linearGradient>
		
		
		
		<linearGradient
   id="SVGID_8_"
   gradientUnits="userSpaceOnUse"
   x1="71.3545"
   y1="48.6357"
   x2="109.7822"
   y2="48.6357">
			<stop
   offset="0"
   style="stop-color:#5F5D5C"
   id="stop69" />
			<stop
   offset="1"
   style="stop-color:#181500"
   id="stop71" />
		</linearGradient>
		
		
	</defs><sodipodi:namedview
   pagecolor="#ffffff"
   bordercolor="#666666"
   borderopacity="1"
   objecttolerance="10"
   gridtolerance="10"
   guidetolerance="10"
   inkscape:pageopacity="0"
   inkscape:pageshadow="2"
   inkscape:window-width="640"
   inkscape:window-height="480"
   id="namedview87"
   showgrid="false"
   inkscape:zoom="1.84375"
   inkscape:cx="66.169492"
   inkscape:cy="59.661016"
   inkscape:window-x="0"
   inkscape:window-y="0"
   inkscape:window-maximized="0"
   inkscape:current-layer="Layer_1" />
<path
   style="fill:#f2f2f2"
   inkscape:connector-curvature="0"
   id="path2"
   d="m 5.989,67.436 c 1.278,-0.795 2.783,-1.258 4.397,-1.258 H 64.58 c 1.596,0 3.087,0.452 4.356,1.229 l 0.642,-0.58 C 68.136,65.889 66.424,65.339 64.58,65.339 H 10.387 c -1.838,0 -3.544,0.547 -4.98,1.478 z" /><path
   inkscape:connector-curvature="0"
   style="fill:url(#SVGID_1_);stroke:#808080"
   id="path11"
   d="M 30.125,112.878 4.578,75.105 C 0.627,68.582 2.338,63.242 8.379,63.242 h 58.358 c 6.04,0 7.487,4.99 3.216,11.086 l -24.88,39.325 c -4.27,6.099 -10.998,5.749 -14.948,-0.775 z" /><path
   inkscape:connector-curvature="0"
   style="fill:url(#SVGID_2_);stroke:#808080"
   id="path20"
   d="m 13.752,34.368 c 0,-13.463 10.905,-24.375 24.358,-24.375 13.451,0 24.356,10.912 24.356,24.375 0,13.461 -10.905,24.373 -24.356,24.373 -13.453,0 -24.358,-10.912 -24.358,-24.373 z" /><path
   style="fill:#f2f2f2"
   inkscape:connector-curvature="0"
   id="path31"
   d="m 20.424,21.745 c 4.067,-5.584 11.546,-9.862 18.537,-9.862 6.99,0 14.277,4.278 18.344,9.862 h 0.773 C 53.767,15.173 46.771,10.872 38.865,10.872 c -7.908,0 -14.905,4.301 -19.215,10.873 z" /><path
   d="m 97.874,68.371 25.547,37.774 c 3.95,6.524 2.24,11.862 -3.802,11.862 H 61.262 c -6.039,0 -7.488,-4.989 -3.217,-11.088 l 24.88,-39.323 c 4.271,-6.098 10.998,-5.749 14.949,0.775 z"
   id="path47"
   style="fill:url(#SVGID_5_);stroke:#808080"
   inkscape:connector-curvature="0" /><path
   d="m 66.211,34.368 c 0,-13.463 10.906,-24.375 24.357,-24.375 13.451,0 24.357,10.912 24.357,24.375 0,13.461 -10.906,24.373 -24.357,24.373 -13.451,0 -24.357,-10.912 -24.357,-24.373 z"
   id="path56"
   style="fill:url(#SVGID_6_);stroke:#808080"
   inkscape:connector-curvature="0" /><path
   d="m 72.127,21.745 c 4.068,-5.584 11.547,-9.862 18.537,-9.862 6.99,0 14.277,4.278 18.345,9.862 h 0.773 C 105.471,15.173 98.475,10.872 90.569,10.872 c -7.908,0 -14.904,4.301 -19.215,10.873 z"
   id="path67"
   inkscape:connector-curvature="0"
   style="fill:#f2f2f2" /><path
   d="m 70.389,113.976 c 0,-18.52 14.197,-33.716 32.303,-35.315 L 97.231,70.587 C 93.54,64.492 87.253,64.165 83.262,69.865 l -23.246,36.742 c -3.991,5.696 -2.639,10.359 3.006,10.359 h 7.501 c -0.084,-0.988 -0.134,-1.982 -0.134,-2.99 z"
   id="path76"
   inkscape:connector-curvature="0"
   style="opacity:0.5;fill:#ffffff" /><path
   style="fill:#bfbfbf"
   inkscape:connector-curvature="0"
   id="path80"
   d="m 69.219,69.728 c -0.02,1.278 -0.377,2.567 -1.119,3.722 l -24.858,38.74 c -0.73,1.141 -1.738,1.999 -2.877,2.55 l 0.121,0.727 c 1.33,-0.601 2.51,-1.573 3.355,-2.891 L 68.7,73.835 c 0.842,-1.312 1.233,-2.785 1.229,-4.239 z" /><path
   style="opacity:0.5;fill:#ffffff"
   inkscape:connector-curvature="0"
   id="path82"
   d="m 10.821,82.086 c 7.245,-5.72 16.386,-9.143 26.332,-9.143 9.8,0 18.815,3.322 26.007,8.889 l 4.379,-6.917 c 3.99,-5.697 2.636,-10.356 -3.006,-10.356 h -54.52 c -5.645,0 -7.242,4.986 -3.551,11.08 z" />
<g
   transform="matrix(0.65176047,0,0,0.66422169,24.49833,14.008277)"
   id="g26"><linearGradient
     id="linearGradient55"
     gradientUnits="userSpaceOnUse"
     x1="63.9995"
     y1="5.3330002"
     x2="63.9995"
     y2="122.6675"><stop
       offset="0"
       style="stop-color:#E20A16"
       id="stop51-6" /><stop
       offset="1"
       style="stop-color:#B51015"
       id="stop53-2" /></linearGradient><circle
     style="fill:url(#SVGID_1_-3-3)"
     cx="64"
     cy="63.999001"
     r="58.667"
     id="circle7" /><path
     style="opacity:0.5;fill:#ffffff"
     inkscape:connector-curvature="0"
     d="M 16.377,38.372 C 27.104,22.755 45.82,9.954 64.254,9.954 c 18.434,0 36.65,12.801 47.373,28.418 h 2.039 C 102.299,19.99 84.852,7.131 64.004,7.131 43.15,7.131 25.703,19.99 14.334,38.372 Z"
     id="path9" /><g
     id="g24"><g
       id="g22"><radialGradient
         id="radialGradient67"
         cx="-348.62009"
         cy="877.99219"
         r="33.347698"
         gradientTransform="translate(412.6201,-813.9912)"
         gradientUnits="userSpaceOnUse"><stop
           offset="0"
           style="stop-color:#FAFAFA"
           id="stop59" /><stop
           offset="0.3109"
           style="stop-color:#F4F4F4"
           id="stop61" /><stop
           offset="0.7262"
           style="stop-color:#E3E3E3"
           id="stop63" /><stop
           offset="1"
           style="stop-color:#D4D4D4"
           id="stop65" /></radialGradient><path
         style="fill:url(#SVGID_2_-7-5)"
         inkscape:connector-curvature="0"
         d="m 64,30.652 c -18.417,0 -33.348,14.932 -33.348,33.35 0,18.416 14.931,33.346 33.348,33.346 18.418,0 33.348,-14.93 33.348,-33.346 0,-18.418 -14.93,-33.35 -33.348,-33.35 z m 0,12.619 c 3.46,0 6.716,0.859 9.583,2.359 L 45.632,73.582 C 44.133,70.715 43.274,67.461 43.274,64.002 43.273,52.553 52.553,43.271 64,43.271 Z m 0,41.458 c -3.46,0 -6.715,-0.857 -9.582,-2.357 L 82.369,54.42 c 1.499,2.867 2.357,6.123 2.357,9.582 C 84.729,75.447 75.447,84.729 64,84.729 Z"
         id="path20-9" /></g></g></g></svg>