<?xml version="1.0" encoding="UTF-8" standalone="no"?>
<!-- Generator: Adobe Illustrator 13.0.0, SVG Export Plug-In . SVG Version: 6.00 Build 14948)  -->

<svg
   xmlns:dc="http://purl.org/dc/elements/1.1/"
   xmlns:cc="http://creativecommons.org/ns#"
   xmlns:rdf="http://www.w3.org/1999/02/22-rdf-syntax-ns#"
   xmlns:svg="http://www.w3.org/2000/svg"
   xmlns="http://www.w3.org/2000/svg"
   xmlns:sodipodi="http://sodipodi.sourceforge.net/DTD/sodipodi-0.dtd"
   xmlns:inkscape="http://www.inkscape.org/namespaces/inkscape"
   version="1.1"
   id="Layer_1"
   x="0px"
   y="0px"
   width="128px"
   height="128px"
   viewBox="0 0 128 128"
   enable-background="new 0 0 128 128"
   xml:space="preserve"
   sodipodi:docname="im-invisible-user.svg"
   inkscape:version="0.92.4 (5da689c313, 2019-01-14)"><metadata
   id="metadata64"><rdf:RDF><cc:Work
       rdf:about=""><dc:format>image/svg+xml</dc:format><dc:type
         rdf:resource="http://purl.org/dc/dcmitype/StillImage" /></cc:Work></rdf:RDF></metadata><defs
   id="defs62">
	
	
		<radialGradient
   gradientUnits="userSpaceOnUse"
   gradientTransform="matrix(1,0,0,-1,289.2754,151.834)"
   r="36.3303"
   cy="57.1865"
   cx="-225.8306"
   id="SVGID_1_">
		<stop
   id="stop4"
   style="stop-color:#FAFAFA"
   offset="0" />
		<stop
   id="stop6"
   style="stop-color:#E5E5E5"
   offset="0.3629" />
		<stop
   id="stop8"
   style="stop-color:#C4C4C4"
   offset="1" />
	</radialGradient>
	
	
		<radialGradient
   gradientUnits="userSpaceOnUse"
   gradientTransform="matrix(1,0,0,-1,289.2754,151.834)"
   r="28.1812"
   cy="122.2529"
   cx="-225.043"
   id="SVGID_2_">
		<stop
   id="stop13"
   style="stop-color:#FAFAFA"
   offset="0" />
		<stop
   id="stop15"
   style="stop-color:#E3E3E3"
   offset="0.4142" />
		<stop
   id="stop17"
   style="stop-color:#C7C7C7"
   offset="1" />
	</radialGradient>
	
	
		<linearGradient
   gradientTransform="matrix(1,0,0,-1,289.2754,151.834)"
   y2="121.8965"
   x2="-212.3188"
   y1="136.5859"
   x1="-212.3188"
   gradientUnits="userSpaceOnUse"
   id="SVGID_3_">
		<stop
   id="stop22"
   style="stop-color:#80C11B"
   offset="0" />
		<stop
   id="stop24"
   style="stop-color:#80E21B"
   offset="1" />
	</linearGradient>
	
	
	
	
		<linearGradient
   gradientTransform="matrix(1,0,0,-1,289.2754,151.834)"
   y2="112.0361"
   x2="-224.8896"
   y1="99.4629"
   x1="-224.8896"
   gradientUnits="userSpaceOnUse"
   id="SVGID_4_">
		<stop
   id="stop33"
   style="stop-color:#00B2DE"
   offset="0" />
		<stop
   id="stop35"
   style="stop-color:#99DBF6"
   offset="1" />
	</linearGradient>
	
	
	
	

		
			<linearGradient
   id="SVGID_5_"
   gradientUnits="userSpaceOnUse"
   x1="-336.62601"
   y1="917.42578"
   x2="-361.72449"
   y2="899.85162"
   gradientTransform="translate(412.6201,-813.9912)">
			<stop
   offset="0"
   style="stop-color:#80C11B"
   id="stop44" />
			<stop
   offset="1"
   style="stop-color:#80E21B"
   id="stop46" />
		</linearGradient>
		
		
	</defs><sodipodi:namedview
   pagecolor="#ffffff"
   bordercolor="#666666"
   borderopacity="1"
   objecttolerance="10"
   gridtolerance="10"
   guidetolerance="10"
   inkscape:pageopacity="0"
   inkscape:pageshadow="2"
   inkscape:window-width="640"
   inkscape:window-height="480"
   id="namedview60"
   showgrid="false"
   inkscape:zoom="2.6074563"
   inkscape:cx="60.022658"
   inkscape:cy="62.199331"
   inkscape:window-x="0"
   inkscape:window-y="0"
   inkscape:window-maximized="0"
   inkscape:current-layer="Layer_1" />

<g
   id="g126"><g
     id="g101"><g
       id="g77"><path
         d="m 27.083,67.825 c 1.476,-0.917 3.219,-1.452 5.084,-1.452 h 62.681 c 1.846,0 3.571,0.523 5.039,1.422 l 0.741,-0.672 C 98.961,66.039 96.981,65.402 94.849,65.402 H 32.167 c -2.125,0 -4.099,0.633 -5.759,1.707 z"
         id="path2"
         inkscape:connector-curvature="0"
         style="fill:#f2f2f2" /><path
         d="M 54.997,120.386 25.449,76.699 C 20.879,69.154 22.86,62.977 29.846,62.977 h 67.498 c 6.984,0 8.658,5.771 3.718,12.824 l -28.774,45.482 c -4.94,7.051 -12.721,6.648 -17.291,-0.897 z"
         id="path11"
         style="fill:url(#SVGID_1_);stroke:#808080"
         inkscape:connector-curvature="0" /><path
         d="m 36.061,29.581 c 0,-15.569 12.614,-28.191 28.173,-28.191 15.559,0 28.169,12.622 28.169,28.191 0,15.571 -12.61,28.192 -28.169,28.192 C 48.675,57.771 36.061,45.152 36.061,29.581 Z"
         id="path20"
         style="fill:url(#SVGID_2_);stroke:#808080"
         inkscape:connector-curvature="0" /><path
         d="M 43.777,14.981 C 48.482,8.523 57.131,3.574 65.216,3.574 c 8.085,0 16.515,4.95 21.218,11.408 h 0.894 C 82.344,7.382 74.251,2.407 65.108,2.407 c -9.147,0 -17.24,4.975 -22.226,12.575 h 0.895 z"
         id="path31"
         inkscape:connector-curvature="0"
         style="fill:#f2f2f2" /><path
         d="m 100.212,70.477 c -0.022,1.48 -0.436,2.971 -1.293,4.306 l -28.749,44.81 c -0.846,1.319 -2.012,2.311 -3.329,2.949 l 0.14,0.838 c 1.539,-0.692 2.904,-1.818 3.882,-3.342 L 99.614,75.229 c 0.975,-1.518 1.426,-3.221 1.422,-4.903 z"
         id="path40"
         inkscape:connector-curvature="0"
         style="fill:#bfbfbf" /><path
         enable-background="new    "
         d="m 32.672,84.771 c 8.379,-6.614 18.95,-10.572 30.456,-10.572 11.333,0 21.76,3.841 30.076,10.279 l 5.064,-8.001 c 4.615,-6.588 3.051,-11.978 -3.474,-11.978 H 31.737 c -6.53,0 -8.376,5.769 -4.108,12.815 z"
         id="path42"
         inkscape:connector-curvature="0"
         style="opacity:0.5;fill:#ffffff" /><g
         style="opacity:0.5"
         id="g53">
			<path
   style="fill:#ffffff"
   inkscape:connector-curvature="0"
   id="path51"
   d="m 63.523,78.611 c 2,0 3.622,1.973 3.622,4.406 v -0.686 c 0,-2.435 -1.622,-4.406 -3.622,-4.406 -2,0 -3.62,1.974 -3.62,4.406 v 0.686 c 0,-2.433 1.62,-4.406 3.62,-4.406 z" />
		</g><path
         inkscape:connector-curvature="0"
         id="path69"
         d="M 57.711164,110.62587 C 50.113291,107.91446 45.259681,99.651047 46.697275,91.874388 48.079754,84.395871 53.887498,78.825213 61.45779,77.716433 c 3.071693,-0.449894 8.258633,0.779448 11.246239,2.665441 8.830341,5.574349 10.230856,18.250127 2.872364,25.997186 -4.455081,4.69034 -11.757857,6.42631 -17.865229,4.24681 z m 8.938625,-12.659396 c 2.830906,-2.659498 0.755695,-8.04105 -3.100755,-8.04105 -2.002671,0 -4.864288,2.543886 -4.864288,4.324196 0,1.443487 1.376602,4.164155 2.293673,4.533136 1.745588,0.702332 4.47269,0.309819 5.67137,-0.816282 z"
         style="fill:#f2f2f2;fill-opacity:1;stroke:#1a1a1a;stroke-width:0.0119322;stroke-miterlimit:4;stroke-dasharray:none;stroke-opacity:1" /><path
         inkscape:connector-curvature="0"
         id="path73"
         d="M 29.916477,80.400546 C 26.497975,75.334545 25.6,73.249034 25.6,70.3757 c 0,-2.982766 2.113825,-5.166899 5.471145,-5.653119 1.316294,-0.190631 16.714553,-0.272553 34.218352,-0.182049 31.307379,0.161876 31.849784,0.182994 33.343024,1.298193 2.980019,2.225576 2.657969,5.21866 -1.252545,11.641161 -1.445088,2.37336 -3.030872,4.850259 -3.52396,5.504219 L 92.95949,84.173122 90.829131,82.763317 C 79.02144,74.949356 63.558978,72.474515 49.735593,76.186097 45.689016,77.272604 38.417333,80.58636 35.156419,82.829929 l -2.458981,1.691823 z"
         style="fill:#e6e6e6;fill-opacity:1;stroke:#1a1a1a;stroke-width:0.0119322;stroke-miterlimit:4;stroke-dasharray:none;stroke-opacity:1" /><path
         inkscape:connector-curvature="0"
         id="path75"
         d="m 61.07723,120.70804 c -1.547714,-0.18916 -3.205864,-0.50186 -4.529582,-0.85421 -1.283599,-0.34168 -1.518144,-0.47479 -1.927264,-1.09376 -0.256195,-0.38761 -3.013616,-4.4584 -6.127603,-9.04621 C 37.948794,94.179514 37.395145,93.319744 37.395145,92.480179 c 0,-1.971184 1.099324,-6.17161 2.289351,-8.747417 0.949267,-2.054684 2.623323,-4.65112 3.095427,-4.80096 0.207421,-0.06583 0.31566,-0.212177 0.243404,-0.329091 -0.08375,-0.135507 -0.01559,-0.16659 0.191245,-0.08722 0.405695,0.155679 1.304611,-0.239602 1.142262,-0.502289 -0.0736,-0.119085 0.0042,-0.148137 0.19777,-0.07386 0.391969,0.150413 0.93125,-0.03422 0.78607,-0.269124 -0.102486,-0.165826 0.312673,-0.254857 0.846632,-0.18156 0.160321,0.02201 0.203115,-0.05478 0.112362,-0.201624 -0.101701,-0.164555 -0.05054,-0.200315 0.167111,-0.116796 0.361062,0.138552 1.475043,-0.202396 1.475043,-0.451456 0,-0.09184 0.129437,-0.117312 0.287637,-0.0566 0.1582,0.06071 0.287637,0.009 0.287637,-0.11482 0,-0.142355 0.149914,-0.177615 0.407529,-0.09585 0.292626,0.09288 0.366955,0.06369 0.263623,-0.1035 -0.103332,-0.167195 -0.029,-0.196377 0.263623,-0.103501 0.252104,0.08001 0.407529,0.04635 0.407529,-0.08826 0,-0.134612 0.155425,-0.168272 0.407529,-0.08826 0.298496,0.09474 0.3678,0.06506 0.259036,-0.110924 -0.111054,-0.179689 -0.02041,-0.208121 0.359501,-0.112769 0.305136,0.07658 0.507996,0.04801 0.507996,-0.07157 0,-0.119571 0.20286,-0.148149 0.507996,-0.07157 0.379876,0.09534 0.47055,0.06691 0.359525,-0.112731 -0.113161,-0.1831 -2.51e-4,-0.207675 0.474784,-0.10334 0.477466,0.104869 0.588239,0.08024 0.473567,-0.105307 -0.113676,-0.183931 -0.0041,-0.213083 0.455405,-0.121178 0.385571,0.07711 0.60509,0.04449 0.60509,-0.08992 0,-0.132099 0.215001,-0.167933 0.575273,-0.09588 0.360982,0.0722 0.575273,0.03628 0.575273,-0.09642 0,-0.139321 0.261699,-0.169625 0.767031,-0.08882 0.513708,0.08214 0.767031,0.05128 0.767031,-0.09346 0,-0.150096 0.322194,-0.175864 1.054668,-0.08435 0.610183,0.07624 1.054668,0.05736 1.054668,-0.04479 0,-0.101599 1.584331,-0.175755 3.731497,-0.174656 2.160153,0.0011 3.686608,0.07454 3.624903,0.174382 -0.062,0.100319 0.38247,0.117141 1.062447,0.04021 0.762431,-0.08626 1.169042,-0.0633 1.169042,0.06602 0,0.121852 0.306967,0.157106 0.796385,0.09146 0.596374,-0.07999 0.760193,-0.04826 0.652277,0.126356 -0.108005,0.174757 0.02876,0.200743 0.545919,0.103724 0.448167,-0.08408 0.690027,-0.05644 0.690027,0.07885 0,0.129179 0.218522,0.164601 0.575274,0.09325 0.371013,-0.0742 0.575273,-0.03716 0.575273,0.104327 0,0.138253 0.177282,0.174886 0.479394,0.09906 0.299033,-0.07505 0.479395,-0.03898 0.479395,0.09588 0,0.138105 0.183495,0.170145 0.507995,0.0887 0.366367,-0.09195 0.468811,-0.0641 0.367448,0.09991 -0.100957,0.163354 -9.59e-4,0.192383 0.354915,0.103057 0.322362,-0.08091 0.495462,-0.04558 0.495462,0.101115 0,0.142633 0.149724,0.177948 0.407529,0.09612 0.298496,-0.09474 0.367799,-0.06506 0.259036,0.110924 -0.111572,0.180527 -0.0182,0.207564 0.375569,0.108736 0.370969,-0.09311 0.484344,-0.06727 0.388103,0.08846 -0.09392,0.151968 -0.01,0.179994 0.271569,0.09064 0.252104,-0.08001 0.407529,-0.04635 0.407529,0.08826 0,0.134611 0.155426,0.168271 0.40753,0.08826 0.292626,-0.09288 0.366955,-0.06369 0.263622,0.1035 -0.104525,0.169126 -0.02581,0.195364 0.287637,0.09588 0.313449,-0.09949 0.392162,-0.07325 0.287637,0.09588 -0.104525,0.169126 -0.02581,0.195364 0.287636,0.09588 0.29398,-0.09331 0.389717,-0.06929 0.300333,0.07533 -0.130159,0.210604 0.216142,0.303139 0.909293,0.242972 0.208954,-0.01814 0.294653,0.05414 0.215683,0.181918 -0.08917,0.144284 0.0068,0.168259 0.300511,0.07505 0.270912,-0.08598 0.387326,-0.06542 0.312752,0.05524 -0.15537,0.251396 0.365099,0.446338 0.773372,0.289668 0.200105,-0.07679 0.272022,-0.04628 0.19286,0.0818 -0.161368,0.261098 0.34844,0.461918 0.765929,0.301712 0.190273,-0.07301 0.271059,-0.04473 0.200111,0.07007 -0.06544,0.105886 0.360499,0.391254 0.946531,0.634152 0.868492,0.359969 1.181316,0.622926 1.691755,1.422068 1.46692,2.296614 2.672646,5.086828 3.357862,7.770553 l 0.397537,1.556998 -1.952869,3.113238 C 84.517928,97.207891 73.992869,113.59769 71.654667,117.13864 l -1.927156,2.91846 -0.96938,0.19901 c -2.426786,0.49821 -5.717837,0.69185 -7.680901,0.45193 z m 6.903279,-9.94513 c 0.949201,-0.28575 1.833684,-0.52363 1.965518,-0.52862 0.131833,-0.005 0.239697,-0.081 0.239697,-0.16887 0,-0.0879 0.09869,-0.1598 0.219305,-0.1598 0.120618,0 0.961955,-0.44326 1.869639,-0.98502 3.826664,-2.28401 6.658067,-6.41004 7.603487,-11.08011 0.437733,-2.162255 0.302367,-6.016005 -0.282239,-8.03511 -0.9852,-3.402677 -2.961722,-6.343639 -5.706356,-8.490758 -0.402375,-0.314777 -0.861027,-0.678811 -1.019227,-0.808965 -0.158201,-0.130154 -0.350321,-0.260448 -0.426932,-0.289542 -0.07661,-0.02909 -0.699281,-0.306809 -1.383709,-0.617143 -1.862161,-0.844345 -4.373396,-1.516879 -6.599462,-1.767405 -1.798134,-0.202365 -2.170384,-0.185791 -3.931035,0.175023 -6.675466,1.368018 -11.722675,6.098163 -13.473795,12.627375 -0.505973,1.886565 -0.505973,6.167261 0,8.053826 1.467693,5.472429 5.709731,10.156759 10.761947,11.884029 1.96369,0.67136 3.389357,0.85941 5.944491,0.7841 2.011355,-0.0593 2.826195,-0.17382 4.218671,-0.59301 z"
         style="fill:#cccccc;fill-opacity:1;stroke:#1a1a1a;stroke-width:0.00421867;stroke-miterlimit:4;stroke-dasharray:none;stroke-opacity:1" /><path
         inkscape:connector-curvature="0"
         id="path77"
         d="m 62.841138,125.61874 c -2.580077,-0.30649 -5.100975,-2.18712 -7.33567,-5.47253 -2.642123,-3.8844 -16.6355,-24.595659 -20.565722,-30.438826 -3.575825,-5.316278 -4.209481,-6.362048 -4.072774,-6.721614 0.09327,-0.245312 0.08468,-0.563787 -0.02026,-0.751299 -0.111782,-0.199744 -0.11291,-0.325485 -0.0029,-0.325485 0.21885,0 0.823139,0.894676 0.883897,1.308646 0.02426,0.165278 0.144966,0.334126 0.268242,0.375218 0.123276,0.04109 0.178038,0.149304 0.121693,0.240471 -0.05634,0.09117 0.07497,0.260708 0.291813,0.376758 0.216841,0.11605 0.342295,0.314535 0.278787,0.441076 -0.06351,0.126542 0.02646,0.0575 0.199922,-0.153439 0.173465,-0.210934 0.395592,-0.361943 0.493614,-0.335576 0.09802,0.02637 0.178223,-0.0279 0.178223,-0.120601 0,-0.508934 7.588832,-4.778788 10.555566,-5.939085 0.364245,-0.142457 0.942224,-0.383575 1.284397,-0.535818 1.178919,-0.524536 4.56637,-1.582333 6.284671,-1.962512 6.289164,-1.391494 13.864262,-1.537416 20.286768,-0.390792 3.824851,0.682858 8.334736,2.030676 11.157982,3.334659 0.632801,0.292273 1.524258,0.693386 1.981015,0.891362 1.124119,0.487233 4.60592,2.502469 6.316743,3.656075 0.766962,0.517162 1.478863,0.888141 1.582002,0.824398 0.103138,-0.06374 0.187523,-0.0288 0.187523,0.07765 0,0.106451 -0.117432,0.262552 -0.260961,0.346893 -0.143529,0.08434 -2.375282,3.47555 -4.959454,7.536021 -11.48425,18.04504 -18.070363,28.15545 -18.881876,28.98577 -0.480163,0.49129 -1.16451,1.05023 -1.520773,1.24209 -0.44348,0.23883 -0.64775,0.48627 -0.64775,0.78463 0,0.55575 0.125542,0.54753 1.058094,-0.0693 1.556157,-1.02928 2.482945,-2.19648 5.50051,-6.92737 1.699245,-2.66405 3.136078,-4.79718 3.192965,-4.74029 0.05688,0.0569 0.733657,-0.52259 1.503937,-1.28773 0.770277,-0.76514 1.400507,-1.33235 1.400507,-1.26045 0,0.4003 -8.122217,12.86741 -9.012616,13.83381 -2.267029,2.46053 -4.84363,3.51983 -7.728101,3.17718 z m 2.742399,-14.37652 c 4.291656,-0.5539 8.248944,-2.74368 10.843632,-6.00038 1.180675,-1.48191 2.727463,-4.53417 3.272797,-6.45817 0.485761,-1.713822 0.493776,-6.596703 0.01398,-8.512592 -1.036388,-4.13836 -4.249341,-8.370436 -7.785747,-10.255322 -2.578297,-1.374216 -7.374091,-2.481761 -9.772851,-2.256948 -2.538884,0.237945 -5.519036,1.293322 -7.780216,2.75525 -5.44279,3.51894 -8.352034,9.663313 -7.618915,16.091271 0.415121,3.639771 1.827445,6.659951 4.462779,9.543431 3.70965,4.05894 8.691943,5.8256 14.364541,5.09346 z"
         style="fill:#cccccc;fill-opacity:1;stroke:#1a1a1a;stroke-width:0.00421867;stroke-miterlimit:4;stroke-dasharray:none;stroke-opacity:1" /><path
         inkscape:connector-curvature="0"
         id="path79"
         d="m 62.323655,125.56534 c -1.50614,-0.33882 -3.324247,-1.37716 -4.585147,-2.61864 -0.619673,-0.61012 -2.371531,-2.96691 -4.069128,-5.47423 C 32.115013,85.637125 25.700784,76.014224 24.901679,74.313925 c -1.994496,-4.243796 -1.661873,-7.885096 0.878084,-9.612592 0.501867,-0.341334 1.271226,-0.729643 1.709686,-0.86291 0.629977,-0.191477 8.218535,-0.242304 36.17651,-0.242304 33.261034,0 35.437078,0.02018 36.344171,0.337082 3.38152,1.181356 4.21845,4.60055 2.14702,8.771412 -0.34047,0.685534 -3.768652,6.244663 -7.618189,12.353619 l -6.999159,11.107193 -0.109559,-0.939937 -0.109559,-0.93994 2.775932,-4.318641 c 1.526762,-2.375254 3.771028,-5.828737 4.987255,-7.674405 5.747069,-8.721367 6.081159,-9.420431 5.862209,-12.266204 -0.21818,-2.835836 -1.239441,-4.370265 -3.413917,-5.129365 -0.925942,-0.323242 -2.801544,-0.34152 -34.15384,-0.332826 -31.71061,0.0088 -33.22293,0.02482 -34.281096,0.363208 -1.415054,0.452521 -2.644435,1.525103 -3.183,2.777031 -0.457446,1.063364 -0.73452,3.0548 -0.500333,3.596094 0.08317,0.192228 0.134033,0.491612 0.113038,0.665299 -0.103701,0.85789 1.797608,5.154275 2.719034,6.144196 0.263906,0.283524 0.43339,0.561939 0.37663,0.618699 -0.05676,0.05676 0.03809,0.157419 0.210781,0.223686 0.172689,0.06627 0.265862,0.198345 0.207049,0.293505 -0.05881,0.09516 0.02748,0.224597 0.191758,0.287637 0.164279,0.06304 0.25057,0.192476 0.191758,0.287636 -0.05881,0.09516 0.02748,0.224597 0.191758,0.287637 0.164279,0.06304 0.25057,0.192476 0.191757,0.287637 -0.05881,0.09516 0.02748,0.224597 0.191758,0.287636 0.164279,0.06304 0.254225,0.186564 0.199879,0.274497 -0.05435,0.08793 0.05401,0.248849 0.240799,0.357591 0.186784,0.108742 0.268253,0.200336 0.18104,0.203543 -0.08721,0.0032 0.0862,0.250598 0.385357,0.549758 0.29916,0.299159 0.715679,0.901304 0.9256,1.338099 0.209921,0.436798 0.498908,0.840101 0.642195,0.89623 0.143286,0.05613 0.790469,-0.272018 1.438183,-0.729218 3.731765,-2.634132 9.672829,-5.569313 14.222967,-7.026852 4.001495,-1.281793 7.851568,-1.89809 12.841995,-2.055672 10.788708,-0.340672 20.229691,2.204983 29.24306,7.885061 1.318334,0.830793 2.504836,1.511186 2.636669,1.511986 0.340681,0.0021 0.314546,0.07062 -0.404998,1.062388 -0.354583,0.488731 -3.40524,5.203151 -6.779238,10.47649 -10.314073,16.120221 -15.612359,24.320271 -16.181861,25.044341 -0.298963,0.3801 -0.974591,0.98414 -1.501394,1.3423 -0.526801,0.35816 -1.006159,0.77142 -1.065237,0.91835 -0.378856,0.9422 1.13138,0.10707 2.550898,-1.41061 0.599494,-0.64095 2.414742,-3.21304 4.033885,-5.71574 1.619143,-2.50271 3.019754,-4.55038 3.11247,-4.55038 0.09271,0 0.774228,-0.57135 1.514473,-1.26966 0.740242,-0.6983 1.345898,-1.20992 1.345898,-1.13692 0,0.073 -1.789225,2.94955 -3.976056,6.39234 -4.045918,6.36961 -5.368853,8.09212 -7.091127,9.23291 -1.865019,1.23534 -4.237684,1.72991 -6.191017,1.2905 z m 5.528074,-14.79813 c 3.057786,-0.81832 5.430796,-2.23391 7.634189,-4.55409 3.489689,-3.67464 5.036482,-8.372252 4.508716,-13.69297 -0.332157,-3.348666 -1.389837,-5.898768 -3.594037,-8.665346 -2.591785,-3.253048 -6.18507,-5.130809 -11.296454,-5.903243 -2.995023,-0.452609 -5.482071,-0.03069 -8.697985,1.475572 -4.776583,2.237248 -8.328535,6.669557 -9.441919,11.782105 -0.394026,1.809327 -0.290879,5.820947 0.197217,7.670311 1.657531,6.280271 7.228676,11.397491 13.443921,12.348561 1.912084,0.29259 5.216059,0.0824 7.246352,-0.4609 z"
         style="fill:#cccccc;fill-opacity:1;stroke:#1a1a1a;stroke-width:0.00421867;stroke-miterlimit:4;stroke-dasharray:none;stroke-opacity:1" /><path
         inkscape:connector-curvature="0"
         id="path38"
         d="m 59.715846,110.8379 c -2.996169,-0.65359 -5.802001,-2.31569 -8.260819,-4.89351 -7.839573,-8.218971 -5.28279,-21.39987 5.108284,-26.334569 4.712963,-2.238177 9.991169,-2.063227 15.046971,0.498742 4.181491,2.118921 7.73786,7.460112 8.229968,12.360311 0.921291,9.173816 -5.048139,17.064446 -13.988156,18.490116 -2.996739,0.47789 -3.429578,0.46934 -6.136248,-0.12109 z"
         style="fill:#f2f2f2;fill-opacity:1;stroke:#1a1a1a;stroke-width:0.00843734;stroke-miterlimit:4;stroke-dasharray:none;stroke-opacity:1" /><path
         inkscape:connector-curvature="0"
         id="path41"
         d="m 59.524088,110.82116 c -3.063356,-0.76029 -5.588388,-2.2724 -7.973683,-4.77502 -5.826694,-6.113287 -6.324301,-14.569619 -1.261992,-21.446279 5.816471,-7.901117 17.927687,-8.781023 24.899692,-1.809018 7.909198,7.909198 5.538033,21.993147 -4.493049,26.687257 -3.818523,1.7869 -7.566871,2.23756 -11.170968,1.34306 z"
         style="fill:#f2f2f2;fill-opacity:1;stroke:#1a1a1a;stroke-width:0.00843734;stroke-miterlimit:4;stroke-dasharray:none;stroke-opacity:1" /><path
         inkscape:connector-curvature="0"
         id="path43"
         d="m 59.33233,110.84072 c -8.116492,-2.20957 -13.669933,-10.53503 -12.348146,-18.511763 1.083017,-6.535799 5.237503,-11.428455 11.493834,-13.53606 5.588684,-1.882691 12.724342,-0.140165 16.873095,4.120404 6.229654,6.397557 6.080156,17.125039 -0.327958,23.533149 -3.918175,3.91817 -10.58319,5.78474 -15.690825,4.39427 z"
         style="fill:#f2f2f2;fill-opacity:1;stroke:#1a1a1a;stroke-width:0.00843734;stroke-miterlimit:4;stroke-dasharray:none;stroke-opacity:1" /><path
         inkscape:connector-curvature="0"
         id="path45"
         d="M 59.019532,110.76322 C 51.088078,108.62879 45.54252,99.921418 47.017244,91.917804 c 0.822972,-4.466433 3.056686,-8.04539 6.694855,-10.7268 8.137247,-5.997327 20.198227,-3.144491 24.555681,5.80826 3.847351,7.904702 0.804029,18.051156 -6.59751,21.996136 -4.263057,2.27218 -8.550315,2.87129 -12.650738,1.76782 z"
         style="fill:#f2f2f2;fill-opacity:1;stroke:#1a1a1a;stroke-width:0.00843734;stroke-miterlimit:4;stroke-dasharray:none;stroke-opacity:1" /><path
         inkscape:connector-curvature="0"
         id="path47"
         d="M 58.131976,110.47581 C 50.502117,107.87505 45.583708,99.697885 47.006093,91.978323 c 2.10469,-11.422566 13.81835,-17.190148 24.454856,-12.041104 2.392578,1.158227 5.571012,4.412329 6.836854,6.999617 3.946439,8.066232 0.772063,18.190064 -6.967019,22.219454 -4.548033,2.36796 -8.858712,2.79891 -13.198808,1.31952 z"
         style="fill:#f2f2f2;fill-opacity:1;stroke:#1a1a1a;stroke-width:0.00843734;stroke-miterlimit:4;stroke-dasharray:none;stroke-opacity:1" /><path
         inkscape:connector-curvature="0"
         id="path49"
         d="M 58.171469,110.4891 C 50.561194,107.8945 45.613576,99.782355 46.935296,92.066207 48.413507,83.436469 55.93576,77.486886 64.599419,78.095103 73.137021,78.694471 79.296236,84.744736 79.935531,93.159933 80.84326,105.10859 69.314484,114.28813 58.171469,110.4891 Z"
         style="fill:#f2f2f2;fill-opacity:1;stroke:#1a1a1a;stroke-width:0.00843734;stroke-miterlimit:4;stroke-dasharray:none;stroke-opacity:1" /><path
         inkscape:connector-curvature="0"
         id="path52"
         d="m 58.135133,110.50196 c -4.634386,-1.62551 -7.872104,-4.72467 -10.232232,-9.79433 -1.405518,-3.019121 -1.475256,-8.319938 -0.155198,-11.796521 1.664153,-4.382811 5.304786,-8.093654 9.667049,-9.85348 3.001196,-1.210744 9.22297,-1.199415 12.272498,0.02235 4.301056,1.723172 7.551499,4.974197 9.269748,9.271409 1.230988,3.078608 1.237592,8.873198 0.01378,12.096292 -2.440909,6.42852 -8.00507,10.4168 -15.036266,10.7777 -2.713206,0.13925 -3.685752,0.0179 -5.799384,-0.72341 z"
         style="fill:#f2f2f2;fill-opacity:1;stroke:#1a1a1a;stroke-width:0.00843734;stroke-miterlimit:4;stroke-dasharray:none;stroke-opacity:1" /><path
         inkscape:connector-curvature="0"
         id="path54"
         d="m 59.440263,111.01469 c -6.661566,-1.71402 -12.131815,-8.22651 -12.64674,-15.056304 -0.53047,-7.035981 3.281191,-13.4501 9.854198,-16.582271 2.330776,-1.110662 2.767133,-1.186674 6.711522,-1.169125 4.990126,0.0222 7.523341,0.826131 10.644172,3.377988 6.829298,5.584215 8.038431,16.000029 2.67656,23.056652 -1.842123,2.42437 -4.677647,4.5831 -7.376241,5.61566 -2.310597,0.8841 -7.748258,1.30165 -9.863471,0.7574 z"
         style="fill:#f2f2f2;fill-opacity:1;stroke:#1a1a1a;stroke-width:0.00843734;stroke-miterlimit:4;stroke-dasharray:none;stroke-opacity:1" /></g></g></g></svg>