<?xml version="1.0" encoding="UTF-8" standalone="no"?>
<!-- Generator: Adobe Illustrator 13.0.0, SVG Export Plug-In . SVG Version: 6.00 Build 14948)  -->

<svg
   xmlns:dc="http://purl.org/dc/elements/1.1/"
   xmlns:cc="http://creativecommons.org/ns#"
   xmlns:rdf="http://www.w3.org/1999/02/22-rdf-syntax-ns#"
   xmlns:svg="http://www.w3.org/2000/svg"
   xmlns="http://www.w3.org/2000/svg"
   xmlns:sodipodi="http://sodipodi.sourceforge.net/DTD/sodipodi-0.dtd"
   xmlns:inkscape="http://www.inkscape.org/namespaces/inkscape"
   version="1.1"
   id="Layer_1"
   x="0px"
   y="0px"
   width="128px"
   height="128px"
   viewBox="0 0 128 128"
   enable-background="new 0 0 128 128"
   xml:space="preserve"
   sodipodi:docname="im-user-away.svg"
   inkscape:version="0.92.4 (5da689c313, 2019-01-14)"><metadata
   id="metadata91"><rdf:RDF><cc:Work
       rdf:about=""><dc:format>image/svg+xml</dc:format><dc:type
         rdf:resource="http://purl.org/dc/dcmitype/StillImage" /></cc:Work></rdf:RDF></metadata><defs
   id="defs89"><linearGradient
   id="SVGID_1_-3"
   gradientUnits="userSpaceOnUse"
   x1="63.8354"
   y1="5.1357002"
   x2="63.8354"
   y2="122.4702"><stop
     offset="0"
     style="stop-color:#E20A16"
     id="stop2" /><stop
     offset="1"
     style="stop-color:#B51015"
     id="stop4-6" /></linearGradient><radialGradient
   id="SVGID_2_-7"
   cx="-644.9873"
   cy="-297.92679"
   r="34.5732"
   gradientTransform="matrix(0.918,0,0,-0.918,655.9629,-209.7077)"
   gradientUnits="userSpaceOnUse"><stop
     offset="0"
     style="stop-color:#FAFAFA"
     id="stop9" /><stop
     offset="0.3109"
     style="stop-color:#F4F4F4"
     id="stop11" /><stop
     offset="0.7262"
     style="stop-color:#E3E3E3"
     id="stop13-5" /><stop
     offset="1"
     style="stop-color:#D4D4D4"
     id="stop15-3" /></radialGradient><linearGradient
   id="SVGID_1_-36"
   gradientUnits="userSpaceOnUse"
   x1="64.000504"
   y1="6.1210999"
   x2="64.000504"
   y2="121.8804"><stop
     offset="0"
     style="stop-color:#FFD207"
     id="stop2-7" /><stop
     offset="1"
     style="stop-color:#FAA61A"
     id="stop4-5" /></linearGradient><radialGradient
   id="SVGID_2_-3"
   cx="64.001503"
   cy="64.001503"
   r="49.390099"
   gradientUnits="userSpaceOnUse"><stop
     offset="0"
     style="stop-color:#FAFAFA"
     id="stop9-5" /><stop
     offset="0.3109"
     style="stop-color:#F4F4F4"
     id="stop11-6" /><stop
     offset="0.7262"
     style="stop-color:#E3E3E3"
     id="stop13-2" /><stop
     offset="1"
     style="stop-color:#D4D4D4"
     id="stop15-9" /></radialGradient><linearGradient
   id="SVGID_3_-1"
   gradientUnits="userSpaceOnUse"
   x1="117.668"
   y1="40.922901"
   x2="132.0322"
   y2="40.922901"
   gradientTransform="matrix(0.9999,-0.0166,0.0166,0.9999,-61.8602,26.7754)"><stop
     offset="0"
     style="stop-color:#5F5D5C"
     id="stop22-2" /><stop
     offset="1"
     style="stop-color:#181500"
     id="stop24-7" /></linearGradient><linearGradient
   id="SVGID_4_-0"
   gradientUnits="userSpaceOnUse"
   x1="101.8242"
   y1="48.498001"
   x2="127.8809"
   y2="48.498001"
   gradientTransform="matrix(0.9999,-0.0166,0.0166,0.9999,-61.8602,26.7754)"><stop
     offset="0"
     style="stop-color:#5F5D5C"
     id="stop29" /><stop
     offset="1"
     style="stop-color:#181500"
     id="stop31" /></linearGradient><linearGradient
   id="SVGID_5_-9"
   gradientUnits="userSpaceOnUse"
   x1="124.2451"
   y1="22.441401"
   x2="127.2725"
   y2="22.441401"
   gradientTransform="matrix(0.9999,-0.0166,0.0166,0.9999,-61.8602,26.7754)"><stop
     offset="0"
     style="stop-color:#5F5D5C"
     id="stop36" /><stop
     offset="1"
     style="stop-color:#181500"
     id="stop38" /></linearGradient><linearGradient
   id="SVGID_6_-3"
   gradientUnits="userSpaceOnUse"
   x1="120.7012"
   y1="40.923302"
   x2="129"
   y2="40.923302"
   gradientTransform="matrix(0.9999,-0.0166,0.0166,0.9999,-61.8602,26.7754)"><stop
     offset="0"
     style="stop-color:#5F5D5C"
     id="stop43" /><stop
     offset="1"
     style="stop-color:#181500"
     id="stop45" /></linearGradient>
	
	<radialGradient
   gradientUnits="userSpaceOnUse"
   r="31.4116"
   cy="90.626"
   cx="37.4287"
   id="SVGID_1_">
		<stop
   id="stop4"
   style="stop-color:#FAFAFA"
   offset="0" />
		<stop
   id="stop6"
   style="stop-color:#E5E5E5"
   offset="0.3629" />
		<stop
   id="stop8"
   style="stop-color:#C4C4C4"
   offset="1" />
	</radialGradient>
	
	<radialGradient
   gradientUnits="userSpaceOnUse"
   r="24.3657"
   cy="34.3667"
   cx="38.1094"
   id="SVGID_2_">
		<stop
   id="stop13"
   style="stop-color:#FAFAFA"
   offset="0" />
		<stop
   id="stop15"
   style="stop-color:#E3E3E3"
   offset="0.4142" />
		<stop
   id="stop17"
   style="stop-color:#C7C7C7"
   offset="1" />
	</radialGradient>
	
	<linearGradient
   y2="34.6763"
   x2="49.1113"
   y1="21.9741"
   x1="49.1113"
   gradientUnits="userSpaceOnUse"
   id="SVGID_3_">
		<stop
   id="stop22"
   style="stop-color:#5F5D5C"
   offset="0" />
		<stop
   id="stop24"
   style="stop-color:#181500"
   offset="1" />
	</linearGradient>
	
	
	
	<linearGradient
   y2="43.2007"
   x2="38.2402"
   y1="54.0708"
   x1="38.2402"
   gradientUnits="userSpaceOnUse"
   id="SVGID_4_">
		<stop
   id="stop33"
   style="stop-color:#5F5D5C"
   offset="0" />
		<stop
   id="stop35"
   style="stop-color:#181500"
   offset="1" />
	</linearGradient>
	
	
	
	

		<radialGradient
   id="SVGID_5_"
   cx="90.569298"
   cy="90.624001"
   r="31.4121"
   gradientUnits="userSpaceOnUse">
			<stop
   offset="0"
   style="stop-color:#FAFAFA"
   id="stop40" />
			<stop
   offset="0.3629"
   style="stop-color:#E5E5E5"
   id="stop42" />
			<stop
   offset="1"
   style="stop-color:#C4C4C4"
   id="stop44" />
		</radialGradient>
		
		<radialGradient
   id="SVGID_6_"
   cx="90.568398"
   cy="34.366699"
   r="24.3657"
   gradientUnits="userSpaceOnUse">
			<stop
   offset="0"
   style="stop-color:#FAFAFA"
   id="stop49" />
			<stop
   offset="0.4142"
   style="stop-color:#E3E3E3"
   id="stop51" />
			<stop
   offset="1"
   style="stop-color:#C7C7C7"
   id="stop53" />
		</radialGradient>
		
		<linearGradient
   id="SVGID_7_"
   gradientUnits="userSpaceOnUse"
   x1="81.337898"
   y1="21.9741"
   x2="81.337898"
   y2="34.6763">
			<stop
   offset="0"
   style="stop-color:#5F5D5C"
   id="stop58" />
			<stop
   offset="1"
   style="stop-color:#181500"
   id="stop60" />
		</linearGradient>
		
		
		
		<linearGradient
   id="SVGID_8_"
   gradientUnits="userSpaceOnUse"
   x1="71.3545"
   y1="48.6357"
   x2="109.7822"
   y2="48.6357">
			<stop
   offset="0"
   style="stop-color:#5F5D5C"
   id="stop69" />
			<stop
   offset="1"
   style="stop-color:#181500"
   id="stop71" />
		</linearGradient>
		
		
	</defs><sodipodi:namedview
   pagecolor="#ffffff"
   bordercolor="#666666"
   borderopacity="1"
   objecttolerance="10"
   gridtolerance="10"
   guidetolerance="10"
   inkscape:pageopacity="0"
   inkscape:pageshadow="2"
   inkscape:window-width="640"
   inkscape:window-height="480"
   id="namedview87"
   showgrid="false"
   inkscape:zoom="2.6074563"
   inkscape:cx="82.315827"
   inkscape:cy="63.739439"
   inkscape:window-x="0"
   inkscape:window-y="0"
   inkscape:window-maximized="0"
   inkscape:current-layer="Layer_1" />
<path
   style="fill:#f2f2f2"
   inkscape:connector-curvature="0"
   id="path2"
   d="m 5.989,67.436 c 1.278,-0.795 2.783,-1.258 4.397,-1.258 H 64.58 c 1.596,0 3.087,0.452 4.356,1.229 l 0.642,-0.58 C 68.136,65.889 66.424,65.339 64.58,65.339 H 10.387 c -1.838,0 -3.544,0.547 -4.98,1.478 z" /><path
   inkscape:connector-curvature="0"
   style="fill:url(#SVGID_1_);stroke:#808080"
   id="path11"
   d="M 30.125,112.878 4.578,75.105 C 0.627,68.582 2.338,63.242 8.379,63.242 h 58.358 c 6.04,0 7.487,4.99 3.216,11.086 l -24.88,39.325 c -4.27,6.099 -10.998,5.749 -14.948,-0.775 z" /><path
   inkscape:connector-curvature="0"
   style="fill:url(#SVGID_2_);stroke:#808080"
   id="path20"
   d="m 13.752,34.368 c 0,-13.463 10.905,-24.375 24.358,-24.375 13.451,0 24.356,10.912 24.356,24.375 0,13.461 -10.905,24.373 -24.356,24.373 -13.453,0 -24.358,-10.912 -24.358,-24.373 z" /><path
   style="fill:#f2f2f2"
   inkscape:connector-curvature="0"
   id="path31"
   d="m 20.424,21.745 c 4.067,-5.584 11.546,-9.862 18.537,-9.862 6.99,0 14.277,4.278 18.344,9.862 h 0.773 C 53.767,15.173 46.771,10.872 38.865,10.872 c -7.908,0 -14.905,4.301 -19.215,10.873 z" /><path
   d="m 97.874,68.371 25.547,37.774 c 3.95,6.524 2.24,11.862 -3.802,11.862 H 61.262 c -6.039,0 -7.488,-4.989 -3.217,-11.088 l 24.88,-39.323 c 4.271,-6.098 10.998,-5.749 14.949,0.775 z"
   id="path47"
   style="fill:url(#SVGID_5_);stroke:#808080"
   inkscape:connector-curvature="0" /><path
   d="m 66.211,34.368 c 0,-13.463 10.906,-24.375 24.357,-24.375 13.451,0 24.357,10.912 24.357,24.375 0,13.461 -10.906,24.373 -24.357,24.373 -13.451,0 -24.357,-10.912 -24.357,-24.373 z"
   id="path56"
   style="fill:url(#SVGID_6_);stroke:#808080"
   inkscape:connector-curvature="0" /><path
   d="m 72.127,21.745 c 4.068,-5.584 11.547,-9.862 18.537,-9.862 6.99,0 14.277,4.278 18.345,9.862 h 0.773 C 105.471,15.173 98.475,10.872 90.569,10.872 c -7.908,0 -14.904,4.301 -19.215,10.873 z"
   id="path67"
   inkscape:connector-curvature="0"
   style="fill:#f2f2f2" /><path
   d="m 70.389,113.976 c 0,-18.52 14.197,-33.716 32.303,-35.315 L 97.231,70.587 C 93.54,64.492 87.253,64.165 83.262,69.865 l -23.246,36.742 c -3.991,5.696 -2.639,10.359 3.006,10.359 h 7.501 c -0.084,-0.988 -0.134,-1.982 -0.134,-2.99 z"
   id="path76"
   inkscape:connector-curvature="0"
   style="opacity:0.5;fill:#ffffff" /><path
   style="fill:#bfbfbf"
   inkscape:connector-curvature="0"
   id="path80"
   d="m 69.219,69.728 c -0.02,1.278 -0.377,2.567 -1.119,3.722 l -24.858,38.74 c -0.73,1.141 -1.738,1.999 -2.877,2.55 l 0.121,0.727 c 1.33,-0.601 2.51,-1.573 3.355,-2.891 L 68.7,73.835 c 0.842,-1.312 1.233,-2.785 1.229,-4.239 z" /><path
   style="opacity:0.5;fill:#ffffff"
   inkscape:connector-curvature="0"
   id="path82"
   d="m 10.821,82.086 c 7.245,-5.72 16.386,-9.143 26.332,-9.143 9.8,0 18.815,3.322 26.007,8.889 l 4.379,-6.917 c 3.99,-5.697 2.636,-10.356 -3.006,-10.356 h -54.52 c -5.645,0 -7.242,4.986 -3.551,11.08 z" />
<g
   transform="matrix(0.70084511,0,0,0.70045983,17.309365,12.520155)"
   id="g52"><linearGradient
     id="linearGradient93"
     gradientUnits="userSpaceOnUse"
     x1="64.000504"
     y1="6.1210999"
     x2="64.000504"
     y2="121.8804"><stop
       offset="0"
       style="stop-color:#FFD207"
       id="stop89" /><stop
       offset="1"
       style="stop-color:#FAA61A"
       id="stop91" /></linearGradient><circle
     style="fill:url(#SVGID_1_-36)"
     cx="64"
     cy="64.000999"
     r="57.879002"
     id="circle7-6" /><radialGradient
     id="radialGradient104"
     cx="64.001503"
     cy="64.001503"
     r="49.390099"
     gradientUnits="userSpaceOnUse"><stop
       offset="0"
       style="stop-color:#FAFAFA"
       id="stop96" /><stop
       offset="0.3109"
       style="stop-color:#F4F4F4"
       id="stop98" /><stop
       offset="0.7262"
       style="stop-color:#E3E3E3"
       id="stop100" /><stop
       offset="1"
       style="stop-color:#D4D4D4"
       id="stop102" /></radialGradient><circle
     style="fill:url(#SVGID_2_-3)"
     cx="64.000999"
     cy="64.000999"
     r="49.389999"
     id="circle18" /><path
     style="opacity:0.5;fill:#ffffff"
     inkscape:connector-curvature="0"
     d="m 17.016,38.718 c 10.583,-15.41 29.048,-28.037 47.235,-28.037 18.186,0 36.158,12.627 46.736,28.037 h 2.012 C 101.786,20.581 84.572,7.896 64.005,7.896 43.431,7.896 26.217,20.582 15.001,38.718 Z"
     id="path20-0" /><g
     id="g50"><linearGradient
       id="linearGradient112"
       gradientUnits="userSpaceOnUse"
       x1="117.668"
       y1="40.922901"
       x2="132.0322"
       y2="40.922901"
       gradientTransform="matrix(0.9999,-0.0166,0.0166,0.9999,-61.8602,26.7754)"><stop
         offset="0"
         style="stop-color:#5F5D5C"
         id="stop108" /><stop
         offset="1"
         style="stop-color:#181500"
         id="stop110" /></linearGradient><path
       style="fill:url(#SVGID_3_-1)"
       inkscape:connector-curvature="0"
       d="m 70.839,65.503 c -0.067,-3.965 -3.336,-7.127 -7.3,-7.062 -3.968,0.066 -7.13,3.334 -7.063,7.302 0.064,3.968 3.337,7.128 7.303,7.061 3.962,-0.066 7.124,-3.335 7.06,-7.301"
       id="path27-6" /><linearGradient
       id="linearGradient119"
       gradientUnits="userSpaceOnUse"
       x1="101.8242"
       y1="48.498001"
       x2="127.8809"
       y2="48.498001"
       gradientTransform="matrix(0.9999,-0.0166,0.0166,0.9999,-61.8602,26.7754)"><stop
         offset="0"
         style="stop-color:#5F5D5C"
         id="stop115" /><stop
         offset="1"
         style="stop-color:#181500"
         id="stop117" /></linearGradient><path
       style="fill:url(#SVGID_4_-0)"
       inkscape:connector-curvature="0"
       d="M 66.276,64.853 C 65.523,63.751 64.014,63.457 62.91,64.216 L 41.937,78.499 c -1.108,0.758 -1.395,2.265 -0.641,3.373 0.753,1.104 2.265,1.393 3.365,0.639 L 65.638,68.224 c 1.109,-0.756 1.392,-2.266 0.638,-3.371"
       id="path34" /><linearGradient
       id="linearGradient126"
       gradientUnits="userSpaceOnUse"
       x1="124.2451"
       y1="22.441401"
       x2="127.2725"
       y2="22.441401"
       gradientTransform="matrix(0.9999,-0.0166,0.0166,0.9999,-61.8602,26.7754)"><stop
         offset="0"
         style="stop-color:#5F5D5C"
         id="stop122" /><stop
         offset="1"
         style="stop-color:#181500"
         id="stop124" /></linearGradient><path
       style="fill:url(#SVGID_5_-9)"
       inkscape:connector-curvature="0"
       d="m 64.245,26.823 c -0.671,0.002 -1.213,0.547 -1.208,1.213 l 0.024,38.186 c 0,0.666 0.54,1.213 1.214,1.209 0.671,-0.003 1.21,-0.545 1.21,-1.214 L 65.456,28.036 c 0.002,-0.668 -0.537,-1.213 -1.211,-1.213"
       id="path41" /><linearGradient
       id="linearGradient133"
       gradientUnits="userSpaceOnUse"
       x1="120.7012"
       y1="40.923302"
       x2="129"
       y2="40.923302"
       gradientTransform="matrix(0.9999,-0.0166,0.0166,0.9999,-61.8602,26.7754)"><stop
         offset="0"
         style="stop-color:#5F5D5C"
         id="stop129" /><stop
         offset="1"
         style="stop-color:#181500"
         id="stop131" /></linearGradient><path
       style="fill:url(#SVGID_6_-3)"
       inkscape:connector-curvature="0"
       d="m 67.808,65.554 c -0.039,-2.288 -1.926,-4.12 -4.221,-4.083 -2.29,0.04 -4.115,1.932 -4.078,4.222 0.037,2.289 1.922,4.119 4.217,4.082 2.296,-0.04 4.119,-1.932 4.082,-4.221"
       id="path48" /></g></g></svg>