<?xml version="1.0" encoding="UTF-8" standalone="no"?>
<!-- Generator: Adobe Illustrator 13.0.0, SVG Export Plug-In . SVG Version: 6.00 Build 14948)  -->

<svg
   xmlns:dc="http://purl.org/dc/elements/1.1/"
   xmlns:cc="http://creativecommons.org/ns#"
   xmlns:rdf="http://www.w3.org/1999/02/22-rdf-syntax-ns#"
   xmlns:svg="http://www.w3.org/2000/svg"
   xmlns="http://www.w3.org/2000/svg"
   xmlns:sodipodi="http://sodipodi.sourceforge.net/DTD/sodipodi-0.dtd"
   xmlns:inkscape="http://www.inkscape.org/namespaces/inkscape"
   version="1.1"
   id="Layer_1"
   x="0px"
   y="0px"
   width="128px"
   height="128px"
   viewBox="0 0 128 128"
   enable-background="new 0 0 128 128"
   xml:space="preserve"
   sodipodi:docname="im-user.svg"
   inkscape:version="0.92.4 (5da689c313, 2019-01-14)"><metadata
   id="metadata64"><rdf:RDF><cc:Work
       rdf:about=""><dc:format>image/svg+xml</dc:format><dc:type
         rdf:resource="http://purl.org/dc/dcmitype/StillImage" /></cc:Work></rdf:RDF></metadata><defs
   id="defs62">
	
	
		<radialGradient
   gradientUnits="userSpaceOnUse"
   gradientTransform="matrix(1,0,0,-1,289.2754,151.834)"
   r="36.3303"
   cy="57.1865"
   cx="-225.8306"
   id="SVGID_1_">
		<stop
   id="stop4"
   style="stop-color:#FAFAFA"
   offset="0" />
		<stop
   id="stop6"
   style="stop-color:#E5E5E5"
   offset="0.3629" />
		<stop
   id="stop8"
   style="stop-color:#C4C4C4"
   offset="1" />
	</radialGradient>
	
	
		<radialGradient
   gradientUnits="userSpaceOnUse"
   gradientTransform="matrix(1,0,0,-1,289.2754,151.834)"
   r="28.1812"
   cy="122.2529"
   cx="-225.043"
   id="SVGID_2_">
		<stop
   id="stop13"
   style="stop-color:#FAFAFA"
   offset="0" />
		<stop
   id="stop15"
   style="stop-color:#E3E3E3"
   offset="0.4142" />
		<stop
   id="stop17"
   style="stop-color:#C7C7C7"
   offset="1" />
	</radialGradient>
	
	
		<linearGradient
   gradientTransform="matrix(1,0,0,-1,289.2754,151.834)"
   y2="121.8965"
   x2="-212.3188"
   y1="136.5859"
   x1="-212.3188"
   gradientUnits="userSpaceOnUse"
   id="SVGID_3_">
		<stop
   id="stop22"
   style="stop-color:#80C11B"
   offset="0" />
		<stop
   id="stop24"
   style="stop-color:#80E21B"
   offset="1" />
	</linearGradient>
	
	
	
	
		<linearGradient
   gradientTransform="matrix(1,0,0,-1,289.2754,151.834)"
   y2="112.0361"
   x2="-224.8896"
   y1="99.4629"
   x1="-224.8896"
   gradientUnits="userSpaceOnUse"
   id="SVGID_4_">
		<stop
   id="stop33"
   style="stop-color:#00B2DE"
   offset="0" />
		<stop
   id="stop35"
   style="stop-color:#99DBF6"
   offset="1" />
	</linearGradient>
	
	
	
	

		
			<linearGradient
   id="SVGID_5_"
   gradientUnits="userSpaceOnUse"
   x1="-336.62601"
   y1="917.42578"
   x2="-361.72449"
   y2="899.85162"
   gradientTransform="translate(412.6201,-813.9912)">
			<stop
   offset="0"
   style="stop-color:#80C11B"
   id="stop44" />
			<stop
   offset="1"
   style="stop-color:#80E21B"
   id="stop46" />
		</linearGradient>
		
		
	</defs><sodipodi:namedview
   pagecolor="#ffffff"
   bordercolor="#666666"
   borderopacity="1"
   objecttolerance="10"
   gridtolerance="10"
   guidetolerance="10"
   inkscape:pageopacity="0"
   inkscape:pageshadow="2"
   inkscape:window-width="640"
   inkscape:window-height="480"
   id="namedview60"
   showgrid="false"
   inkscape:zoom="1.84375"
   inkscape:cx="64"
   inkscape:cy="64"
   inkscape:window-x="0"
   inkscape:window-y="0"
   inkscape:window-maximized="0"
   inkscape:current-layer="Layer_1" />
<path
   style="fill:#f2f2f2"
   inkscape:connector-curvature="0"
   id="path2"
   d="m 27.083,67.825 c 1.476,-0.917 3.219,-1.452 5.084,-1.452 h 62.681 c 1.846,0 3.571,0.523 5.039,1.422 l 0.741,-0.672 C 98.961,66.039 96.981,65.402 94.849,65.402 H 32.167 c -2.125,0 -4.099,0.633 -5.759,1.707 z" /><path
   inkscape:connector-curvature="0"
   style="fill:url(#SVGID_1_);stroke:#808080"
   id="path11"
   d="M 54.997,120.386 25.449,76.699 C 20.879,69.154 22.86,62.977 29.846,62.977 h 67.498 c 6.984,0 8.658,5.771 3.718,12.824 l -28.774,45.482 c -4.94,7.051 -12.721,6.648 -17.291,-0.897 z" /><path
   inkscape:connector-curvature="0"
   style="fill:url(#SVGID_2_);stroke:#808080"
   id="path20"
   d="m 36.061,29.581 c 0,-15.569 12.614,-28.191 28.173,-28.191 15.559,0 28.169,12.622 28.169,28.191 0,15.571 -12.61,28.192 -28.169,28.192 C 48.675,57.771 36.061,45.152 36.061,29.581 Z" /><path
   style="fill:#f2f2f2"
   inkscape:connector-curvature="0"
   id="path31"
   d="M 43.777,14.981 C 48.482,8.523 57.131,3.574 65.216,3.574 c 8.085,0 16.515,4.95 21.218,11.408 h 0.894 C 82.344,7.382 74.251,2.407 65.108,2.407 c -9.147,0 -17.24,4.975 -22.226,12.575 h 0.895 z" /><path
   style="fill:#bfbfbf"
   inkscape:connector-curvature="0"
   id="path40"
   d="m 100.212,70.477 c -0.022,1.48 -0.436,2.971 -1.293,4.306 l -28.749,44.81 c -0.846,1.319 -2.012,2.311 -3.329,2.949 l 0.14,0.838 c 1.539,-0.692 2.904,-1.818 3.882,-3.342 L 99.614,75.229 c 0.975,-1.518 1.426,-3.221 1.422,-4.903 z" /><path
   style="opacity:0.5;fill:#ffffff"
   inkscape:connector-curvature="0"
   id="path42"
   d="m 32.672,84.771 c 8.379,-6.614 18.95,-10.572 30.456,-10.572 11.333,0 21.76,3.841 30.076,10.279 l 5.064,-8.001 c 4.615,-6.588 3.051,-11.978 -3.474,-11.978 H 31.737 c -6.53,0 -8.376,5.769 -4.108,12.815 z"
   enable-background="new    " /><g
   id="g53"
   style="opacity:0.5">
			<path
   d="m 63.523,78.611 c 2,0 3.622,1.973 3.622,4.406 v -0.686 c 0,-2.435 -1.622,-4.406 -3.622,-4.406 -2,0 -3.62,1.974 -3.62,4.406 v 0.686 c 0,-2.433 1.62,-4.406 3.62,-4.406 z"
   id="path51"
   inkscape:connector-curvature="0"
   style="fill:#ffffff" />
		</g>
</svg>