<?xml version="1.0" encoding="UTF-8" standalone="no"?>
<!-- Generator: Adobe Illustrator 13.0.0, SVG Export Plug-In . SVG Version: 6.00 Build 14948)  -->

<svg
   xmlns:dc="http://purl.org/dc/elements/1.1/"
   xmlns:cc="http://creativecommons.org/ns#"
   xmlns:rdf="http://www.w3.org/1999/02/22-rdf-syntax-ns#"
   xmlns:svg="http://www.w3.org/2000/svg"
   xmlns="http://www.w3.org/2000/svg"
   xmlns:sodipodi="http://sodipodi.sourceforge.net/DTD/sodipodi-0.dtd"
   xmlns:inkscape="http://www.inkscape.org/namespaces/inkscape"
   version="1.1"
   id="Layer_1"
   x="0px"
   y="0px"
   width="128px"
   height="128px"
   viewBox="0 0 128 128"
   enable-background="new 0 0 128 128"
   xml:space="preserve"
   sodipodi:docname="svn-update.svg"
   inkscape:version="0.92.4 (5da689c313, 2019-01-14)"><metadata
   id="metadata67"><rdf:RDF><cc:Work
       rdf:about=""><dc:format>image/svg+xml</dc:format><dc:type
         rdf:resource="http://purl.org/dc/dcmitype/StillImage" /></cc:Work></rdf:RDF></metadata><defs
   id="defs65">
	
	<linearGradient
   y2="26.8018"
   x2="63.9614"
   y1="4.376"
   x1="63.9614"
   gradientUnits="userSpaceOnUse"
   id="SVGID_2_">
		<stop
   id="stop19"
   style="stop-color:#80E21B"
   offset="0" />
		<stop
   id="stop21"
   style="stop-color:#80B400"
   offset="1" />
	</linearGradient>
	
	
	

		
		
	</defs><sodipodi:namedview
   pagecolor="#ffffff"
   bordercolor="#666666"
   borderopacity="1"
   objecttolerance="10"
   gridtolerance="10"
   guidetolerance="10"
   inkscape:pageopacity="0"
   inkscape:pageshadow="2"
   inkscape:window-width="640"
   inkscape:window-height="480"
   id="namedview63"
   showgrid="false"
   inkscape:zoom="1.84375"
   inkscape:cx="65.084746"
   inkscape:cy="61.830508"
   inkscape:window-x="0"
   inkscape:window-y="0"
   inkscape:window-maximized="0"
   inkscape:current-layer="Layer_1" />
<g
   id="g17">
		
			<radialGradient
   gradientUnits="userSpaceOnUse"
   gradientTransform="translate(0,-9.765625e-4)"
   r="53.135601"
   cy="64.000999"
   cx="63.902802"
   id="SVGID_1_">
			<stop
   id="stop2"
   style="stop-color:#FAFAFA"
   offset="0" />
			<stop
   id="stop4"
   style="stop-color:#F4F4F4"
   offset="0.3109" />
			<stop
   id="stop6"
   style="stop-color:#E3E3E3"
   offset="0.7262" />
			<stop
   id="stop8"
   style="stop-color:#D4D4D4"
   offset="1" />
		</radialGradient>
		<path
   inkscape:connector-curvature="0"
   style="fill:url(#SVGID_1_);stroke:#b3b3b3;stroke-width:2"
   id="path11"
   d="m 108.586,22.206 v 83.586 c 0,10.285 -8.344,18.625 -18.637,18.625 H 37.856 c -10.295,0 -18.637,-8.34 -18.637,-18.625 V 22.206 c 0,-10.285 8.342,-18.623 18.637,-18.623 h 52.093 c 10.293,0 18.637,8.338 18.637,18.623 z" />
		<path
   style="fill:#b3b3b3"
   inkscape:connector-curvature="0"
   id="path13"
   d="M 90.145,122.091 H 38.051 c -10.295,0 -18.637,-8.34 -18.637,-18.625 v 2.326 c 0,10.285 8.342,18.625 18.637,18.625 h 52.094 c 10.293,0 18.637,-8.34 18.637,-18.625 v -2.326 c -10e-4,10.285 -8.344,18.625 -18.637,18.625 z" />
		<path
   style="fill:#ffffff"
   inkscape:connector-curvature="0"
   id="path15"
   d="m 30.386,11.569 c 2.079,-1.734 4.431,-2.905 7.665,-2.905 h 52.094 c 3.234,0 5.586,1.171 7.666,2.905 h 2.629 C 97.819,8.923 94.635,7.331 90.145,7.331 H 38.051 c -4.49,0 -7.672,1.593 -10.294,4.238 z" />
	</g><path
   inkscape:connector-curvature="0"
   style="fill:url(#SVGID_2_)"
   id="path24"
   d="m 107.838,26.802 v -4.14 c 0,-10.099 -8.193,-18.286 -18.302,-18.286 h -51.15 c -10.108,0 -18.3,8.188 -18.3,18.286 v 4.14 z" /><path
   style="opacity:0.5;fill:#ffffff"
   inkscape:connector-curvature="0"
   id="path26"
   d="m 89.536,4.316 h -51.15 c -10.108,0 -18.3,8.188 -18.3,18.286 v 3.538 c 0,-10.099 8.191,-18.286 18.3,-18.286 h 51.15 c 10.108,0 18.302,8.188 18.302,18.286 v -3.538 c 0,-10.098 -8.193,-18.286 -18.302,-18.286 z" /><g
   id="g56"
   transform="rotate(90,59.119144,88.972941)">
			
				<linearGradient
   id="SVGID_4_"
   gradientUnits="userSpaceOnUse"
   x1="3565.5869"
   y1="4415.9678"
   x2="3565.5869"
   y2="4381.8604"
   gradientTransform="rotate(180,1806.8281,2241.0684)">
				<stop
   offset="0"
   style="stop-color:#99DBF6"
   id="stop43" />
				<stop
   offset="1"
   style="stop-color:#00B2DE"
   id="stop45" />
			</linearGradient>
			<path
   d="m 67.828,87.011 c 1.072,-1.021 1.608,-2.311 1.608,-3.762 0,-1.504 -0.536,-2.791 -1.609,-3.811 L 56.164,67.726 c -1.073,-1.02 -2.31,-1.557 -3.814,-1.557 -1.451,0 -2.743,0.537 -3.815,1.557 -1.02,1.072 -1.56,2.361 -1.56,3.812 0,1.508 0.54,2.74 1.562,3.814 l 2.523,2.471 -18.988,-0.002 c -1.504,0 -2.793,0.539 -3.812,1.611 -1.075,1.025 -1.558,2.311 -1.558,3.814 0,1.451 0.482,2.738 1.558,3.762 1.021,1.074 2.312,1.559 3.814,1.607 l 18.988,0.004 -2.524,2.473 c -1.021,1.021 -1.56,2.312 -1.56,3.814 0,1.449 0.541,2.738 1.56,3.812 1.074,1.02 2.366,1.557 3.813,1.557 1.507,0 2.742,-0.533 3.818,-1.557 z"
   id="path48"
   style="fill:url(#SVGID_4_)"
   inkscape:connector-curvature="0" />
			<g
   id="g54"
   style="opacity:0.6">
				<path
   d="M 66.814,80.636 55.986,69.761 c -1,-0.951 -2.146,-1.447 -3.544,-1.447 -1.348,0 -2.546,0.5 -3.544,1.447 -0.729,0.768 -1.188,1.654 -1.364,2.635 -0.005,-0.094 -0.012,-0.184 -0.012,-0.277 0,-1.346 0.499,-2.543 1.444,-3.541 1,-0.947 2.198,-1.447 3.545,-1.447 1.398,0 2.545,0.496 3.544,1.447 l 10.829,10.875 c 0.998,0.947 1.494,2.146 1.494,3.49 0,0.322 -0.029,0.631 -0.082,0.93 -0.059,-1.241 -0.547,-2.351 -1.482,-3.237 z"
   id="path50"
   inkscape:connector-curvature="0"
   style="fill:#ffffff" />
				<path
   d="M 52.849,79.479 H 32.394 c -1.396,0.049 -2.597,0.5 -3.541,1.498 -0.763,0.721 -1.202,1.586 -1.37,2.555 -0.003,-0.082 -0.01,-0.162 -0.01,-0.244 0,-1.35 0.448,-2.547 1.449,-3.494 0.945,-0.998 2.146,-1.449 3.541,-1.498 H 51.64 Z"
   id="path52"
   inkscape:connector-curvature="0"
   style="fill:#ffffff" />
			</g>
		</g>
</svg>