<?xml version="1.0" encoding="UTF-8" standalone="no"?>
<!-- Generator: Adobe Illustrator 13.0.0, SVG Export Plug-In . SVG Version: 6.00 Build 14948)  -->

<svg
   xmlns:dc="http://purl.org/dc/elements/1.1/"
   xmlns:cc="http://creativecommons.org/ns#"
   xmlns:rdf="http://www.w3.org/1999/02/22-rdf-syntax-ns#"
   xmlns:svg="http://www.w3.org/2000/svg"
   xmlns="http://www.w3.org/2000/svg"
   xmlns:sodipodi="http://sodipodi.sourceforge.net/DTD/sodipodi-0.dtd"
   xmlns:inkscape="http://www.inkscape.org/namespaces/inkscape"
   version="1.1"
   id="Layer_1"
   x="0px"
   y="0px"
   width="128px"
   height="128px"
   viewBox="0 0 128 128"
   enable-background="new 0 0 128 128"
   xml:space="preserve"
   sodipodi:docname="svn-commit.svg"
   inkscape:version="0.92.4 (5da689c313, 2019-01-14)"><metadata
   id="metadata67"><rdf:RDF><cc:Work
       rdf:about=""><dc:format>image/svg+xml</dc:format><dc:type
         rdf:resource="http://purl.org/dc/dcmitype/StillImage" /></cc:Work></rdf:RDF></metadata><defs
   id="defs65">
	
	<linearGradient
   y2="26.8018"
   x2="63.9614"
   y1="4.376"
   x1="63.9614"
   gradientUnits="userSpaceOnUse"
   id="SVGID_2_">
		<stop
   id="stop19"
   style="stop-color:#80E21B"
   offset="0" />
		<stop
   id="stop21"
   style="stop-color:#80B400"
   offset="1" />
	</linearGradient>
	
	
	

		
		
	</defs><sodipodi:namedview
   pagecolor="#ffffff"
   bordercolor="#666666"
   borderopacity="1"
   objecttolerance="10"
   gridtolerance="10"
   guidetolerance="10"
   inkscape:pageopacity="0"
   inkscape:pageshadow="2"
   inkscape:window-width="1366"
   inkscape:window-height="711"
   id="namedview63"
   showgrid="false"
   inkscape:zoom="1.84375"
   inkscape:cx="64"
   inkscape:cy="64"
   inkscape:window-x="0"
   inkscape:window-y="0"
   inkscape:window-maximized="1"
   inkscape:current-layer="Layer_1" />
<g
   id="g17">
		
			<radialGradient
   gradientUnits="userSpaceOnUse"
   gradientTransform="translate(0,-9.765625e-4)"
   r="53.135601"
   cy="64.000999"
   cx="63.902802"
   id="SVGID_1_">
			<stop
   id="stop2"
   style="stop-color:#FAFAFA"
   offset="0" />
			<stop
   id="stop4"
   style="stop-color:#F4F4F4"
   offset="0.3109" />
			<stop
   id="stop6"
   style="stop-color:#E3E3E3"
   offset="0.7262" />
			<stop
   id="stop8"
   style="stop-color:#D4D4D4"
   offset="1" />
		</radialGradient>
		<path
   inkscape:connector-curvature="0"
   style="fill:url(#SVGID_1_);stroke:#b3b3b3;stroke-width:2"
   id="path11"
   d="m 108.586,22.206 v 83.586 c 0,10.285 -8.344,18.625 -18.637,18.625 H 37.856 c -10.295,0 -18.637,-8.34 -18.637,-18.625 V 22.206 c 0,-10.285 8.342,-18.623 18.637,-18.623 h 52.093 c 10.293,0 18.637,8.338 18.637,18.623 z" />
		<path
   style="fill:#b3b3b3"
   inkscape:connector-curvature="0"
   id="path13"
   d="M 90.145,122.091 H 38.051 c -10.295,0 -18.637,-8.34 -18.637,-18.625 v 2.326 c 0,10.285 8.342,18.625 18.637,18.625 h 52.094 c 10.293,0 18.637,-8.34 18.637,-18.625 v -2.326 c -10e-4,10.285 -8.344,18.625 -18.637,18.625 z" />
		<path
   style="fill:#ffffff"
   inkscape:connector-curvature="0"
   id="path15"
   d="m 30.386,11.569 c 2.079,-1.734 4.431,-2.905 7.665,-2.905 h 52.094 c 3.234,0 5.586,1.171 7.666,2.905 h 2.629 C 97.819,8.923 94.635,7.331 90.145,7.331 H 38.051 c -4.49,0 -7.672,1.593 -10.294,4.238 z" />
	</g><path
   inkscape:connector-curvature="0"
   style="fill:url(#SVGID_2_)"
   id="path24"
   d="m 107.838,26.802 v -4.14 c 0,-10.099 -8.193,-18.286 -18.302,-18.286 h -51.15 c -10.108,0 -18.3,8.188 -18.3,18.286 v 4.14 z" /><path
   style="opacity:0.5;fill:#ffffff"
   inkscape:connector-curvature="0"
   id="path26"
   d="m 89.536,4.316 h -51.15 c -10.108,0 -18.3,8.188 -18.3,18.286 v 3.538 c 0,-10.099 8.191,-18.286 18.3,-18.286 h 51.15 c 10.108,0 18.302,8.188 18.302,18.286 v -3.538 c 0,-10.098 -8.193,-18.286 -18.302,-18.286 z" /><g
   id="g41"
   transform="rotate(90,67.525924,60.498364)">
			
				<linearGradient
   id="SVGID_3_"
   gradientUnits="userSpaceOnUse"
   x1="-1163.8896"
   y1="2860.8965"
   x2="-1212.6592"
   y2="2860.8894"
   gradientTransform="matrix(-1e-4,-0.6994,0.6996,0,-1921.6675,-766.7272)">
				<stop
   offset="0"
   style="stop-color:#FF9D00"
   id="stop28" />
				<stop
   offset="1"
   style="stop-color:#FF1F00"
   id="stop30" />
			</linearGradient>
			<path
   d="m 60.174,60.562 c -1.074,1.021 -1.609,2.311 -1.609,3.758 0,1.508 0.537,2.791 1.61,3.814 l 11.66,11.713 c 1.074,1.02 2.31,1.559 3.815,1.559 1.45,0 2.742,-0.539 3.815,-1.559 1.02,-1.072 1.557,-2.363 1.557,-3.812 0,-1.504 -0.537,-2.74 -1.56,-3.814 l -2.523,-2.471 18.988,0.002 c 1.504,0 2.793,-0.537 3.811,-1.611 1.079,-1.023 1.561,-2.312 1.561,-3.814 0,-1.451 -0.481,-2.74 -1.561,-3.762 -1.018,-1.074 -2.31,-1.559 -3.812,-1.611 H 76.937 l 2.526,-2.473 c 1.02,-1.021 1.56,-2.311 1.557,-3.814 0,-1.447 -0.538,-2.738 -1.557,-3.812 -1.075,-1.02 -2.365,-1.557 -3.815,-1.557 -1.505,0 -2.74,0.533 -3.815,1.557 z"
   id="path33"
   style="fill:url(#SVGID_3_)"
   inkscape:connector-curvature="0" />
			<g
   id="g39"
   style="opacity:0.6">
				<path
   d="M 61.39,61.876 72.218,51.001 c 0.999,-0.949 2.147,-1.445 3.544,-1.445 1.348,0 2.546,0.498 3.545,1.445 0.728,0.768 1.188,1.656 1.363,2.635 0.005,-0.092 0.012,-0.184 0.012,-0.277 0,-1.344 -0.5,-2.543 -1.445,-3.541 -0.999,-0.947 -2.197,-1.447 -3.544,-1.447 -1.397,0 -2.545,0.498 -3.544,1.447 L 61.32,60.692 c -0.998,0.949 -1.494,2.146 -1.494,3.492 0,0.32 0.029,0.629 0.082,0.928 0.059,-1.24 0.547,-2.347 1.482,-3.236 z"
   id="path35"
   inkscape:connector-curvature="0"
   style="fill:#ffffff" />
				<path
   d="m 75.249,60.669 h 20.455 c 1.396,0.049 2.597,0.498 3.541,1.496 0.763,0.721 1.202,1.588 1.37,2.555 0.003,-0.082 0.01,-0.162 0.01,-0.244 0,-1.348 -0.447,-2.547 -1.449,-3.494 -0.945,-0.998 -2.146,-1.447 -3.541,-1.496 H 76.458 Z"
   id="path37"
   inkscape:connector-curvature="0"
   style="fill:#ffffff" />
			</g>
		</g>
</svg>