<?xml version="1.0" encoding="UTF-8" standalone="no"?>
<!-- Generator: Adobe Illustrator 13.0.0, SVG Export Plug-In . SVG Version: 6.00 Build 14948)  -->

<svg
   xmlns:dc="http://purl.org/dc/elements/1.1/"
   xmlns:cc="http://creativecommons.org/ns#"
   xmlns:rdf="http://www.w3.org/1999/02/22-rdf-syntax-ns#"
   xmlns:svg="http://www.w3.org/2000/svg"
   xmlns="http://www.w3.org/2000/svg"
   xmlns:sodipodi="http://sodipodi.sourceforge.net/DTD/sodipodi-0.dtd"
   xmlns:inkscape="http://www.inkscape.org/namespaces/inkscape"
   version="1.1"
   id="Layer_1"
   x="0px"
   y="0px"
   width="128px"
   height="128px"
   viewBox="0 0 128 128"
   enable-background="new 0 0 128 128"
   xml:space="preserve"
   sodipodi:docname="tools-media-optical-burn-image.svg"
   inkscape:version="0.92.4 (5da689c313, 2019-01-14)"><metadata
   id="metadata38"><rdf:RDF><cc:Work
       rdf:about=""><dc:format>image/svg+xml</dc:format><dc:type
         rdf:resource="http://purl.org/dc/dcmitype/StillImage" /></cc:Work></rdf:RDF></metadata><defs
   id="defs36"><linearGradient
     y2="82.708"
     x2="64.472702"
     y1="20.8643"
     x1="64.472702"
     gradientUnits="userSpaceOnUse"
     id="SVGID_2_-6"><stop
       id="stop19"
       style="stop-color:#FFD207"
       offset="0" /><stop
       id="stop21"
       style="stop-color:#FAA61A"
       offset="1" /></linearGradient><linearGradient
     y2="67.691597"
     x2="52.949699"
     y1="73.266602"
     x1="60.911598"
     gradientUnits="userSpaceOnUse"
     id="SVGID_3_-7"><stop
       id="stop26-5"
       style="stop-color:#DEDEDE"
       offset="0" /><stop
       id="stop28"
       style="stop-color:#FEFEFE"
       offset="1" /></linearGradient><linearGradient
     y2="43.136501"
     x2="54.190701"
     y1="62.2197"
     x1="81.444298"
     gradientUnits="userSpaceOnUse"
     id="SVGID_4_"><stop
       id="stop33"
       style="stop-color:#DEDEDE"
       offset="0" /><stop
       id="stop35"
       style="stop-color:#FEFEFE"
       offset="1" /></linearGradient><linearGradient
     y2="49.233398"
     x2="66.119499"
     y1="62.955601"
     x1="85.716797"
     gradientUnits="userSpaceOnUse"
     id="SVGID_5_"><stop
       id="stop40"
       style="stop-color:#DEDEDE"
       offset="0" /><stop
       id="stop42"
       style="stop-color:#FEFEFE"
       offset="1" /></linearGradient></defs><sodipodi:namedview
   pagecolor="#ffffff"
   bordercolor="#666666"
   borderopacity="1"
   objecttolerance="10"
   gridtolerance="10"
   guidetolerance="10"
   inkscape:pageopacity="0"
   inkscape:pageshadow="2"
   inkscape:window-width="640"
   inkscape:window-height="480"
   id="namedview34"
   showgrid="false"
   inkscape:zoom="1.84375"
   inkscape:cx="65.084746"
   inkscape:cy="61.830508"
   inkscape:window-x="0"
   inkscape:window-y="0"
   inkscape:window-maximized="0"
   inkscape:current-layer="Layer_1" />

<g
   id="g251"><g
     id="g207"><g
       id="g187"><g
         id="g31">
	
		<linearGradient
   gradientTransform="matrix(-1 0 0 1 2936.8672 0)"
   y2="108.0696"
   x2="2872.7588"
   y1="8.5898"
   x1="2872.7588"
   gradientUnits="userSpaceOnUse"
   id="SVGID_1_">
		<stop
   id="stop2"
   style="stop-color:#FFD207"
   offset="0" />
		<stop
   id="stop4"
   style="stop-color:#FAA61A"
   offset="1" />
	</linearGradient>
	<path
   id="path7"
   d="M9.467,63.233c0,30.177,24.463,54.64,54.643,54.64c30.178,0,54.641-24.463,54.641-54.64   c0-30.18-24.463-54.644-54.641-54.644C33.93,8.59,9.467,33.054,9.467,63.233z M53.066,63.49   c0.002-6.133,4.965-11.101,11.104-11.101v-0.003c6.127,0.003,11.097,4.971,11.1,11.104c-0.003,6.132-4.973,11.101-11.1,11.101   C58.031,74.591,53.068,69.622,53.066,63.49z"
   fill="url(#SVGID_1_)" />
	<g
   id="g18">
		<linearGradient
   y2="66.8653"
   x2="45.3828"
   y1="56.3149"
   x1="45.3828"
   gradientUnits="userSpaceOnUse"
   id="SVGID_2_">
			<stop
   id="stop9"
   style="stop-color:#E2A616"
   offset="0" />
			<stop
   id="stop11"
   style="stop-color:#C20000"
   offset="1" />
		</linearGradient>
		<path
   id="path14"
   d="M51.656,66.722c-0.287-1.025-0.449-2.099-0.449-3.215c0-1.09,0.158-2.141,0.43-3.145    c-3.488-2.888-7.559-4.927-12.527-5.542C44.224,56.829,48.223,61.558,51.656,66.722z"
   fill="url(#SVGID_2_)" />
		<path
   id="path16"
   d="M90.435,36.657c9.109,6.709,19.384,19.096,19.948,30.604c0.424,8.631-12.889,14.775-18.39,15.162    c-8.007,0.564-12.48-9.166-10.437-14.723c1.568-4.253,8.082-10.08,12.675-6.195C89.59,53.08,76.01,62.771,74.57,69.221    c-2.578,11.498,10.684,17.36,9.842,29.479c-0.508,7.313-5.824,13.068-12.213,14.6c-4.52,1.08-10.414-2.532-10.119-8.001    c0.287-5.226,4.268-6.823,5.711-13.057c1.305-5.616-1.132-10.916-4.034-16.004c-0.136-0.241-0.277-0.479-0.416-0.718    c-0.036,0.001-0.077,0.006-0.116,0.006c-3.076,0-5.877-1.167-8.003-3.068c0.284,0.471,0.562,0.939,0.835,1.401    c6.921,11.639,2.388,20.023-5.217,26.237c-6.177,5.055-15.867,7.297-22.191-1.403c-6.474-8.915-0.428-15.725,7.018-16.564    c-6.043-2.668-13.695-3.416-18.258-0.284c-2.273,1.555-3.705,4.177-0.43,8.687c2.297,3.188,2.568,4.808,8.316,10.266    c31.67,30.078,72.192,14.862,87.674-13.627c0.469-0.703,4.16-7.257,4.603-16.899C117.998,60.984,115.756,45.021,90.435,36.657z"
   fill="#FF1F00" />
	</g>
	<path
   id="path20"
   d="M64.104,13.889c18.843,0,35.447,9.571,45.224,24.117c-9.007-15.644-25.879-26.184-45.224-26.184   c-19.342,0-36.21,10.534-45.214,26.169C28.666,23.454,45.264,13.889,64.104,13.889z"
   fill="#FFFFFF" />
	<path
   id="path22"
   d="M64.054,115.908c-22.544,0-41.958-13.375-50.764-32.617c7.97,20.246,27.685,34.582,50.764,34.582   s42.797-14.336,50.768-34.586C106.012,102.53,86.602,115.908,64.054,115.908z"
   fill="#A51C20" />
	<linearGradient
   y2="63.4604"
   x2="82.5303"
   y1="63.4604"
   x1="45.8555"
   gradientUnits="userSpaceOnUse"
   id="SVGID_3_">
		<stop
   id="stop24"
   style="stop-color:#5F5D5C"
   offset="0" />
		<stop
   id="stop26"
   style="stop-color:#181500"
   offset="1" />
	</linearGradient>
	<path
   id="path29"
   d="M45.855,63.462c0.003,10.129,8.207,18.333,18.344,18.333c10.119,0,18.331-8.204,18.331-18.333   c0-10.126-8.212-18.329-18.331-18.336v0.007C54.062,45.133,45.858,53.336,45.855,63.462z M53.205,63.462   c0.003-6.069,4.916-10.982,10.99-10.982v-0.005c6.066,0.005,10.984,4.918,10.988,10.987c-0.004,6.069-4.922,10.985-10.988,10.985   C58.121,74.447,53.208,69.531,53.205,63.462z"
   fill="url(#SVGID_3_)" />
</g></g></g><g
     id="g167"><g
       id="g143"><g
         id="g186"
         transform="translate(-24.914,-13.999)"><path
           inkscape:connector-curvature="0"
           style="fill:url(#SVGID_2_-6)"
           id="path24"
           d="m 99.425,71.495 c 0,6.193 -5.02,11.213 -11.211,11.213 H 40.731 C 34.54,82.708 29.52,77.688 29.52,71.495 V 32.077 c 0,-6.193 5.02,-11.213 11.211,-11.213 h 47.482 c 6.191,0 11.211,5.02 11.211,11.213 v 39.418 z" /></g><g
         id="g47"
         transform="translate(-24.914,-13.999)"><linearGradient
           id="linearGradient214"
           gradientUnits="userSpaceOnUse"
           x1="60.911598"
           y1="73.266602"
           x2="52.949699"
           y2="67.691597"><stop
             offset="0"
             style="stop-color:#DEDEDE"
             id="stop210" /><stop
             offset="1"
             style="stop-color:#FEFEFE"
             id="stop212" /></linearGradient><polygon
           points="64.024,68.819 54.267,65.81 54.251,75.229 "
           id="polygon31"
           style="opacity:0.8;fill:url(#SVGID_3_-7)" /><linearGradient
           id="linearGradient221"
           gradientUnits="userSpaceOnUse"
           x1="81.444298"
           y1="62.2197"
           x2="54.190701"
           y2="43.136501"><stop
             offset="0"
             style="stop-color:#DEDEDE"
             id="stop217" /><stop
             offset="1"
             style="stop-color:#FEFEFE"
             id="stop219" /></linearGradient><polygon
           points="41.845,60.769 93.79,44.587 53.976,64.979 "
           id="polygon38"
           style="fill:url(#SVGID_4_)" /><linearGradient
           id="linearGradient228"
           gradientUnits="userSpaceOnUse"
           x1="85.716797"
           y1="62.955601"
           x2="66.119499"
           y2="49.233398"><stop
             offset="0"
             style="stop-color:#DEDEDE"
             id="stop224" /><stop
             offset="1"
             style="stop-color:#FEFEFE"
             id="stop226" /></linearGradient><polygon
           points="78.683,73.001 94.147,44.94 54.882,65.282 "
           id="polygon45"
           style="fill:url(#SVGID_5_)" /></g><g
         id="g53"
         transform="translate(-24.914,-13.999)"><path
           d="m 62.794,39.927 c 0,0 0.354,-1.621 -1.18,-2.238 -1.533,-0.621 -2.789,0.996 -2.789,0.996 0,0 1.805,-3.684 -1.957,-4.588 -3.762,-0.9 -4.74,3.084 -4.74,3.084 0,0 0.15,-5.49 -3.836,-4.588 -2.947,0.668 -5.361,2.654 -5.506,4.674 -0.33,-0.346 -0.838,-0.35 -1.441,-0.561 -2.238,-0.785 -7.371,3.414 -2.506,6.57 2.861,1.857 4.463,-0.551 4.463,-0.551 1.654,1.703 3.41,2.057 5.869,1.553 2.455,-0.502 3.561,-1.906 3.561,-1.906 2.857,2.811 6.318,-0.5 6.318,-0.5 1.154,1.404 3.41,-0.303 3.41,-0.303 1.154,1.305 3.045,1.068 3.074,-0.639 0.029,-1.708 -2.74,-1.003 -2.74,-1.003 z"
           id="path49"
           inkscape:connector-curvature="0"
           style="fill:#ffffff" /><path
           d="m 65.284,41.757 c 0,0 -1.965,0.258 -2.52,-1.111 0,0 -2.438,1.797 -3.035,-0.086 -0.043,0.172 -0.043,0.172 -0.043,0.172 0,0 -5.813,2.264 -6.881,-0.471 0,0 -5.555,5.129 -8.547,0.514 0,0 -4.58,3.848 -7.23,0.557 -0.01,-0.014 0,0.104 0.104,0 0.07,0.68 0.744,1.646 1.953,2.193 3.111,1.404 4.217,-0.799 4.217,-0.799 1.654,1.703 3.41,2.057 5.869,1.553 2.455,-0.502 3.561,-1.906 3.561,-1.906 2.857,2.811 6.318,-0.5 6.318,-0.5 1.154,1.404 3.41,-0.303 3.41,-0.303 0.92,1.041 2.309,1.1 2.848,0.217 z"
           id="path51"
           inkscape:connector-curvature="0"
           style="fill:#e6e6e6" /></g><g
         id="g59"
         transform="translate(-24.914,-13.999)"><path
           d="M 88.221,79.19 H 40.722 c -6.195,0 -11.216,-5.021 -11.216,-11.217 v 3.505 c 0,6.196 5.021,11.218 11.216,11.218 h 47.499 c 6.197,0 11.217,-5.021 11.217,-11.218 v -3.505 c 0,6.197 -5.02,11.217 -11.217,11.217 z"
           id="path55"
           inkscape:connector-curvature="0"
           style="fill:#fa8f1a" /><path
           d="M 86.061,23.355 H 42.77 c -5.647,0 -10.225,4.576 -10.225,10.224 v 1.651 c 0,-5.648 4.577,-10.223 10.225,-10.223 h 43.291 c 5.646,0 10.224,4.577 10.224,10.223 V 33.58 C 96.284,27.934 91.707,23.355 86.061,23.355 Z"
           id="path57"
           inkscape:connector-curvature="0"
           style="opacity:0.7;fill:#ffffff" /></g></g></g></g></svg>